<svg width="135" height="135" viewBox="0 0 135 135" fill="none" xmlns="http://www.w3.org/2000/svg">
<g id="help_1200381 1" clip-path="url(#clip0_74_73)">
<path id="Vector" d="M59.5067 49.1686C57.1955 47.8039 55.2797 45.8892 53.915 43.5769L39.8086 57.6833C41.4648 59.7546 43.329 61.6188 45.4003 63.2761L59.5067 49.1686Z" fill="white"/>
<path id="Vector_2" d="M95.1766 57.6833L81.0702 43.5769C79.7055 45.8892 77.7898 47.8039 75.4785 49.1686L89.585 63.2761C91.6562 61.6188 93.5205 59.7546 95.1766 57.6833Z" fill="white"/>
<path id="Vector_3" d="M103.084 35.5914C103.084 30.113 101.737 24.9828 99.5173 20.3428L84.2676 35.5914L99.5162 50.8401C101.737 46.2011 103.084 41.0698 103.084 35.5914Z" fill="white"/>
<path id="Vector_4" d="M31.9004 35.5914C31.9004 41.0698 33.2476 46.2011 35.4672 50.8401L50.7158 35.5914L35.4672 20.3428C33.2466 24.9828 31.9004 30.113 31.9004 35.5914Z" fill="white"/>
<path id="Vector_5" d="M59.583 35.5915C59.583 39.9513 63.1323 43.5006 67.4921 43.5006C71.853 43.5006 75.4023 39.9513 75.4023 35.5915C75.4023 31.2316 71.853 27.6824 67.4921 27.6824C63.1323 27.6824 59.583 31.2316 59.583 35.5915Z" fill="white"/>
<path id="Vector_6" d="M39.8086 13.4997L53.915 27.6061C55.2797 25.2939 57.1955 23.3792 59.5067 22.0144L45.4003 7.90698C43.329 9.5642 41.4648 11.4284 39.8086 13.4997Z" fill="white"/>
<path id="Vector_7" d="M82.7415 67.6163L67.4918 52.3677L52.2432 67.6163C56.8832 69.837 62.0145 71.1831 67.4918 71.1831C72.9702 71.1831 78.1015 69.837 82.7415 67.6163Z" fill="white"/>
<path id="Vector_8" d="M52.2432 3.56678L67.4918 18.8154L82.7405 3.56678C78.1015 1.34617 72.9702 0 67.4918 0C62.0145 0 56.8832 1.34617 52.2432 3.56678Z" fill="white"/>
<path id="Vector_9" d="M81.0702 27.6061L95.1766 13.4997C93.5205 11.4284 91.6562 9.5642 89.585 7.90698L75.4785 22.0144C77.7898 23.3792 79.7055 25.2939 81.0702 27.6061Z" fill="white"/>
<path id="Vector_10" d="M118.903 75.1381C118.903 78.3043 117.667 81.286 115.427 83.5262L99.276 99.6761L93.6956 94.0957C94.5082 93.2831 112.766 75.0259 111.626 76.166L100.474 65.0136L77.2213 88.1878C73.3774 92.0306 71.4473 97.0435 71.4473 102.108C71.4473 104.711 71.4473 135.796 71.4473 134.984H103.085V120.537L128.974 94.9104L129.211 94.6735C132.928 90.9564 134.985 85.9734 134.985 80.7535C134.985 79.5783 134.985 38.3848 134.985 39.5466H118.903C118.903 40.7475 118.903 76.7583 118.903 75.1381Z" fill="white"/>
<path id="Vector_11" d="M6.01089 94.9104L31.9002 120.537V134.984H63.5377C63.5377 135.796 63.5377 104.711 63.5377 102.108C63.5377 97.0435 61.6075 92.0306 57.7637 88.1878L34.5111 65.0136L23.3586 76.166C22.2185 75.0259 40.4767 93.2831 41.2893 94.0957L35.708 99.6761L19.5581 83.5262C17.3179 81.286 16.0819 78.3043 16.0819 75.1381C16.0819 76.7583 16.0819 40.7475 16.0819 39.5466H0C0 38.3848 0 79.5783 0 80.7535C0 85.9734 2.05685 90.9564 5.774 94.6735L6.01089 94.9104Z" fill="white"/>
</g>
<defs>
<clipPath id="clip0_74_73">
<rect width="135" height="135" fill="white"/>
</clipPath>
</defs>
</svg>
