<svg width="154" height="154" viewBox="0 0 154 154" fill="none" xmlns="http://www.w3.org/2000/svg">
<g id="expectional_17746528 1">
<path id="Vector" fill-rule="evenodd" clip-rule="evenodd" d="M76.713 5.41324C76.7534 5.28884 76.8694 5.20459 77.0002 5.20459C77.1309 5.20459 77.2469 5.28884 77.2873 5.41324C78.1479 8.06204 80.6469 15.753 80.6469 15.753H91.5187C91.6495 15.753 91.7654 15.8372 91.8059 15.9616C91.8464 16.086 91.802 16.2222 91.6963 16.2992C89.443 17.9362 82.9008 22.6896 82.9008 22.6896C82.9008 22.6896 85.3998 30.3806 86.2604 33.0294C86.3008 33.1538 86.2565 33.29 86.1508 33.367C86.0448 33.4437 85.9013 33.4437 85.7957 33.367C83.5424 31.7297 77.0002 26.9766 77.0002 26.9766C77.0002 26.9766 70.4579 31.7297 68.2046 33.367C68.0989 33.4437 67.9555 33.4437 67.8495 33.367C67.7438 33.29 67.6995 33.1538 67.7399 33.0294C68.6005 30.3806 71.0995 22.6896 71.0995 22.6896C71.0995 22.6896 64.5573 17.9362 62.304 16.2992C62.1983 16.2222 62.1539 16.086 62.1944 15.9616C62.2349 15.8372 62.3508 15.753 62.4816 15.753H73.3534C73.3534 15.753 75.8524 8.06204 76.713 5.41324ZM119.519 17.4265C119.56 17.302 119.676 17.2178 119.807 17.2178C119.937 17.2178 120.053 17.302 120.094 17.4265C120.954 20.0753 123.453 27.7662 123.453 27.7662H134.325C134.456 27.7662 134.572 27.8504 134.612 27.9748C134.653 28.0993 134.609 28.2357 134.503 28.3124C132.249 29.9497 125.707 34.7028 125.707 34.7028C125.707 34.7028 128.206 42.3938 129.067 45.0426C129.107 45.167 129.063 45.3032 128.957 45.3802C128.851 45.4572 128.708 45.4572 128.602 45.3802C126.349 43.7429 119.807 38.9898 119.807 38.9898C119.807 38.9898 113.264 43.7429 111.011 45.3802C110.905 45.4572 110.762 45.4572 110.656 45.3802C110.55 45.3032 110.506 45.167 110.546 45.0426C111.407 42.3938 113.906 34.7028 113.906 34.7028C113.906 34.7028 107.364 29.9497 105.111 28.3124C105.005 28.2357 104.96 28.0993 105.001 27.9748C105.041 27.8504 105.157 27.7662 105.288 27.7662H116.16C116.16 27.7662 118.659 20.0753 119.519 17.4265ZM33.9064 17.4265C33.9469 17.302 34.0628 17.2178 34.1936 17.2178C34.3246 17.2178 34.4406 17.302 34.4811 17.4265C35.3416 20.0753 37.8404 27.7662 37.8404 27.7662H48.7125C48.8432 27.7662 48.9592 27.8504 48.9996 27.9748C49.0401 28.0993 48.9957 28.2357 48.8897 28.3124C46.6365 29.9497 40.0942 34.7028 40.0942 34.7028C40.0942 34.7028 42.5932 42.3938 43.4538 45.0426C43.4943 45.167 43.4502 45.3032 43.3442 45.3802C43.2385 45.4572 43.0951 45.4572 42.9891 45.3802C40.7359 43.7429 34.1936 38.9898 34.1936 38.9898C34.1936 38.9898 27.6513 43.7429 25.3981 45.3802C25.2924 45.4572 25.149 45.4572 25.0433 45.3802C24.9373 45.3032 24.8932 45.167 24.9337 45.0426C25.7942 42.3938 28.2933 34.7028 28.2933 34.7028C28.2933 34.7028 21.751 29.9497 19.4978 28.3124C19.3918 28.2357 19.3474 28.0993 19.3879 27.9748C19.4283 27.8504 19.5443 27.7662 19.675 27.7662H30.5471C30.5471 27.7662 33.0458 20.0753 33.9064 17.4265ZM107.55 117.205L119.387 137.712L102.038 134.206L96.4017 150.98L83.1762 128.078C92.4128 126.866 100.807 122.973 107.55 117.205ZM46.4469 117.207C53.1899 122.973 61.5829 126.865 70.8193 128.078L57.5986 150.98L51.9555 134.206L34.607 137.712L46.4469 117.207ZM77.0002 38.6332C100.637 38.6332 119.807 57.8025 119.807 81.4397C119.807 105.083 100.637 124.253 77.0002 124.253C53.3566 124.253 34.1872 105.083 34.1872 81.4397C34.1872 57.8025 53.3566 38.6332 77.0002 38.6332ZM77.0002 114.353C95.1238 114.353 109.914 99.571 109.914 81.4397C109.914 63.316 95.1238 48.526 77.0002 48.526C58.8689 48.526 44.0864 63.316 44.0864 81.4397C44.0864 99.571 58.8689 114.353 77.0002 114.353ZM77.0002 110.126C61.1976 110.126 48.3139 97.2422 48.3139 81.4397C48.3139 65.6439 61.1976 52.7534 77.0002 52.7534C92.796 52.7534 105.686 65.6439 105.686 81.4397C105.686 97.2422 92.796 110.126 77.0002 110.126ZM71.8037 76.2638C72.009 76.8611 72.122 77.5009 72.1253 78.1662V78.1716L72.1854 95.9444C72.1872 96.3243 72.1576 96.6924 72.0963 97.0481C73.0735 97.4367 74.3716 97.9084 74.9151 97.9084L90.7874 97.8682C92.3162 97.835 93.6466 96.6872 93.6466 94.9935C93.6466 93.2998 92.1504 92.4679 91.3071 92.3517C93.7155 92.3607 95.2978 91.4751 95.276 89.3016C95.2543 87.1284 93.1659 86.5259 92.2597 86.4423C94.7038 86.5845 96.6838 85.704 96.6161 83.6099C96.5485 81.5158 94.1349 81.0632 92.6798 80.7506C94.8515 80.9336 97.1267 80.0999 97.1267 77.9204C97.1267 76.6597 96.4549 75.2553 94.4749 75.0813L86.1224 75.0946C83.5418 75.0768 83.2876 75.1302 82.908 74.7887C82.5263 74.4451 82.3748 73.9586 82.4928 73.4607L84.5307 64.8183C85.0242 62.7825 83.7653 60.7134 81.7295 60.2203C79.6939 59.7248 77.6249 60.9858 77.1315 63.0213L75.2074 70.943C74.9432 72.03 73.0309 74.1821 71.8037 76.2638ZM66.2416 97.6918C66.7148 97.6918 67.1233 97.52 67.4582 97.1852C67.7931 96.8482 67.9604 96.4375 67.9582 95.9643L67.8978 78.1861C67.8933 77.2373 67.1188 76.4652 66.1703 76.4694L61.7997 76.4785C61.3245 76.4806 60.9183 76.6503 60.5834 76.9873C60.2486 77.3246 60.0813 77.7329 60.0813 78.2084C60.1012 84.1344 60.1236 90.0607 60.1438 95.9867C60.1459 96.9354 60.9226 97.7054 61.8692 97.703L66.2416 97.6918Z" fill="white"/>
</g>
</svg>
