<svg width="1966" height="271" viewBox="0 0 1966 271" fill="none" xmlns="http://www.w3.org/2000/svg">
<path d="M0 0H1966L1964.93 0.527398L1416.46 270.348H549.539L549.222 270.19L0 0ZM1962.07 0.700686H3.92656L550.703 269.674H1415.31L1962.07 0.700686Z" fill="#8252F7"/>
<path d="M99.1509 0.512243L100.986 0.169434L594.321 269.832L592.486 270.179L99.1509 0.512243Z" fill="#8252F7"/>
<path d="M197.228 0.497242L199.112 0.18457L637.634 269.847L635.746 270.164L197.228 0.497242Z" fill="#8252F7"/>
<path d="M295.305 0.482242L297.242 0.199707L680.946 269.866L679.009 270.149L295.305 0.482242Z" fill="#8252F7"/>
<path d="M393.385 0.463369L395.367 0.218506L724.259 269.881L722.277 270.13L393.385 0.463369Z" fill="#8252F7"/>
<path d="M491.47 0.448264L493.493 0.237305L767.568 269.9L765.544 270.111L491.47 0.448264Z" fill="#8252F7"/>
<path d="M589.555 0.425869L591.612 0.256348L810.873 269.919L808.816 270.092L589.555 0.425869Z" fill="#8252F7"/>
<path d="M687.646 0.406752L689.734 0.274902L854.178 269.941L852.09 270.069L687.646 0.406752Z" fill="#8252F7"/>
<path d="M785.738 0.384251L787.849 0.297607L897.475 269.96L895.369 270.051L785.738 0.384251Z" fill="#8252F7"/>
<path d="M883.834 0.361751L885.956 0.320312L940.773 269.983L938.651 270.028L883.834 0.361751Z" fill="#8252F7"/>
<path d="M984.063 0.338867H981.934V270.005H984.063V0.338867Z" fill="#8252F7"/>
<path d="M1025.23 269.983L1080.04 0.320312L1082.17 0.361751L1027.35 270.028L1025.23 269.983Z" fill="#8252F7"/>
<path d="M1068.52 269.96L1178.15 0.297607L1180.26 0.384251L1070.63 270.051L1068.52 269.96Z" fill="#8252F7"/>
<path d="M1111.82 269.941L1276.27 0.274902L1278.35 0.406752L1113.91 270.069L1111.82 269.941Z" fill="#8252F7"/>
<path d="M1155.12 269.919L1374.38 0.256348L1376.44 0.425869L1157.18 270.092L1155.12 269.919Z" fill="#8252F7"/>
<path d="M1198.43 269.9L1472.51 0.237305L1474.53 0.448264L1200.45 270.111L1198.43 269.9Z" fill="#8252F7"/>
<path d="M1241.74 269.881L1570.63 0.218506L1572.61 0.463369L1243.72 270.13L1241.74 269.881Z" fill="#8252F7"/>
<path d="M1285.05 269.866L1668.76 0.199707L1670.69 0.482242L1286.99 270.149L1285.05 269.866Z" fill="#8252F7"/>
<path d="M1328.37 269.847L1766.89 0.18457L1768.77 0.497242L1330.25 270.164L1328.37 269.847Z" fill="#8252F7"/>
<path d="M1371.68 269.832L1865.01 0.169434L1866.85 0.512243L1373.51 270.179L1371.68 269.832Z" fill="#8252F7"/>
<path d="M1429 263.213H536.998V263.895H1429V263.213Z" fill="#8252F7"/>
<path d="M1442.94 256.357H523.062V257.039H1442.94V256.357Z" fill="#8252F7"/>
<path d="M1457.77 249.06H508.228V249.742H1457.77V249.06Z" fill="#8252F7"/>
<path d="M1473.59 241.273H492.404V241.955H1473.59V241.273Z" fill="#8252F7"/>
<path d="M1490.51 232.952H475.488V233.634H1490.51V232.952Z" fill="#8252F7"/>
<path d="M1508.63 224.039H457.367V224.721H1508.63V224.039Z" fill="#8252F7"/>
<path d="M1528.1 214.463H437.904V215.145H1528.1V214.463Z" fill="#8252F7"/>
<path d="M1549.06 204.152H416.941V204.834H1549.06V204.152Z" fill="#8252F7"/>
<path d="M1571.69 193.013H394.305V193.695H1571.69V193.013Z" fill="#8252F7"/>
<path d="M1596.22 180.95H369.781V181.632H1596.22V180.95Z" fill="#8252F7"/>
<path d="M1622.88 167.837H343.124V168.519H1622.88V167.837Z" fill="#8252F7"/>
<path d="M1651.95 153.529H314.044V154.211H1651.95V153.529Z" fill="#8252F7"/>
<path d="M1683.8 137.862H282.195V138.544H1683.8V137.862Z" fill="#8252F7"/>
<path d="M1718.84 120.627H247.165V121.309H1718.84V120.627Z" fill="#8252F7"/>
<path d="M1757.55 101.581H208.446V102.262H1757.55V101.581Z" fill="#8252F7"/>
<path d="M1800.57 80.417H165.427V81.0988H1800.57V80.417Z" fill="#8252F7"/>
<path d="M1848.65 56.7632H117.348V57.445H1848.65V56.7632Z" fill="#8252F7"/>
<path d="M1902.74 30.1558H63.2617V30.8376H1902.74V30.1558Z" fill="#8252F7"/>
</svg>
