<svg width="32" height="32" viewBox="0 0 32 32" fill="none" xmlns="http://www.w3.org/2000/svg">
<circle cx="16" cy="16" r="16" fill="#231F20"/>
<path d="M20.875 10.75L20.875 10.25L20.8749 10.25L20.875 10.75ZM20.64 10.8328L20.3265 10.4433L20.64 10.8328ZM20.875 11.125L20.4854 11.4383L20.6355 11.625H20.875V11.125ZM19.25 16C19.25 17.7949 17.7949 19.25 16 19.25V20.25C18.3472 20.25 20.25 18.3472 20.25 16H19.25ZM16 19.25C14.2051 19.25 12.75 17.7949 12.75 16H11.75C11.75 18.3472 13.6528 20.25 16 20.25V19.25ZM12.75 16C12.75 14.2051 14.2051 12.75 16 12.75V11.75C13.6528 11.75 11.75 13.6528 11.75 16H12.75ZM16 12.75C17.7949 12.75 19.25 14.2051 19.25 16H20.25C20.25 13.6528 18.3472 11.75 16 11.75V12.75ZM11.875 7.875H20.125V6.875H11.875V7.875ZM20.125 7.875C22.3341 7.875 24.125 9.66586 24.125 11.875H25.125C25.125 9.11358 22.8864 6.875 20.125 6.875V7.875ZM24.125 11.875V20.125H25.125V11.875H24.125ZM24.125 20.125C24.125 22.3341 22.3341 24.125 20.125 24.125V25.125C22.8864 25.125 25.125 22.8864 25.125 20.125H24.125ZM20.125 24.125H11.875V25.125H20.125V24.125ZM11.875 24.125C9.66586 24.125 7.875 22.3341 7.875 20.125H6.875C6.875 22.8864 9.11358 25.125 11.875 25.125V24.125ZM7.875 20.125V11.875H6.875V20.125H7.875ZM7.875 11.875C7.875 9.66586 9.66586 7.875 11.875 7.875V6.875C9.11358 6.875 6.875 9.11358 6.875 11.875H7.875ZM20.875 11C20.944 11 21 11.0559 21 11.125H20C20 11.6083 20.3918 12 20.875 12V11ZM20.75 11.125C20.75 11.056 20.806 11 20.875 11V12C21.3582 12 21.75 11.6082 21.75 11.125H20.75ZM20.875 11.25C20.8059 11.25 20.75 11.1941 20.75 11.125H21.75C21.75 10.6417 21.3582 10.25 20.875 10.25V11.25ZM20.5214 11.1035L20.8965 11.4786L21.6035 10.7714L21.2285 10.3964L20.5214 11.1035ZM20.8749 10.25C20.6677 10.25 20.4762 10.3227 20.3265 10.4433L20.9535 11.2222C20.9324 11.2393 20.9043 11.25 20.875 11.25L20.8749 10.25ZM20.3265 10.4433C20.1283 10.6028 20 10.8491 20 11.125H21C21 11.1647 20.9809 11.2002 20.9535 11.2222L20.3265 10.4433ZM20.2504 11.1461C20.3444 11.263 20.4031 11.3361 20.4384 11.3799C20.456 11.4018 20.4677 11.4164 20.4751 11.4256C20.4788 11.4301 20.4813 11.4333 20.483 11.4354C20.4838 11.4364 20.4844 11.4371 20.4848 11.4376C20.485 11.4379 20.4851 11.438 20.4852 11.4382C20.4853 11.4382 20.4853 11.4383 20.4853 11.4383C20.4853 11.4383 20.4853 11.4383 20.4854 11.4383C20.4854 11.4383 20.4854 11.4383 20.4854 11.4383C20.4854 11.4383 20.4854 11.4383 20.4854 11.4383C20.4854 11.4383 20.4854 11.4383 20.875 11.125C21.2646 10.8117 21.2646 10.8117 21.2646 10.8117C21.2646 10.8117 21.2646 10.8117 21.2646 10.8117C21.2646 10.8117 21.2646 10.8117 21.2646 10.8117C21.2646 10.8116 21.2646 10.8116 21.2646 10.8116C21.2646 10.8116 21.2645 10.8115 21.2645 10.8115C21.2644 10.8114 21.2643 10.8112 21.2641 10.8109C21.2637 10.8105 21.2631 10.8097 21.2623 10.8087C21.2606 10.8066 21.258 10.8034 21.2544 10.7989C21.247 10.7897 21.2353 10.7751 21.2176 10.7532C21.1824 10.7094 21.1236 10.6363 21.0296 10.5194L20.2504 11.1461ZM20.875 11.625H21.25V10.625H20.875V11.625Z" fill="white"/>
</svg>
