<svg width="286" height="201" viewBox="0 0 286 201" fill="none" xmlns="http://www.w3.org/2000/svg">
<g filter="url(#filter0_d_267_244)">
<g clip-path="url(#clip0_267_244)">
<rect x="14" y="14" width="258.737" height="173.229" fill="white"/>
<g filter="url(#filter1_f_267_244)">
<rect width="100" height="100" transform="translate(184 129)" fill="#5300F4"/>
</g>
<rect x="30.2178" y="136.366" width="67.8171" height="33.9086" rx="3.68571" fill="#2A2A2A"/>
<path d="M46.7781 156.211L49.5806 148.088H51.4998L54.3022 156.211H52.6884L52.1104 154.467H48.9699L48.3811 156.211H46.7781ZM49.3952 153.158H51.6852L50.333 149.113H50.7474L49.3952 153.158ZM55.0864 158.392V150.279H56.4277V151.457L56.2968 151.163C56.5004 150.843 56.7766 150.596 57.1256 150.421C57.4745 150.239 57.878 150.148 58.336 150.148C58.8957 150.148 59.401 150.287 59.8517 150.563C60.3024 150.839 60.6586 151.21 60.9203 151.675C61.1893 152.14 61.3238 152.664 61.3238 153.245C61.3238 153.82 61.1929 154.343 60.9312 154.816C60.6695 155.288 60.3133 155.663 59.8626 155.939C59.4119 156.208 58.8994 156.342 58.3251 156.342C57.8962 156.342 57.5 156.259 57.1365 156.091C56.7803 155.917 56.4967 155.67 56.2859 155.35L56.5149 155.066V158.392H55.0864ZM58.1615 155.034C58.4886 155.034 58.7794 154.957 59.0339 154.805C59.2883 154.652 59.4846 154.441 59.6227 154.172C59.7681 153.903 59.8408 153.594 59.8408 153.245C59.8408 152.896 59.7681 152.591 59.6227 152.329C59.4846 152.06 59.2883 151.85 59.0339 151.697C58.7794 151.537 58.4886 151.457 58.1615 151.457C57.8489 151.457 57.5654 151.533 57.3109 151.686C57.0638 151.839 56.8675 152.053 56.7221 152.329C56.584 152.598 56.5149 152.904 56.5149 153.245C56.5149 153.594 56.584 153.903 56.7221 154.172C56.8675 154.441 57.0638 154.652 57.3109 154.805C57.5654 154.957 57.8489 155.034 58.1615 155.034ZM62.4129 158.392V150.279H63.7541V151.457L63.6233 151.163C63.8268 150.843 64.1031 150.596 64.452 150.421C64.801 150.239 65.2044 150.148 65.6624 150.148C66.2222 150.148 66.7274 150.287 67.1782 150.563C67.6289 150.839 67.9851 151.21 68.2468 151.675C68.5158 152.14 68.6503 152.664 68.6503 153.245C68.6503 153.82 68.5194 154.343 68.2577 154.816C67.996 155.288 67.6398 155.663 67.1891 155.939C66.7383 156.208 66.2258 156.342 65.6515 156.342C65.2226 156.342 64.8264 156.259 64.4629 156.091C64.1067 155.917 63.8232 155.67 63.6124 155.35L63.8414 155.066V158.392H62.4129ZM65.488 155.034C65.8151 155.034 66.1059 154.957 66.3603 154.805C66.6148 154.652 66.811 154.441 66.9492 154.172C67.0946 153.903 67.1673 153.594 67.1673 153.245C67.1673 152.896 67.0946 152.591 66.9492 152.329C66.811 152.06 66.6148 151.85 66.3603 151.697C66.1059 151.537 65.8151 151.457 65.488 151.457C65.1754 151.457 64.8918 151.533 64.6374 151.686C64.3902 151.839 64.194 152.053 64.0486 152.329C63.9104 152.598 63.8414 152.904 63.8414 153.245C63.8414 153.594 63.9104 153.903 64.0486 154.172C64.194 154.441 64.3902 154.652 64.6374 154.805C64.8918 154.957 65.1754 155.034 65.488 155.034ZM69.7394 156.211V147.957H71.1678V156.211H69.7394ZM73.2065 158.61C73.0465 158.61 72.8902 158.596 72.7376 158.567C72.5849 158.545 72.4468 158.501 72.3232 158.436V157.247C72.4177 157.269 72.5304 157.291 72.6612 157.313C72.7994 157.335 72.9266 157.345 73.0429 157.345C73.37 157.345 73.6063 157.269 73.7517 157.116C73.9044 156.971 74.0388 156.775 74.1552 156.528L74.5477 155.612L74.5259 156.811L71.9415 150.279H73.4791L75.2892 155.099H74.744L76.5432 150.279H78.0917L75.5073 156.811C75.3547 157.189 75.1693 157.513 74.9512 157.782C74.7331 158.051 74.4787 158.254 74.1879 158.392C73.9044 158.538 73.5772 158.61 73.2065 158.61Z" fill="white"/>
<path d="M31.3159 98.08V85.8942H33.4423L38.0058 92.0934H36.9917L41.4571 85.8942H43.5835V98.08H41.3426V88.4295L42.2095 88.6421L37.5805 94.8086H37.3188L32.8044 88.6421L33.5404 88.4295V98.08H31.3159ZM49.9557 98.2762C49.0397 98.2762 48.2382 98.0691 47.5513 97.6547C46.8643 97.2403 46.33 96.6787 45.9483 95.9699C45.5666 95.2611 45.3758 94.476 45.3758 93.6146C45.3758 92.7204 45.5666 91.9298 45.9483 91.2428C46.3409 90.5449 46.8697 89.9943 47.5349 89.5908C48.211 89.1873 48.9634 88.9856 49.7921 88.9856C50.49 88.9856 51.1007 89.1001 51.6241 89.3291C52.1584 89.5581 52.611 89.8743 52.9817 90.2778C53.3525 90.6813 53.636 91.1447 53.8323 91.6681C54.0285 92.1806 54.1267 92.7368 54.1267 93.3365C54.1267 93.4892 54.1158 93.6473 54.094 93.8108C54.0831 93.9744 54.0558 94.1162 54.0122 94.2361H47.1423V92.6004H52.8018L51.7877 93.3692C51.8858 92.8676 51.8585 92.4205 51.7059 92.028C51.5641 91.6354 51.3242 91.3246 50.9862 91.0956C50.659 90.8666 50.261 90.7521 49.7921 90.7521C49.3451 90.7521 48.947 90.8666 48.5981 91.0956C48.2492 91.3137 47.982 91.6408 47.7966 92.077C47.6221 92.5023 47.5567 93.0203 47.6003 93.6309C47.5567 94.1761 47.6276 94.6614 47.813 95.0867C48.0093 95.501 48.2928 95.8227 48.6635 96.0517C49.0452 96.2807 49.4814 96.3952 49.9721 96.3952C50.4628 96.3952 50.8771 96.2916 51.2152 96.0844C51.5641 95.8772 51.8367 95.5992 52.033 95.2502L53.7668 96.1008C53.5924 96.5261 53.3197 96.9023 52.949 97.2294C52.5782 97.5565 52.1366 97.8128 51.6241 97.9982C51.1225 98.1835 50.5664 98.2762 49.9557 98.2762ZM55.751 98.08V89.1819H57.7629V91.2428L57.5339 90.8993C57.6974 90.256 58.0246 89.7762 58.5153 89.4599C59.006 89.1437 59.5839 88.9856 60.2491 88.9856C60.9797 88.9856 61.6231 89.1764 62.1792 89.5581C62.7353 89.9397 63.0952 90.4414 63.2587 91.0629L62.6535 91.112C62.9261 90.4032 63.3351 89.8743 63.8803 89.5254C64.4255 89.1655 65.0525 88.9856 65.7613 88.9856C66.3938 88.9856 66.9554 89.1274 67.4461 89.4109C67.9477 89.6944 68.3402 90.0924 68.6237 90.6049C68.9073 91.1065 69.049 91.6899 69.049 92.3551V98.08H66.9063V92.8622C66.9063 92.4696 66.8354 92.1316 66.6936 91.848C66.5519 91.5645 66.3556 91.3464 66.1048 91.1938C65.854 91.0302 65.5487 90.9484 65.1888 90.9484C64.8508 90.9484 64.5509 91.0302 64.2892 91.1938C64.0275 91.3464 63.8258 91.5645 63.684 91.848C63.5422 92.1316 63.4714 92.4696 63.4714 92.8622V98.08H61.3286V92.8622C61.3286 92.4696 61.2578 92.1316 61.116 91.848C60.9742 91.5645 60.7725 91.3464 60.5108 91.1938C60.26 91.0302 59.9601 90.9484 59.6112 90.9484C59.2731 90.9484 58.9733 91.0302 58.7116 91.1938C58.4498 91.3464 58.2481 91.5645 58.1064 91.848C57.9646 92.1316 57.8937 92.4696 57.8937 92.8622V98.08H55.751ZM75.0818 98.2762C74.1659 98.2762 73.3644 98.0691 72.6774 97.6547C71.9904 97.2403 71.4561 96.6787 71.0744 95.9699C70.6928 95.2611 70.502 94.476 70.502 93.6146C70.502 92.7204 70.6928 91.9298 71.0744 91.2428C71.467 90.5449 71.9959 89.9943 72.661 89.5908C73.3371 89.1873 74.0895 88.9856 74.9183 88.9856C75.6162 88.9856 76.2268 89.1001 76.7502 89.3291C77.2846 89.5581 77.7371 89.8743 78.1078 90.2778C78.4786 90.6813 78.7621 91.1447 78.9584 91.6681C79.1547 92.1806 79.2528 92.7368 79.2528 93.3365C79.2528 93.4892 79.2419 93.6473 79.2201 93.8108C79.2092 93.9744 79.1819 94.1162 79.1383 94.2361H72.2685V92.6004H77.9279L76.9138 93.3692C77.0119 92.8676 76.9847 92.4205 76.832 92.028C76.6903 91.6354 76.4504 91.3246 76.1123 91.0956C75.7852 90.8666 75.3872 90.7521 74.9183 90.7521C74.4712 90.7521 74.0732 90.8666 73.7242 91.0956C73.3753 91.3137 73.1081 91.6408 72.9228 92.077C72.7483 92.5023 72.6829 93.0203 72.7265 93.6309C72.6829 94.1761 72.7537 94.6614 72.9391 95.0867C73.1354 95.501 73.4189 95.8227 73.7897 96.0517C74.1713 96.2807 74.6075 96.3952 75.0982 96.3952C75.5889 96.3952 76.0033 96.2916 76.3413 96.0844C76.6903 95.8772 76.9629 95.5992 77.1592 95.2502L78.893 96.1008C78.7185 96.5261 78.4459 96.9023 78.0751 97.2294C77.7044 97.5565 77.2627 97.8128 76.7502 97.9982C76.2486 98.1835 75.6925 98.2762 75.0818 98.2762ZM83.9642 98.08V85.8942H86.0906L90.6541 92.0934H89.64L94.1054 85.8942H96.2318V98.08H93.9909V88.4295L94.8578 88.6421L90.2288 94.8086H89.9671L85.4527 88.6421L86.1887 88.4295V98.08H83.9642ZM101.083 98.2762C100.461 98.2762 99.9215 98.1726 99.4635 97.9655C99.0055 97.7583 98.6511 97.4639 98.4003 97.0822C98.1495 96.6896 98.0241 96.2371 98.0241 95.7246C98.0241 95.2339 98.1332 94.7977 98.3512 94.416C98.5693 94.0235 98.9074 93.6963 99.3654 93.4346C99.8234 93.1729 100.401 92.9876 101.099 92.8785L104.011 92.4042V94.0398L101.508 94.4651C101.083 94.5414 100.767 94.6778 100.559 94.874C100.352 95.0703 100.249 95.3266 100.249 95.6428C100.249 95.9481 100.363 96.1935 100.592 96.3789C100.832 96.5533 101.126 96.6406 101.475 96.6406C101.922 96.6406 102.315 96.5479 102.653 96.3625C103.002 96.1662 103.269 95.8991 103.455 95.561C103.651 95.223 103.749 94.8522 103.749 94.4488V92.1588C103.749 91.7772 103.596 91.4609 103.291 91.2101C102.997 90.9484 102.604 90.8176 102.113 90.8176C101.655 90.8176 101.246 90.943 100.887 91.1938C100.538 91.4337 100.281 91.7553 100.118 92.1588L98.3676 91.3083C98.5421 90.8394 98.8147 90.4359 99.1854 90.0979C99.5671 89.7489 100.014 89.4763 100.527 89.28C101.039 89.0837 101.595 88.9856 102.195 88.9856C102.926 88.9856 103.569 89.1219 104.125 89.3945C104.681 89.6562 105.112 90.027 105.417 90.5068C105.734 90.9757 105.892 91.5264 105.892 92.1588V98.08H103.863V96.5588L104.321 96.5261C104.092 96.9077 103.82 97.2294 103.504 97.4911C103.187 97.7419 102.828 97.9382 102.424 98.08C102.021 98.2108 101.574 98.2762 101.083 98.2762ZM107.872 98.08V89.1819H109.884V90.9321L109.72 90.6213C109.928 90.087 110.266 89.6835 110.735 89.4109C111.214 89.1274 111.771 88.9856 112.403 88.9856C113.057 88.9856 113.635 89.1274 114.137 89.4109C114.649 89.6944 115.047 90.0924 115.331 90.6049C115.614 91.1065 115.756 91.6899 115.756 92.3551V98.08H113.613V92.8622C113.613 92.4696 113.537 92.1316 113.384 91.848C113.232 91.5645 113.019 91.3464 112.746 91.1938C112.485 91.0302 112.174 90.9484 111.814 90.9484C111.465 90.9484 111.154 91.0302 110.882 91.1938C110.609 91.3464 110.397 91.5645 110.244 91.848C110.091 92.1316 110.015 92.4696 110.015 92.8622V98.08H107.872ZM120.267 98.2762C119.645 98.2762 119.106 98.1726 118.648 97.9655C118.19 97.7583 117.835 97.4639 117.584 97.0822C117.334 96.6896 117.208 96.2371 117.208 95.7246C117.208 95.2339 117.317 94.7977 117.535 94.416C117.753 94.0235 118.091 93.6963 118.549 93.4346C119.007 93.1729 119.585 92.9876 120.283 92.8785L123.195 92.4042V94.0398L120.692 94.4651C120.267 94.5414 119.951 94.6778 119.743 94.874C119.536 95.0703 119.433 95.3266 119.433 95.6428C119.433 95.9481 119.547 96.1935 119.776 96.3789C120.016 96.5533 120.31 96.6406 120.659 96.6406C121.107 96.6406 121.499 96.5479 121.837 96.3625C122.186 96.1662 122.453 95.8991 122.639 95.561C122.835 95.223 122.933 94.8522 122.933 94.4488V92.1588C122.933 91.7772 122.78 91.4609 122.475 91.2101C122.181 90.9484 121.788 90.8176 121.297 90.8176C120.839 90.8176 120.43 90.943 120.071 91.1938C119.722 91.4337 119.465 91.7553 119.302 92.1588L117.552 91.3083C117.726 90.8394 117.999 90.4359 118.369 90.0979C118.751 89.7489 119.198 89.4763 119.711 89.28C120.223 89.0837 120.779 88.9856 121.379 88.9856C122.11 88.9856 122.753 89.1219 123.309 89.3945C123.865 89.6562 124.296 90.027 124.601 90.5068C124.918 90.9757 125.076 91.5264 125.076 92.1588V98.08H123.048V96.5588L123.505 96.5261C123.277 96.9077 123.004 97.2294 122.688 97.4911C122.371 97.7419 122.012 97.9382 121.608 98.08C121.205 98.2108 120.758 98.2762 120.267 98.2762ZM131.374 101.678C130.709 101.678 130.093 101.569 129.526 101.351C128.959 101.133 128.468 100.828 128.054 100.435C127.65 100.054 127.356 99.6011 127.171 99.0777L129.166 98.3253C129.297 98.7397 129.553 99.0723 129.935 99.3231C130.328 99.5848 130.807 99.7156 131.374 99.7156C131.811 99.7156 132.192 99.6338 132.519 99.4703C132.857 99.3067 133.119 99.0668 133.304 98.7506C133.49 98.4453 133.583 98.0745 133.583 97.6383V95.6101L133.991 96.1008C133.686 96.6351 133.277 97.0386 132.765 97.3112C132.252 97.5838 131.669 97.7201 131.015 97.7201C130.186 97.7201 129.444 97.5293 128.79 97.1476C128.136 96.766 127.623 96.2425 127.252 95.5774C126.882 94.9122 126.696 94.1652 126.696 93.3365C126.696 92.4969 126.882 91.7499 127.252 91.0956C127.623 90.4414 128.13 89.9288 128.774 89.5581C129.417 89.1764 130.148 88.9856 130.965 88.9856C131.631 88.9856 132.214 89.1274 132.716 89.4109C133.228 89.6835 133.653 90.0815 133.991 90.6049L133.697 91.1447V89.1819H135.725V97.6383C135.725 98.4125 135.534 99.105 135.153 99.7156C134.782 100.326 134.27 100.806 133.615 101.155C132.972 101.504 132.225 101.678 131.374 101.678ZM131.276 95.7409C131.734 95.7409 132.132 95.6428 132.47 95.4465C132.819 95.2393 133.092 94.9558 133.288 94.596C133.484 94.2361 133.583 93.8217 133.583 93.3529C133.583 92.8949 133.479 92.4859 133.272 92.1261C133.075 91.7553 132.803 91.4664 132.454 91.2592C132.116 91.052 131.723 90.9484 131.276 90.9484C130.829 90.9484 130.426 91.052 130.066 91.2592C129.706 91.4664 129.422 91.7553 129.215 92.1261C129.019 92.4859 128.921 92.8949 128.921 93.3529C128.921 93.8108 129.019 94.2198 129.215 94.5796C129.422 94.9395 129.701 95.223 130.049 95.4302C130.409 95.6373 130.818 95.7409 131.276 95.7409ZM141.946 98.2762C141.03 98.2762 140.229 98.0691 139.542 97.6547C138.855 97.2403 138.321 96.6787 137.939 95.9699C137.557 95.2611 137.367 94.476 137.367 93.6146C137.367 92.7204 137.557 91.9298 137.939 91.2428C138.332 90.5449 138.86 89.9943 139.526 89.5908C140.202 89.1873 140.954 88.9856 141.783 88.9856C142.481 88.9856 143.091 89.1001 143.615 89.3291C144.149 89.5581 144.602 89.8743 144.972 90.2778C145.343 90.6813 145.627 91.1447 145.823 91.6681C146.019 92.1806 146.117 92.7368 146.117 93.3365C146.117 93.4892 146.107 93.6473 146.085 93.8108C146.074 93.9744 146.047 94.1162 146.003 94.2361H139.133V92.6004H144.793L143.778 93.3692C143.877 92.8676 143.849 92.4205 143.697 92.028C143.555 91.6354 143.315 91.3246 142.977 91.0956C142.65 90.8666 142.252 90.7521 141.783 90.7521C141.336 90.7521 140.938 90.8666 140.589 91.0956C140.24 91.3137 139.973 91.6408 139.787 92.077C139.613 92.5023 139.547 93.0203 139.591 93.6309C139.547 94.1761 139.618 94.6614 139.804 95.0867C140 95.501 140.284 95.8227 140.654 96.0517C141.036 96.2807 141.472 96.3952 141.963 96.3952C142.454 96.3952 142.868 96.2916 143.206 96.0844C143.555 95.8772 143.827 95.5992 144.024 95.2502L145.758 96.1008C145.583 96.5261 145.31 96.9023 144.94 97.2294C144.569 97.5565 144.127 97.8128 143.615 97.9982C143.113 98.1835 142.557 98.2762 141.946 98.2762ZM147.742 98.08V89.1819H149.754V91.1611L149.59 90.8666C149.797 90.2015 150.119 89.738 150.555 89.4763C151.002 89.2146 151.537 89.0837 152.158 89.0837H152.681V90.9811H151.913C151.302 90.9811 150.811 91.172 150.441 91.5536C150.07 91.9244 149.884 92.4478 149.884 93.1239V98.08H147.742Z" fill="#2A2A2A"/>
<path d="M31.4833 116.617V110.027H32.1025L34.5793 113.618H34.2343L36.7023 110.027H37.3215V116.617H36.6138V110.982L36.8438 111.071L34.4201 114.583H34.3847L31.9698 111.071L32.191 110.982V116.617H31.4833ZM40.1516 116.723C39.8508 116.723 39.5825 116.667 39.3466 116.555C39.1107 116.437 38.9249 116.278 38.7893 116.078C38.6537 115.877 38.5859 115.647 38.5859 115.388C38.5859 115.14 38.6389 114.916 38.7451 114.715C38.8512 114.509 39.0164 114.335 39.2404 114.193C39.4645 114.052 39.7505 113.952 40.0985 113.893L41.9561 113.583V114.185L40.2577 114.468C39.9157 114.527 39.668 114.636 39.5147 114.795C39.3672 114.954 39.2935 115.143 39.2935 115.361C39.2935 115.573 39.3761 115.753 39.5412 115.901C39.7122 116.048 39.9304 116.122 40.1958 116.122C40.5201 116.122 40.8032 116.054 41.045 115.918C41.2868 115.777 41.4755 115.588 41.6111 115.352C41.7467 115.116 41.8145 114.854 41.8145 114.565V113.362C41.8145 113.079 41.7113 112.849 41.5049 112.672C41.2985 112.495 41.0302 112.407 40.7 112.407C40.411 112.407 40.1574 112.48 39.9393 112.628C39.7211 112.769 39.5589 112.955 39.4527 113.185L38.8512 112.858C38.9397 112.657 39.0783 112.474 39.267 112.309C39.4616 112.144 39.6827 112.014 39.9304 111.92C40.1781 111.82 40.4346 111.77 40.7 111.77C41.0479 111.77 41.3546 111.837 41.6199 111.973C41.8912 112.109 42.1006 112.297 42.248 112.539C42.4013 112.775 42.478 113.049 42.478 113.362V116.617H41.8145V115.671L41.9118 115.768C41.8293 115.945 41.6996 116.107 41.5226 116.254C41.3516 116.396 41.1482 116.511 40.9123 116.599C40.6823 116.682 40.4287 116.723 40.1516 116.723ZM43.8426 116.617V111.876H44.506V112.654L44.4175 112.539C44.5296 112.315 44.6977 112.138 44.9217 112.009C45.1517 111.879 45.4289 111.814 45.7532 111.814H46.054V112.477H45.6382C45.2962 112.477 45.022 112.583 44.8156 112.796C44.6092 113.008 44.506 113.309 44.506 113.698V116.617H43.8426ZM46.8314 116.617V109.921H47.4949V114.609L47.2118 114.565L49.8744 111.876H50.7324L48.8748 113.778L50.9005 116.617H50.1044L48.2025 113.99L48.6271 114.025L47.2737 115.423L47.4949 114.875V116.617H46.8314ZM53.7496 116.723C53.3073 116.723 52.9063 116.617 52.5465 116.405C52.1927 116.187 51.9126 115.889 51.7062 115.511C51.4998 115.134 51.3966 114.706 51.3966 114.229C51.3966 113.751 51.4968 113.329 51.6974 112.964C51.8979 112.592 52.1691 112.3 52.5112 112.088C52.8591 111.876 53.2483 111.77 53.6788 111.77C54.0208 111.77 54.3245 111.835 54.5899 111.964C54.8612 112.088 55.0912 112.259 55.2799 112.477C55.4686 112.69 55.6131 112.931 55.7133 113.203C55.8136 113.468 55.8637 113.742 55.8637 114.025C55.8637 114.084 55.8607 114.152 55.8548 114.229C55.8489 114.3 55.8401 114.373 55.8283 114.45H51.8212V113.831H55.4479L55.1295 114.096C55.1826 113.772 55.1442 113.483 55.0145 113.229C54.8907 112.97 54.7108 112.766 54.4749 112.619C54.239 112.466 53.9736 112.389 53.6788 112.389C53.3839 112.389 53.1097 112.466 52.8561 112.619C52.6085 112.772 52.4139 112.987 52.2723 113.265C52.1308 113.536 52.0748 113.86 52.1043 114.238C52.0748 114.615 52.1337 114.945 52.2812 115.228C52.4345 115.506 52.6409 115.721 52.9004 115.874C53.1657 116.027 53.4488 116.104 53.7496 116.104C54.0975 116.104 54.3894 116.022 54.6253 115.856C54.8612 115.691 55.0528 115.485 55.2003 115.237L55.7664 115.538C55.672 115.75 55.5275 115.948 55.3329 116.131C55.1383 116.308 54.9054 116.452 54.6341 116.564C54.3688 116.67 54.0739 116.723 53.7496 116.723ZM58.8468 116.67C58.4222 116.67 58.0949 116.546 57.8649 116.299C57.6349 116.051 57.5199 115.697 57.5199 115.237V112.539H56.6442V111.876H56.8653C57.0658 111.876 57.225 111.811 57.343 111.681C57.4609 111.546 57.5199 111.378 57.5199 111.177V110.779H58.1833V111.876H59.2271V112.539H58.1833V115.237C58.1833 115.396 58.2069 115.538 58.2541 115.662C58.3013 115.78 58.3809 115.874 58.4929 115.945C58.6109 116.016 58.7672 116.051 58.9618 116.051C59.0089 116.051 59.065 116.048 59.1298 116.042C59.1947 116.036 59.2507 116.03 59.2979 116.024V116.617C59.2271 116.635 59.1475 116.647 59.0591 116.653C58.9706 116.664 58.8998 116.67 58.8468 116.67ZM60.4628 116.617V111.876H61.1263V116.617H60.4628ZM60.4628 111V110.027H61.1263V111H60.4628ZM62.4842 116.617V111.876H63.1476V112.796L62.9973 112.76C63.1152 112.454 63.3069 112.212 63.5722 112.035C63.8435 111.858 64.1561 111.77 64.5099 111.77C64.846 111.77 65.1468 111.846 65.4121 112C65.6834 112.153 65.8957 112.365 66.049 112.637C66.2083 112.902 66.2879 113.203 66.2879 113.539V116.617H65.6244V113.795C65.6244 113.506 65.5714 113.262 65.4652 113.061C65.365 112.861 65.2205 112.707 65.0318 112.601C64.849 112.489 64.6367 112.433 64.3949 112.433C64.1531 112.433 63.9379 112.489 63.7492 112.601C63.5604 112.707 63.413 112.864 63.3069 113.07C63.2007 113.27 63.1476 113.512 63.1476 113.795V116.617H62.4842ZM69.8018 118.563C69.4774 118.563 69.1767 118.513 68.8995 118.413C68.6282 118.313 68.3923 118.174 68.1918 117.997C67.9972 117.826 67.8469 117.626 67.7407 117.396L68.3511 117.068C68.4454 117.292 68.6135 117.487 68.8553 117.652C69.0971 117.817 69.4067 117.9 69.7841 117.9C70.073 117.9 70.3384 117.844 70.5802 117.732C70.822 117.62 71.0166 117.455 71.164 117.236C71.3114 117.018 71.3851 116.75 71.3851 116.431V115.379L71.4913 115.476C71.3262 115.818 71.0814 116.083 70.7571 116.272C70.4328 116.455 70.0789 116.546 69.6956 116.546C69.2533 116.546 68.8553 116.44 68.5014 116.228C68.1476 116.016 67.8675 115.73 67.6611 115.37C67.4606 115.004 67.3603 114.6 67.3603 114.158C67.3603 113.71 67.4606 113.306 67.6611 112.946C67.8675 112.586 68.1447 112.3 68.4926 112.088C68.8464 111.876 69.2474 111.77 69.6956 111.77C70.0789 111.77 70.4269 111.858 70.7394 112.035C71.0579 112.212 71.3085 112.451 71.4913 112.752L71.3851 112.937V111.876H72.0486V116.431C72.0486 116.838 71.9513 117.201 71.7567 117.519C71.568 117.844 71.3026 118.097 70.9606 118.28C70.6244 118.469 70.2382 118.563 69.8018 118.563ZM69.731 115.883C70.0377 115.883 70.3148 115.806 70.5625 115.653C70.8102 115.494 71.0077 115.284 71.1552 115.025C71.3085 114.76 71.3851 114.471 71.3851 114.158C71.3851 113.845 71.3085 113.559 71.1552 113.3C71.0077 113.035 70.8102 112.825 70.5625 112.672C70.3148 112.513 70.0377 112.433 69.731 112.433C69.4185 112.433 69.1354 112.513 68.8818 112.672C68.6282 112.825 68.4277 113.032 68.2803 113.291C68.1388 113.551 68.068 113.84 68.068 114.158C68.068 114.471 68.1388 114.76 68.2803 115.025C68.4277 115.284 68.6253 115.494 68.873 115.653C69.1265 115.806 69.4126 115.883 69.731 115.883Z" fill="#2A2A2A"/>
<rect x="30.2178" y="30.2171" width="105.307" height="33.9086" rx="3.68571" stroke="#2A2A2A" stroke-width="0.681531"/>
<path d="M58.3961 51.5371V43.4132H63.4122V44.2311H59.2685V47.0553H63.0851V47.8732H59.2685V51.5371H58.3961ZM66.5777 51.6679C66.1706 51.6679 65.7998 51.5734 65.4654 51.3844C65.131 51.1881 64.8657 50.9192 64.6694 50.5775C64.4804 50.2285 64.3859 49.8287 64.3859 49.378V45.6923H65.2037V49.2798C65.2037 49.5924 65.2655 49.8687 65.3891 50.1086C65.5199 50.3412 65.698 50.523 65.9234 50.6538C66.156 50.7847 66.4214 50.8501 66.7194 50.8501C67.0175 50.8501 67.2828 50.7847 67.5155 50.6538C67.7481 50.5157 67.9298 50.323 68.0607 50.0759C68.1915 49.8214 68.257 49.5197 68.257 49.1708V45.6923H69.0748V51.5371H68.257V50.403L68.4423 50.4466C68.3042 50.8247 68.068 51.1227 67.7336 51.3408C67.3991 51.5589 67.0139 51.6679 66.5777 51.6679ZM70.7567 51.5371V43.2824H71.5746V51.5371H70.7567ZM73.2486 51.5371V43.2824H74.0664V51.5371H73.2486ZM79.12 51.5371V44.2311H76.8737V43.4132H82.2169V44.2311H79.9923V51.5371H79.12ZM83.1734 51.5371V45.6923H83.9912V51.5371H83.1734ZM83.1734 44.6127V43.4132H83.9912V44.6127H83.1734ZM85.6652 51.5371V45.6923H86.4831V46.8045L86.3522 46.641C86.5122 46.2993 86.7484 46.0339 87.061 45.8449C87.3809 45.6559 87.7298 45.5614 88.1078 45.5614C88.5586 45.5614 88.9657 45.6886 89.3292 45.9431C89.6926 46.1975 89.9507 46.5283 90.1034 46.9354L89.8744 46.9463C90.0198 46.4956 90.2706 46.1539 90.6268 45.9213C90.9903 45.6814 91.3901 45.5614 91.8263 45.5614C92.2188 45.5614 92.5787 45.6559 92.9058 45.8449C93.2402 46.0339 93.5056 46.2956 93.7019 46.6301C93.9054 46.9572 94.0072 47.3279 94.0072 47.7423V51.5371H93.1893V48.0585C93.1893 47.7023 93.1239 47.4006 92.9931 47.1535C92.8695 46.9063 92.6986 46.7173 92.4806 46.5864C92.2625 46.4483 92.0117 46.3793 91.7281 46.3793C91.4519 46.3793 91.2011 46.4483 90.9757 46.5864C90.7504 46.7173 90.5723 46.9099 90.4414 47.1644C90.3106 47.4115 90.2451 47.7096 90.2451 48.0585V51.5371H89.4273V48.0585C89.4273 47.7023 89.3619 47.4006 89.231 47.1535C89.1074 46.9063 88.9366 46.7173 88.7185 46.5864C88.5004 46.4483 88.2496 46.3793 87.9661 46.3793C87.6826 46.3793 87.4281 46.4483 87.2028 46.5864C86.9847 46.7173 86.8102 46.9099 86.6794 47.1644C86.5485 47.4115 86.4831 47.7096 86.4831 48.0585V51.5371H85.6652ZM98.2294 51.6679C97.6842 51.6679 97.1899 51.5371 96.7464 51.2754C96.3102 51.0064 95.9649 50.6393 95.7105 50.174C95.4561 49.7088 95.3288 49.1817 95.3288 48.5929C95.3288 48.004 95.4524 47.4842 95.6996 47.0335C95.9468 46.5755 96.2812 46.2157 96.7028 45.954C97.1317 45.6923 97.6115 45.5614 98.1422 45.5614C98.5638 45.5614 98.9382 45.6414 99.2654 45.8013C99.5998 45.954 99.8833 46.1648 100.116 46.4338C100.349 46.6955 100.527 46.9935 100.65 47.3279C100.774 47.6551 100.836 47.9931 100.836 48.3421C100.836 48.4148 100.832 48.4984 100.825 48.5929C100.817 48.6801 100.807 48.771 100.792 48.8655H95.8523V48.1022H100.323L99.9305 48.4293C99.996 48.0295 99.9487 47.6733 99.7888 47.3607C99.6361 47.0408 99.4144 46.79 99.1236 46.6082C98.8328 46.4192 98.5057 46.3247 98.1422 46.3247C97.7787 46.3247 97.4407 46.4192 97.1281 46.6082C96.8228 46.7973 96.5829 47.0626 96.4084 47.4043C96.2339 47.7387 96.1648 48.1385 96.2012 48.6038C96.1648 49.069 96.2375 49.4761 96.4193 49.8251C96.6083 50.1667 96.8627 50.4321 97.1826 50.6211C97.5097 50.8101 97.8587 50.9046 98.2294 50.9046C98.6583 50.9046 99.0182 50.8028 99.309 50.5993C99.5998 50.3957 99.836 50.1413 100.018 49.836L100.716 50.2067C100.599 50.4684 100.421 50.712 100.181 50.9373C99.9414 51.1554 99.6543 51.3335 99.3199 51.4717C98.9927 51.6025 98.6293 51.6679 98.2294 51.6679Z" fill="#2A2A2A"/>
<rect x="152.692" y="30.2171" width="105.307" height="33.9086" rx="3.68571" stroke="#2A2A2A" stroke-width="0.681531"/>
<path d="M191.873 50.6461C193.945 50.6461 195.34 48.9995 195.34 46.8732C195.34 44.7686 193.945 43.122 191.873 43.122C189.801 43.122 188.405 44.7686 188.405 46.8732C188.405 48.9995 189.801 50.6461 191.873 50.6461ZM191.884 49.97C190.15 49.97 189.158 48.6615 189.158 46.8732C189.158 45.1066 190.15 43.7872 191.884 43.7872C193.607 43.7872 194.599 45.1066 194.599 46.8732C194.599 48.6615 193.607 49.97 191.884 49.97ZM197.436 50.5371V47.5056C197.436 46.6006 197.883 45.7936 198.985 45.7936C199.89 45.7936 200.282 46.317 200.282 47.1676V50.5371H201.002V47.004C201.002 45.8045 200.304 45.1939 199.268 45.1939C198.221 45.1939 197.622 45.9136 197.436 46.7641V45.3029H196.716V50.5371H197.436ZM204.335 50.6461C205.305 50.6461 206.156 50.199 206.156 49.1958C206.156 48.4543 205.72 48.0072 204.629 47.7346L203.931 47.5602C203.168 47.3748 202.775 47.1785 202.775 46.6333C202.775 46.088 203.223 45.7936 203.855 45.7936C204.673 45.7936 205.218 46.1862 205.458 46.895L206.003 46.4915C205.742 45.75 205.011 45.1939 203.899 45.1939C202.819 45.1939 202.099 45.7609 202.099 46.666C202.099 47.6038 202.874 47.9527 203.626 48.1381L204.335 48.3017C205.044 48.4652 205.513 48.6615 205.513 49.2067C205.513 49.752 205.055 50.0355 204.357 50.0355C203.299 50.0355 202.645 49.4466 202.481 48.7378L201.947 49.1413C202.263 50.1663 203.266 50.6461 204.335 50.6461ZM208.085 44.3651V43.2311H207.365V44.3651H208.085ZM208.085 50.5371V45.3029H207.365V50.5371H208.085ZM211.324 50.657C212 50.657 212.513 50.3408 212.742 49.9591L212.491 49.2613C212.317 49.632 211.935 49.97 211.466 49.97C211.008 49.97 210.615 49.7629 210.615 49.0104V45.859H212.371V45.3029H210.615V44.0162L209.907 44.5505V45.3029H209.056V45.859H209.907V49.2067C209.907 50.1554 210.528 50.657 211.324 50.657ZM215.499 50.6461C216.612 50.6461 217.309 50.1118 217.68 49.4684L217.244 48.9559C217.015 49.4684 216.557 50.0464 215.499 50.0464C214.463 50.0464 213.755 49.3921 213.711 48.0836H217.702C217.713 47.9963 217.735 47.8655 217.735 47.7346C217.735 46.1535 216.841 45.1939 215.412 45.1939C213.994 45.1939 213.024 46.2189 213.024 47.92C213.024 49.6538 214.038 50.6461 215.499 50.6461ZM215.412 45.7827C216.372 45.7827 217.015 46.3825 217.08 47.5602H213.722C213.82 46.3825 214.452 45.7827 215.412 45.7827Z" fill="#2A2A2A"/>
<path d="M210.58 156.686V155.595H207.778L206.687 155.704L207.538 155.072L208.552 154.178C209.326 153.534 210.373 152.52 210.373 151.342C210.373 150.143 209.653 149.271 208.181 149.271C206.502 149.271 205.313 150.339 205.346 151.8L206.382 152.542C206.317 151.135 206.993 150.448 208.072 150.448C208.781 150.448 209.086 150.895 209.086 151.419C209.086 152.106 208.585 152.662 207.876 153.349L205.357 155.748V156.686H210.58ZM216.09 156.686V155.039H217.322V153.97H216.09V149.38H214.792L211.216 154.09V155.039H214.869V156.686H216.09ZM212.568 153.97L214.869 150.972V153.97H212.568ZM221.204 156.686L221.902 154.843H224.988L225.686 156.686H227.038L224.181 149.38H222.764L219.907 156.686H221.204ZM223.058 151.8L223.451 150.481L223.843 151.8L224.585 153.774H222.306L223.058 151.8ZM228.958 158.714V155.268C229.133 156.086 229.58 156.795 230.638 156.795C231.946 156.795 232.775 155.737 232.775 154.025C232.775 152.313 231.946 151.255 230.659 151.255C229.602 151.255 229.133 151.964 228.958 152.793V151.375H227.737V158.714H228.958ZM228.958 154.352V153.698C228.958 152.825 229.318 152.248 230.18 152.248C230.943 152.248 231.521 152.825 231.521 154.025C231.521 155.224 230.943 155.802 230.18 155.802C229.318 155.802 228.958 155.224 228.958 154.352ZM235.007 158.714V155.268C235.181 156.086 235.628 156.795 236.686 156.795C237.995 156.795 238.823 155.737 238.823 154.025C238.823 152.313 237.995 151.255 236.708 151.255C235.65 151.255 235.181 151.964 235.007 152.793V151.375H233.786V158.714H235.007ZM235.007 154.352V153.698C235.007 152.825 235.367 152.248 236.228 152.248C236.991 152.248 237.569 152.825 237.569 154.025C237.569 155.224 236.991 155.802 236.228 155.802C235.367 155.802 235.007 155.224 235.007 154.352ZM241.055 156.686V149.38H239.834V156.686H241.055ZM243.569 150.623V149.38H242.347V150.623H243.569ZM243.569 156.686V151.375H242.347V156.686H243.569ZM247.216 156.795C248.393 156.795 249.113 156.26 249.517 155.65L248.764 154.865C248.568 155.312 248.154 155.791 247.227 155.791C246.387 155.791 245.831 155.279 245.766 154.33H249.56C249.582 154.221 249.604 153.992 249.604 153.796C249.604 152.324 248.721 151.266 247.129 151.266C245.635 151.266 244.599 152.367 244.599 154.036C244.599 155.693 245.635 156.795 247.216 156.795ZM247.129 152.248C247.936 152.248 248.415 152.706 248.503 153.545H245.776C245.875 152.684 246.376 152.248 247.129 152.248ZM252.624 156.806C253.682 156.806 254.129 156.097 254.303 155.279V156.686H255.525V149.38H254.303V152.804C254.129 151.975 253.66 151.266 252.602 151.266C251.316 151.266 250.487 152.324 250.487 154.036C250.487 155.748 251.316 156.806 252.624 156.806ZM251.741 154.036C251.741 152.847 252.319 152.258 253.082 152.258C253.944 152.258 254.303 152.836 254.303 153.709V154.374C254.303 155.246 253.944 155.813 253.093 155.813C252.319 155.813 251.741 155.235 251.741 154.036Z" fill="white"/>
<path d="M196.442 150.049C196.401 150.043 196.354 150.043 196.313 150.049C195.381 150.016 194.638 149.252 194.638 148.306C194.638 147.34 195.415 146.563 196.381 146.563C197.347 146.563 198.124 147.347 198.124 148.306C198.118 149.252 197.374 150.016 196.442 150.049Z" stroke="white" stroke-width="1.0223" stroke-linecap="round" stroke-linejoin="round"/>
<path d="M195.746 154.969C196.672 155.124 197.692 154.962 198.408 154.482C199.361 153.847 199.361 152.806 198.408 152.171C197.685 151.691 196.651 151.529 195.726 151.691" stroke="white" stroke-width="1.0223" stroke-linecap="round" stroke-linejoin="round"/>
<path d="M188.312 150.049C188.353 150.043 188.4 150.043 188.441 150.049C189.373 150.016 190.117 149.252 190.117 148.306C190.117 147.34 189.339 146.563 188.373 146.563C187.407 146.563 186.63 147.347 186.63 148.306C186.637 149.252 187.38 150.016 188.312 150.049Z" stroke="white" stroke-width="1.0223" stroke-linecap="round" stroke-linejoin="round"/>
<path d="M189.009 154.969C188.083 155.124 187.063 154.962 186.346 154.482C185.394 153.847 185.394 152.806 186.346 152.171C187.069 151.691 188.103 151.529 189.029 151.691" stroke="white" stroke-width="1.0223" stroke-linecap="round" stroke-linejoin="round"/>
<path d="M192.388 155.097C192.348 155.09 192.3 155.09 192.26 155.097C191.327 155.063 190.584 154.3 190.584 153.354C190.584 152.388 191.361 151.61 192.327 151.61C193.294 151.61 194.071 152.394 194.071 153.354C194.064 154.3 193.321 155.07 192.388 155.097Z" stroke="white" stroke-width="1.0223" stroke-linecap="round" stroke-linejoin="round"/>
<path d="M190.422 157.226C189.469 157.861 189.469 158.901 190.422 159.537C191.503 160.26 193.273 160.26 194.354 159.537C195.307 158.901 195.307 157.861 194.354 157.226C193.28 156.509 191.503 156.509 190.422 157.226Z" stroke="white" stroke-width="1.0223" stroke-linecap="round" stroke-linejoin="round"/>
</g>
</g>
<defs>
<filter id="filter0_d_267_244" x="0.3" y="0.3" width="285.4" height="200.629" filterUnits="userSpaceOnUse" color-interpolation-filters="sRGB">
<feFlood flood-opacity="0" result="BackgroundImageFix"/>
<feColorMatrix in="SourceAlpha" type="matrix" values="0 0 0 0 0 0 0 0 0 0 0 0 0 0 0 0 0 0 127 0" result="hardAlpha"/>
<feOffset/>
<feGaussianBlur stdDeviation="6.85"/>
<feComposite in2="hardAlpha" operator="out"/>
<feColorMatrix type="matrix" values="0 0 0 0 0 0 0 0 0 0 0 0 0 0 0 0 0 0 0.1 0"/>
<feBlend mode="normal" in2="BackgroundImageFix" result="effect1_dropShadow_267_244"/>
<feBlend mode="normal" in="SourceGraphic" in2="effect1_dropShadow_267_244" result="shape"/>
</filter>
<filter id="filter1_f_267_244" x="76.5" y="21.5" width="315" height="315" filterUnits="userSpaceOnUse" color-interpolation-filters="sRGB">
<feFlood flood-opacity="0" result="BackgroundImageFix"/>
<feBlend mode="normal" in="SourceGraphic" in2="BackgroundImageFix" result="shape"/>
<feGaussianBlur stdDeviation="53.75" result="effect1_foregroundBlur_267_244"/>
</filter>
<clipPath id="clip0_267_244">
<rect x="14" y="14" width="258" height="173.229" rx="10.32" fill="white"/>
</clipPath>
</defs>
</svg>
