<svg width="295" height="208" viewBox="0 0 295 208" fill="none" xmlns="http://www.w3.org/2000/svg">
<g filter="url(#filter0_d_267_310)">
<g clip-path="url(#clip0_267_310)">
<rect x="15" y="15" width="265.864" height="178" fill="white"/>
<g filter="url(#filter1_f_267_310)">
<rect width="131.526" height="131.526" transform="translate(178.38 105.424)" fill="#7EB09B"/>
</g>
<rect x="31.665" y="140.736" width="69.6851" height="34.8426" rx="3.78723" fill="#2A2A2A"/>
<path d="M48.7405 161.825L51.6201 153.478H53.5922L56.4718 161.825H54.8135L54.2196 160.032H50.9926L50.3876 161.825H48.7405ZM51.4296 158.688H53.7826L52.3932 154.531H52.819L51.4296 158.688ZM57.2776 164.066V155.73H58.6558V156.94L58.5213 156.637C58.7305 156.309 59.0143 156.055 59.3729 155.875C59.7314 155.689 60.146 155.595 60.6166 155.595C61.1918 155.595 61.711 155.737 62.1741 156.021C62.6372 156.305 63.0033 156.686 63.2722 157.164C63.5486 157.642 63.6868 158.18 63.6868 158.778C63.6868 159.368 63.5523 159.905 63.2834 160.391C63.0145 160.877 62.6484 161.261 62.1853 161.545C61.7222 161.822 61.1955 161.96 60.6054 161.96C60.1647 161.96 59.7576 161.874 59.3841 161.702C59.0181 161.523 58.7267 161.269 58.5101 160.94L58.7454 160.649V164.066H57.2776ZM60.4374 160.615C60.7735 160.615 61.0723 160.537 61.3337 160.38C61.5952 160.223 61.7969 160.006 61.9388 159.73C62.0882 159.454 62.1629 159.136 62.1629 158.778C62.1629 158.419 62.0882 158.105 61.9388 157.836C61.7969 157.56 61.5952 157.343 61.3337 157.186C61.0723 157.022 60.7735 156.94 60.4374 156.94C60.1161 156.94 59.8248 157.018 59.5634 157.175C59.3094 157.332 59.1077 157.552 58.9583 157.836C58.8164 158.113 58.7454 158.426 58.7454 158.778C58.7454 159.136 58.8164 159.454 58.9583 159.73C59.1077 160.006 59.3094 160.223 59.5634 160.38C59.8248 160.537 60.1161 160.615 60.4374 160.615ZM64.8058 164.066V155.73H66.184V156.94L66.0496 156.637C66.2587 156.309 66.5426 156.055 66.9012 155.875C67.2597 155.689 67.6743 155.595 68.1449 155.595C68.7201 155.595 69.2392 155.737 69.7024 156.021C70.1655 156.305 70.5315 156.686 70.8004 157.164C71.0768 157.642 71.215 158.18 71.215 158.778C71.215 159.368 71.0806 159.905 70.8116 160.391C70.5427 160.877 70.1767 161.261 69.7136 161.545C69.2504 161.822 68.7238 161.96 68.1337 161.96C67.693 161.96 67.2859 161.874 66.9124 161.702C66.5463 161.523 66.255 161.269 66.0384 160.94L66.2737 160.649V164.066H64.8058ZM67.9656 160.615C68.3018 160.615 68.6006 160.537 68.862 160.38C69.1235 160.223 69.3251 160.006 69.4671 159.73C69.6165 159.454 69.6912 159.136 69.6912 158.778C69.6912 158.419 69.6165 158.105 69.4671 157.836C69.3251 157.56 69.1235 157.343 68.862 157.186C68.6006 157.022 68.3018 156.94 67.9656 156.94C67.6444 156.94 67.3531 157.018 67.0916 157.175C66.8377 157.332 66.636 157.552 66.4866 157.836C66.3446 158.113 66.2737 158.426 66.2737 158.778C66.2737 159.136 66.3446 159.454 66.4866 159.73C66.636 160.006 66.8377 160.223 67.0916 160.38C67.3531 160.537 67.6444 160.615 67.9656 160.615ZM72.3341 161.825V153.343H73.8019V161.825H72.3341ZM75.8967 164.29C75.7324 164.29 75.5718 164.275 75.4149 164.246C75.2581 164.223 75.1161 164.178 74.9891 164.111V162.89C75.0862 162.912 75.202 162.935 75.3365 162.957C75.4784 162.979 75.6091 162.991 75.7287 162.991C76.0648 162.991 76.3076 162.912 76.457 162.755C76.6138 162.606 76.752 162.404 76.8715 162.15L77.2749 161.209L77.2525 162.442L74.597 155.73H76.1768L78.0369 160.682H77.4766L79.3254 155.73H80.9165L78.261 162.442C78.1041 162.83 77.9136 163.162 77.6895 163.439C77.4654 163.715 77.204 163.924 76.9052 164.066C76.6138 164.216 76.2777 164.29 75.8967 164.29Z" fill="white"/>
<path d="M33.969 100.928L38.081 89.0076H40.897L45.009 100.928H42.641L41.793 98.3676H37.185L36.321 100.928H33.969ZM37.809 96.4476H41.169L39.185 90.5116H39.793L37.809 96.4476ZM46.3356 100.928V89.0076H48.5116V100.928H46.3356ZM49.9083 102.848L55.2203 89.6476H57.5083L52.1963 102.848H49.9083ZM58.8981 100.928V89.0076H60.9781L65.4421 95.0716H64.4501L68.8181 89.0076H70.8981V100.928H68.7061V91.4876L69.5541 91.6956L65.0261 97.7276H64.7701L60.3541 91.6956L61.0741 91.4876V100.928H58.8981ZM73.1793 100.928V89.0076H75.3553V99.0076H80.4593V100.928H73.1793ZM84.7106 100.928V89.0076H92.6306V90.9276H86.8866V93.9836H92.3106V95.9036H86.8866V99.0076H92.6306V100.928H84.7106ZM94.0502 100.928V92.2236H96.0182V93.9356L95.8582 93.6316C96.0609 93.1089 96.3916 92.7143 96.8502 92.4476C97.3196 92.1703 97.8636 92.0316 98.4822 92.0316C99.1222 92.0316 99.6876 92.1703 100.178 92.4476C100.68 92.7249 101.069 93.1143 101.346 93.6156C101.624 94.1063 101.762 94.6769 101.762 95.3276V100.928H99.6662V95.8236C99.6662 95.4396 99.5916 95.1089 99.4422 94.8316C99.2929 94.5543 99.0849 94.3409 98.8182 94.1916C98.5622 94.0316 98.2582 93.9516 97.9062 93.9516C97.5649 93.9516 97.2609 94.0316 96.9942 94.1916C96.7276 94.3409 96.5196 94.5543 96.3702 94.8316C96.2209 95.1089 96.1462 95.4396 96.1462 95.8236V100.928H94.0502ZM107.759 104.448C107.108 104.448 106.505 104.341 105.951 104.128C105.396 103.914 104.916 103.616 104.511 103.232C104.116 102.858 103.828 102.416 103.647 101.904L105.599 101.168C105.727 101.573 105.977 101.898 106.351 102.144C106.735 102.4 107.204 102.528 107.759 102.528C108.185 102.528 108.559 102.448 108.879 102.288C109.209 102.128 109.465 101.893 109.647 101.584C109.828 101.285 109.919 100.922 109.919 100.496V98.5116L110.319 98.9916C110.02 99.5143 109.62 99.9089 109.119 100.176C108.617 100.442 108.047 100.576 107.407 100.576C106.596 100.576 105.871 100.389 105.231 100.016C104.591 99.6423 104.089 99.1303 103.727 98.4796C103.364 97.8289 103.183 97.0983 103.183 96.2876C103.183 95.4663 103.364 94.7356 103.727 94.0956C104.089 93.4556 104.585 92.9543 105.215 92.5916C105.844 92.2183 106.559 92.0316 107.359 92.0316C108.009 92.0316 108.58 92.1703 109.071 92.4476C109.572 92.7143 109.988 93.1036 110.319 93.6156L110.031 94.1436V92.2236H112.015V100.496C112.015 101.253 111.828 101.93 111.455 102.528C111.092 103.125 110.591 103.594 109.951 103.936C109.321 104.277 108.591 104.448 107.759 104.448ZM107.663 98.6396C108.111 98.6396 108.5 98.5436 108.831 98.3516C109.172 98.1489 109.439 97.8716 109.631 97.5196C109.823 97.1676 109.919 96.7623 109.919 96.3036C109.919 95.8556 109.817 95.4556 109.615 95.1036C109.423 94.7409 109.156 94.4583 108.815 94.2556C108.484 94.0529 108.1 93.9516 107.663 93.9516C107.225 93.9516 106.831 94.0529 106.479 94.2556C106.127 94.4583 105.849 94.7409 105.647 95.1036C105.455 95.4556 105.359 95.8556 105.359 96.3036C105.359 96.7516 105.455 97.1516 105.647 97.5036C105.849 97.8556 106.121 98.1329 106.463 98.3356C106.815 98.5383 107.215 98.6396 107.663 98.6396ZM113.972 100.928V92.2236H116.068V100.928H113.972ZM113.972 91.2476V89.0076H116.068V91.2476H113.972ZM118.003 100.928V92.2236H119.971V93.9356L119.811 93.6316C120.014 93.1089 120.345 92.7143 120.803 92.4476C121.273 92.1703 121.817 92.0316 122.435 92.0316C123.075 92.0316 123.641 92.1703 124.131 92.4476C124.633 92.7249 125.022 93.1143 125.299 93.6156C125.577 94.1063 125.715 94.6769 125.715 95.3276V100.928H123.619V95.8236C123.619 95.4396 123.545 95.1089 123.395 94.8316C123.246 94.5543 123.038 94.3409 122.771 94.1916C122.515 94.0316 122.211 93.9516 121.859 93.9516C121.518 93.9516 121.214 94.0316 120.947 94.1916C120.681 94.3409 120.473 94.5543 120.323 94.8316C120.174 95.1089 120.099 95.4396 120.099 95.8236V100.928H118.003ZM131.616 101.12C130.72 101.12 129.936 100.917 129.264 100.512C128.592 100.106 128.069 99.5569 127.696 98.8636C127.322 98.1703 127.136 97.4023 127.136 96.5596C127.136 95.6849 127.322 94.9116 127.696 94.2396C128.08 93.5569 128.597 93.0183 129.248 92.6236C129.909 92.2289 130.645 92.0316 131.456 92.0316C132.138 92.0316 132.736 92.1436 133.248 92.3676C133.77 92.5916 134.213 92.9009 134.576 93.2956C134.938 93.6903 135.216 94.1436 135.408 94.6556C135.6 95.1569 135.696 95.7009 135.696 96.2876C135.696 96.4369 135.685 96.5916 135.664 96.7516C135.653 96.9116 135.626 97.0503 135.584 97.1676H128.864V95.5676H134.4L133.408 96.3196C133.504 95.8289 133.477 95.3916 133.328 95.0076C133.189 94.6236 132.954 94.3196 132.624 94.0956C132.304 93.8716 131.914 93.7596 131.456 93.7596C131.018 93.7596 130.629 93.8716 130.288 94.0956C129.946 94.3089 129.685 94.6289 129.504 95.0556C129.333 95.4716 129.269 95.9783 129.312 96.5756C129.269 97.1089 129.338 97.5836 129.52 97.9996C129.712 98.4049 129.989 98.7196 130.352 98.9436C130.725 99.1676 131.152 99.2796 131.632 99.2796C132.112 99.2796 132.517 99.1783 132.848 98.9756C133.189 98.7729 133.456 98.5009 133.648 98.1596L135.344 98.9916C135.173 99.4076 134.906 99.7756 134.544 100.096C134.181 100.416 133.749 100.666 133.248 100.848C132.757 101.029 132.213 101.12 131.616 101.12ZM141.413 101.12C140.517 101.12 139.733 100.917 139.061 100.512C138.389 100.106 137.866 99.5569 137.493 98.8636C137.119 98.1703 136.933 97.4023 136.933 96.5596C136.933 95.6849 137.119 94.9116 137.493 94.2396C137.877 93.5569 138.394 93.0183 139.045 92.6236C139.706 92.2289 140.442 92.0316 141.253 92.0316C141.935 92.0316 142.533 92.1436 143.045 92.3676C143.567 92.5916 144.01 92.9009 144.373 93.2956C144.735 93.6903 145.013 94.1436 145.205 94.6556C145.397 95.1569 145.493 95.7009 145.493 96.2876C145.493 96.4369 145.482 96.5916 145.461 96.7516C145.45 96.9116 145.423 97.0503 145.381 97.1676H138.661V95.5676H144.197L143.205 96.3196C143.301 95.8289 143.274 95.3916 143.125 95.0076C142.986 94.6236 142.751 94.3196 142.421 94.0956C142.101 93.8716 141.711 93.7596 141.253 93.7596C140.815 93.7596 140.426 93.8716 140.085 94.0956C139.743 94.3089 139.482 94.6289 139.301 95.0556C139.13 95.4716 139.066 95.9783 139.109 96.5756C139.066 97.1089 139.135 97.5836 139.317 97.9996C139.509 98.4049 139.786 98.7196 140.149 98.9436C140.522 99.1676 140.949 99.2796 141.429 99.2796C141.909 99.2796 142.314 99.1783 142.645 98.9756C142.986 98.7729 143.253 98.5009 143.445 98.1596L145.141 98.9916C144.97 99.4076 144.703 99.7756 144.341 100.096C143.978 100.416 143.546 100.666 143.045 100.848C142.554 101.029 142.01 101.12 141.413 101.12ZM147.081 100.928V92.2236H149.049V94.1596L148.889 93.8716C149.092 93.2209 149.407 92.7676 149.833 92.5116C150.271 92.2556 150.793 92.1276 151.401 92.1276H151.913V93.9836H151.161C150.564 93.9836 150.084 94.1703 149.721 94.5436C149.359 94.9063 149.177 95.4183 149.177 96.0796V100.928H147.081Z" fill="#2A2A2A"/>
<path d="M35.0063 120.196V114.106H33.1339V113.424H37.5877V114.106H35.7335V120.196H35.0063ZM39.9637 120.305C39.5093 120.305 39.0972 120.196 38.7276 119.978C38.364 119.753 38.0762 119.447 37.8641 119.06C37.652 118.672 37.546 118.232 37.546 117.742C37.546 117.251 37.649 116.817 37.855 116.442C38.061 116.06 38.3398 115.76 38.6912 115.542C39.0487 115.324 39.4487 115.215 39.891 115.215C40.2425 115.215 40.5545 115.281 40.8272 115.415C41.106 115.542 41.3423 115.718 41.5362 115.942C41.7301 116.16 41.8786 116.408 41.9816 116.687C42.0846 116.96 42.1361 117.242 42.1361 117.532C42.1361 117.593 42.1331 117.663 42.127 117.742C42.1209 117.814 42.1118 117.89 42.0997 117.969H37.9822V117.333H41.7089L41.3817 117.605C41.4362 117.272 41.3968 116.975 41.2635 116.714C41.1363 116.448 40.9514 116.239 40.7091 116.087C40.4667 115.93 40.194 115.851 39.891 115.851C39.588 115.851 39.3063 115.93 39.0457 116.087C38.7912 116.245 38.5912 116.466 38.4458 116.751C38.3004 117.03 38.2428 117.363 38.2731 117.751C38.2428 118.138 38.3034 118.478 38.4549 118.769C38.6124 119.053 38.8245 119.275 39.0911 119.432C39.3638 119.59 39.6547 119.668 39.9637 119.668C40.3212 119.668 40.6212 119.584 40.8636 119.414C41.106 119.244 41.3029 119.032 41.4544 118.778L42.0361 119.087C41.9391 119.305 41.7907 119.508 41.5907 119.696C41.3908 119.878 41.1514 120.026 40.8727 120.141C40.6 120.25 40.297 120.305 39.9637 120.305ZM45.5649 120.305C45.0862 120.305 44.6651 120.193 44.3015 119.968C43.9379 119.744 43.6531 119.441 43.4471 119.06C43.2411 118.672 43.138 118.235 43.138 117.751C43.138 117.266 43.2411 116.833 43.4471 116.451C43.6531 116.069 43.9379 115.769 44.3015 115.551C44.6651 115.327 45.0862 115.215 45.5649 115.215C45.8679 115.215 46.1527 115.269 46.4193 115.378C46.6859 115.487 46.9222 115.636 47.1283 115.824C47.3343 116.005 47.4888 116.218 47.5918 116.46L46.9738 116.778C46.8526 116.518 46.6677 116.305 46.4193 116.142C46.1709 115.978 45.8861 115.896 45.5649 115.896C45.2437 115.896 44.9529 115.978 44.6923 116.142C44.4378 116.299 44.2348 116.521 44.0833 116.805C43.9379 117.084 43.8652 117.402 43.8652 117.76C43.8652 118.111 43.9379 118.429 44.0833 118.714C44.2348 118.993 44.4378 119.214 44.6923 119.378C44.9529 119.541 45.2437 119.623 45.5649 119.623C45.8861 119.623 46.1678 119.541 46.4102 119.378C46.6587 119.214 46.8465 118.996 46.9738 118.723L47.5918 119.06C47.4888 119.296 47.3343 119.508 47.1283 119.696C46.9222 119.884 46.6859 120.032 46.4193 120.141C46.1527 120.25 45.8679 120.305 45.5649 120.305ZM48.7881 120.196V113.315H49.4698V116.269L49.3153 116.233C49.4364 115.918 49.6334 115.669 49.9061 115.487C50.1848 115.306 50.506 115.215 50.8695 115.215C51.2149 115.215 51.524 115.293 51.7967 115.451C52.0754 115.609 52.2935 115.827 52.4511 116.105C52.6147 116.378 52.6965 116.687 52.6965 117.033V120.196H52.0148V117.296C52.0148 116.999 51.9603 116.748 51.8512 116.542C51.7421 116.336 51.5906 116.178 51.3967 116.069C51.2089 115.954 50.9938 115.896 50.7514 115.896C50.509 115.896 50.2908 115.954 50.0969 116.069C49.903 116.178 49.7485 116.339 49.6334 116.551C49.5243 116.757 49.4698 117.005 49.4698 117.296V120.196H48.7881ZM57.2427 120.305C56.8791 120.305 56.5549 120.235 56.2701 120.096C55.9853 119.956 55.7611 119.759 55.5975 119.505C55.4339 119.25 55.3521 118.953 55.3521 118.614C55.3521 118.323 55.4066 118.066 55.5157 117.842C55.6248 117.617 55.7581 117.423 55.9156 117.26C56.0792 117.09 56.2428 116.948 56.4065 116.833C56.5761 116.717 56.7185 116.624 56.8337 116.551L57.3063 116.26C57.476 116.157 57.6426 116.042 57.8062 115.915C57.9759 115.781 58.1153 115.63 58.2243 115.46C58.3395 115.284 58.397 115.09 58.397 114.878C58.397 114.624 58.3122 114.412 58.1425 114.242C57.9729 114.072 57.7608 113.988 57.5063 113.988C57.2457 113.988 57.0306 114.072 56.8609 114.242C56.6973 114.412 56.6155 114.627 56.6155 114.887C56.6155 115.057 56.6549 115.224 56.7337 115.387C56.8185 115.551 56.9215 115.709 57.0427 115.86C57.17 116.005 57.3002 116.148 57.4335 116.287L61.1602 120.196H60.1876L56.8609 116.76C56.7155 116.608 56.567 116.442 56.4155 116.26C56.2701 116.072 56.1459 115.869 56.0429 115.651C55.9399 115.427 55.8884 115.181 55.8884 114.915C55.8884 114.6 55.9611 114.324 56.1065 114.088C56.2519 113.845 56.4458 113.657 56.6882 113.524C56.9367 113.385 57.2093 113.315 57.5063 113.315C57.7971 113.315 58.0637 113.382 58.3061 113.515C58.5485 113.648 58.7424 113.833 58.8878 114.069C59.0333 114.306 59.106 114.575 59.106 114.878C59.106 115.2 59.0302 115.481 58.8788 115.724C58.7333 115.96 58.5546 116.163 58.3425 116.333C58.1304 116.502 57.9335 116.645 57.7517 116.76L57.2972 117.042C57.1336 117.145 56.9609 117.269 56.7791 117.414C56.5973 117.554 56.4428 117.72 56.3156 117.914C56.1883 118.102 56.1247 118.329 56.1247 118.596C56.1247 118.923 56.2307 119.178 56.4428 119.359C56.6549 119.541 56.9276 119.632 57.2609 119.632C57.479 119.632 57.6729 119.596 57.8426 119.523C58.0122 119.45 58.1637 119.356 58.297 119.241C58.4303 119.12 58.5515 118.987 58.6606 118.841C58.7697 118.69 58.8727 118.541 58.9697 118.396L60.0149 116.842H60.8421L59.6241 118.696C59.5271 118.847 59.409 119.017 59.2696 119.205C59.1302 119.387 58.9666 119.562 58.7788 119.732C58.5909 119.896 58.3698 120.032 58.1153 120.141C57.8668 120.25 57.5759 120.305 57.2427 120.305ZM63.8624 120.196V113.424H64.5896V120.196H63.8624ZM66.088 120.196V115.324H66.7697V116.269L66.6152 116.233C66.7364 115.918 66.9334 115.669 67.206 115.487C67.4848 115.306 67.8059 115.215 68.1695 115.215C68.5149 115.215 68.8239 115.293 69.0966 115.451C69.3754 115.609 69.5935 115.827 69.7511 116.105C69.9147 116.378 69.9965 116.687 69.9965 117.033V120.196H69.3148V117.296C69.3148 116.999 69.2602 116.748 69.1512 116.542C69.0481 116.336 68.8997 116.178 68.7058 116.069C68.5179 115.954 68.2998 115.896 68.0513 115.896C67.8029 115.896 67.5817 115.954 67.3878 116.069C67.1939 116.178 67.0424 116.339 66.9334 116.551C66.8243 116.757 66.7697 117.005 66.7697 117.296V120.196H66.088ZM71.7984 120.196V116.005H70.8258V115.324H71.7984V114.887C71.7984 114.548 71.8741 114.263 72.0256 114.033C72.1771 113.797 72.377 113.618 72.6255 113.497C72.8739 113.376 73.1406 113.315 73.4254 113.315C73.486 113.315 73.5556 113.321 73.6344 113.333C73.7132 113.339 73.7768 113.348 73.8253 113.36V113.979C73.7829 113.966 73.7253 113.96 73.6526 113.96C73.5799 113.954 73.5284 113.951 73.4981 113.951C73.2072 113.951 72.9648 114.021 72.7709 114.16C72.577 114.3 72.4801 114.542 72.4801 114.887V115.324H73.6708V116.005H72.4801V120.196H71.7984ZM74.778 120.196V115.324H75.4597V116.124L75.3688 116.005C75.4839 115.775 75.6566 115.593 75.8869 115.46C76.1232 115.327 76.408 115.26 76.7413 115.26H77.0503V115.942H76.6231C76.2717 115.942 75.9899 116.051 75.7778 116.269C75.5657 116.487 75.4597 116.796 75.4597 117.196V120.196H74.778ZM79.258 120.305C78.949 120.305 78.6733 120.247 78.4309 120.132C78.1885 120.011 77.9976 119.847 77.8583 119.641C77.7189 119.435 77.6492 119.199 77.6492 118.932C77.6492 118.678 77.7037 118.447 77.8128 118.241C77.9219 118.029 78.0916 117.851 78.3218 117.705C78.5521 117.56 78.846 117.457 79.2035 117.396L81.1123 117.078V117.696L79.3671 117.987C79.0156 118.048 78.7611 118.16 78.6036 118.323C78.4521 118.487 78.3764 118.681 78.3764 118.905C78.3764 119.123 78.4612 119.308 78.6309 119.459C78.8066 119.611 79.0308 119.687 79.3035 119.687C79.6368 119.687 79.9276 119.617 80.1761 119.478C80.4245 119.332 80.6184 119.138 80.7578 118.896C80.8971 118.654 80.9668 118.384 80.9668 118.087V116.851C80.9668 116.56 80.8608 116.324 80.6487 116.142C80.4366 115.96 80.1609 115.869 79.8216 115.869C79.5246 115.869 79.2641 115.945 79.0399 116.096C78.8157 116.242 78.649 116.433 78.54 116.669L77.9219 116.333C78.0128 116.127 78.1552 115.939 78.3491 115.769C78.5491 115.599 78.7763 115.466 79.0308 115.369C79.2853 115.266 79.5489 115.215 79.8216 115.215C80.1791 115.215 80.4942 115.284 80.7669 115.424C81.0456 115.563 81.2607 115.757 81.4122 116.005C81.5698 116.248 81.6485 116.53 81.6485 116.851V120.196H80.9668V119.223L81.0668 119.323C80.982 119.505 80.8487 119.672 80.6669 119.823C80.4912 119.968 80.2821 120.087 80.0397 120.177C79.8034 120.262 79.5428 120.305 79.258 120.305Z" fill="#2A2A2A"/>
<rect x="31.665" y="31.6637" width="107.257" height="34.8426" rx="3.78723" stroke="#2A2A2A" stroke-width="0.700303"/>
<path d="M64.5624 52.2678V49.0632H68.0583V48.4133H64.5624V45.4104H68.7867V44.7605H63.8229V52.2678H64.5624ZM71.203 52.3798C72.3122 52.3798 72.9173 51.6291 73.1078 50.7327V52.2678H73.8361V46.8894H73.1078V49.9932C73.1078 50.9344 72.6596 51.7523 71.4943 51.7523C70.5755 51.7523 70.1721 51.2145 70.1721 50.3517V46.8894H69.4438V50.5086C69.4438 51.7523 70.1497 52.3798 71.203 52.3798ZM76.1476 52.2678V44.7605H75.4081V52.2678H76.1476ZM78.4564 52.2678V44.7605H77.7169V52.2678H78.4564ZM81.7849 52.391C82.4796 52.391 83.0062 52.0661 83.2415 51.6739L82.9838 50.9568C82.8045 51.3378 82.4124 51.6851 81.9306 51.6851C81.46 51.6851 81.0566 51.4722 81.0566 50.6991V47.4609H82.8606V46.8894H81.0566V45.5673L80.3283 46.1163V46.8894H79.4543V47.4609H80.3283V50.9008C80.3283 51.8756 80.9669 52.391 81.7849 52.391ZM84.978 45.9258V44.7605H84.2385V45.9258H84.978ZM84.978 52.2678V46.8894H84.2385V52.2678H84.978ZM87.2868 52.2678V49.1528C87.2868 48.2228 87.7462 47.3936 88.6986 47.3936C89.539 47.3936 89.9536 47.853 89.9536 48.7943V52.2678H90.6819V49.1528C90.6819 48.2228 91.1413 47.3936 92.1049 47.3936C92.9341 47.3936 93.3487 47.853 93.3487 48.7943V52.2678H94.0882V48.6262C94.0882 47.3936 93.5055 46.7774 92.4747 46.7774C91.4662 46.7774 90.85 47.5281 90.6707 48.4133C90.6147 47.3264 90.0432 46.7774 89.0684 46.7774C88.0712 46.7774 87.4773 47.5057 87.2868 48.3909V46.8894H86.5473V52.2678H87.2868ZM97.8378 52.3798C98.9807 52.3798 99.6978 51.8308 100.079 51.1697L99.6306 50.6431C99.3953 51.1697 98.9246 51.7635 97.8378 51.7635C96.7733 51.7635 96.045 51.0913 96.0002 49.7467H100.101C100.112 49.657 100.135 49.5226 100.135 49.3881C100.135 47.7634 99.216 46.7774 97.7481 46.7774C96.2915 46.7774 95.2943 47.8306 95.2943 49.5786C95.2943 51.3602 96.3363 52.3798 97.8378 52.3798ZM97.7481 47.3824C98.7342 47.3824 99.3953 47.9987 99.4625 49.2088H96.0114C96.1122 47.9987 96.7621 47.3824 97.7481 47.3824Z" fill="#2A2A2A"/>
<rect x="156.409" y="31.6637" width="107.257" height="34.8426" rx="3.78723" stroke="#2A2A2A" stroke-width="0.700303"/>
<path d="M196.215 52.3798C198.344 52.3798 199.778 50.6879 199.778 48.5029C199.778 46.3404 198.344 44.6485 196.215 44.6485C194.086 44.6485 192.652 46.3404 192.652 48.5029C192.652 50.6879 194.086 52.3798 196.215 52.3798ZM196.226 51.6851C194.445 51.6851 193.425 50.3405 193.425 48.5029C193.425 46.6877 194.445 45.332 196.226 45.332C197.997 45.332 199.016 46.6877 199.016 48.5029C199.016 50.3405 197.997 51.6851 196.226 51.6851ZM201.932 52.2678V49.1528C201.932 48.2228 202.391 47.3936 203.523 47.3936C204.453 47.3936 204.856 47.9315 204.856 48.8055V52.2678H205.596V48.6374C205.596 47.4049 204.879 46.7774 203.814 46.7774C202.738 46.7774 202.122 47.5169 201.932 48.3909V46.8894H201.192V52.2678H201.932ZM209.02 52.3798C210.018 52.3798 210.892 51.9204 210.892 50.8896C210.892 50.1276 210.443 49.6682 209.323 49.3881L208.606 49.2088C207.821 49.0184 207.418 48.8167 207.418 48.2564C207.418 47.6962 207.878 47.3936 208.527 47.3936C209.368 47.3936 209.928 47.797 210.175 48.5253L210.735 48.1108C210.466 47.3488 209.715 46.7774 208.572 46.7774C207.463 46.7774 206.723 47.36 206.723 48.29C206.723 49.2537 207.519 49.6122 208.292 49.8027L209.02 49.9708C209.749 50.1388 210.231 50.3405 210.231 50.9008C210.231 51.461 209.76 51.7523 209.043 51.7523C207.956 51.7523 207.284 51.1473 207.116 50.419L206.567 50.8335C206.891 51.8868 207.922 52.3798 209.02 52.3798ZM212.874 45.9258V44.7605H212.134V45.9258H212.874ZM212.874 52.2678V46.8894H212.134V52.2678H212.874ZM216.202 52.391C216.897 52.391 217.424 52.0661 217.659 51.6739L217.401 50.9568C217.222 51.3378 216.83 51.6851 216.348 51.6851C215.877 51.6851 215.474 51.4722 215.474 50.6991V47.4609H217.278V46.8894H215.474V45.5673L214.746 46.1163V46.8894H213.872V47.4609H214.746V50.9008C214.746 51.8756 215.384 52.391 216.202 52.391ZM220.492 52.3798C221.635 52.3798 222.352 51.8308 222.733 51.1697L222.285 50.6431C222.05 51.1697 221.579 51.7635 220.492 51.7635C219.428 51.7635 218.7 51.0913 218.655 49.7467H222.756C222.767 49.657 222.789 49.5226 222.789 49.3881C222.789 47.7634 221.871 46.7774 220.403 46.7774C218.946 46.7774 217.949 47.8306 217.949 49.5786C217.949 51.3602 218.991 52.3798 220.492 52.3798ZM220.403 47.3824C221.389 47.3824 222.05 47.9987 222.117 49.2088H218.666C218.767 47.9987 219.417 47.3824 220.403 47.3824Z" fill="#2A2A2A"/>
<path d="M216.995 161.34V160.22H214.115L212.995 160.332L213.869 159.682L214.911 158.763C215.706 158.102 216.782 157.06 216.782 155.85C216.782 154.617 216.042 153.721 214.53 153.721C212.804 153.721 211.583 154.819 211.616 156.32L212.681 157.082C212.614 155.637 213.308 154.931 214.418 154.931C215.146 154.931 215.46 155.39 215.46 155.928C215.46 156.634 214.944 157.205 214.216 157.911L211.628 160.376V161.34H216.995ZM222.656 161.34V159.648H223.922V158.55H222.656V153.833H221.323L217.648 158.673V159.648H221.401V161.34H222.656ZM219.037 158.55L221.401 155.469V158.55H219.037ZM227.912 161.34L228.629 159.446H231.8L232.517 161.34H233.906L230.971 153.833H229.514L226.578 161.34H227.912ZM229.816 156.32L230.22 154.964L230.623 156.32L231.385 158.348H229.043L229.816 156.32ZM235.879 163.424V159.883C236.058 160.724 236.518 161.452 237.604 161.452C238.949 161.452 239.801 160.365 239.801 158.606C239.801 156.847 238.949 155.76 237.627 155.76C236.54 155.76 236.058 156.488 235.879 157.34V155.883H234.624V163.424H235.879ZM235.879 158.942V158.27C235.879 157.374 236.249 156.78 237.134 156.78C237.918 156.78 238.512 157.374 238.512 158.606C238.512 159.839 237.918 160.432 237.134 160.432C236.249 160.432 235.879 159.839 235.879 158.942ZM242.094 163.424V159.883C242.273 160.724 242.733 161.452 243.82 161.452C245.164 161.452 246.016 160.365 246.016 158.606C246.016 156.847 245.164 155.76 243.842 155.76C242.755 155.76 242.273 156.488 242.094 157.34V155.883H240.839V163.424H242.094ZM242.094 158.942V158.27C242.094 157.374 242.464 156.78 243.349 156.78C244.133 156.78 244.727 157.374 244.727 158.606C244.727 159.839 244.133 160.432 243.349 160.432C242.464 160.432 242.094 159.839 242.094 158.942ZM248.309 161.34V153.833H247.054V161.34H248.309ZM250.892 155.11V153.833H249.637V155.11H250.892ZM250.892 161.34V155.883H249.637V161.34H250.892ZM254.639 161.452C255.849 161.452 256.589 160.903 257.004 160.276L256.23 159.469C256.029 159.928 255.603 160.421 254.651 160.421C253.788 160.421 253.216 159.895 253.149 158.92H257.048C257.071 158.808 257.093 158.572 257.093 158.371C257.093 156.858 256.186 155.771 254.55 155.771C253.015 155.771 251.95 156.903 251.95 158.617C251.95 160.32 253.015 161.452 254.639 161.452ZM254.55 156.78C255.379 156.78 255.872 157.25 255.962 158.113H253.16C253.261 157.228 253.777 156.78 254.55 156.78ZM260.197 161.463C261.283 161.463 261.743 160.735 261.922 159.895V161.34H263.177V153.833H261.922V157.351C261.743 156.5 261.261 155.771 260.174 155.771C258.852 155.771 258 156.858 258 158.617C258 160.376 258.852 161.463 260.197 161.463ZM259.289 158.617C259.289 157.396 259.883 156.791 260.667 156.791C261.552 156.791 261.922 157.385 261.922 158.281V158.965C261.922 159.861 261.552 160.444 260.678 160.444C259.883 160.444 259.289 159.85 259.289 158.617Z" fill="white"/>
<path d="M202.467 154.797C202.425 154.79 202.377 154.79 202.335 154.797C201.377 154.762 200.613 153.977 200.613 153.005C200.613 152.012 201.412 151.214 202.405 151.214C203.398 151.214 204.196 152.019 204.196 153.005C204.189 153.977 203.425 154.762 202.467 154.797Z" stroke="white" stroke-width="1.05046" stroke-linecap="round" stroke-linejoin="round"/>
<path d="M201.752 159.851C202.704 160.011 203.752 159.844 204.488 159.351C205.467 158.699 205.467 157.63 204.488 156.977C203.745 156.484 202.683 156.317 201.731 156.484" stroke="white" stroke-width="1.05046" stroke-linecap="round" stroke-linejoin="round"/>
<path d="M194.114 154.797C194.155 154.79 194.204 154.79 194.246 154.797C195.204 154.762 195.967 153.977 195.967 153.005C195.967 152.012 195.169 151.214 194.176 151.214C193.183 151.214 192.385 152.019 192.385 153.005C192.392 153.977 193.155 154.762 194.114 154.797Z" stroke="white" stroke-width="1.05046" stroke-linecap="round" stroke-linejoin="round"/>
<path d="M194.829 159.851C193.878 160.011 192.83 159.844 192.094 159.351C191.115 158.699 191.115 157.63 192.094 156.977C192.837 156.484 193.899 156.317 194.85 156.484" stroke="white" stroke-width="1.05046" stroke-linecap="round" stroke-linejoin="round"/>
<path d="M198.302 159.983C198.26 159.976 198.212 159.976 198.17 159.983C197.212 159.948 196.448 159.164 196.448 158.191C196.448 157.199 197.247 156.4 198.24 156.4C199.232 156.4 200.031 157.206 200.031 158.191C200.024 159.164 199.26 159.955 198.302 159.983Z" stroke="white" stroke-width="1.05046" stroke-linecap="round" stroke-linejoin="round"/>
<path d="M196.281 162.17C195.302 162.823 195.302 163.892 196.281 164.545C197.392 165.288 199.211 165.288 200.322 164.545C201.301 163.892 201.301 162.823 200.322 162.17C199.218 161.434 197.392 161.434 196.281 162.17Z" stroke="white" stroke-width="1.05046" stroke-linecap="round" stroke-linejoin="round"/>
</g>
</g>
<defs>
<filter id="filter0_d_267_310" x="0.922647" y="0.922647" width="293.261" height="206.155" filterUnits="userSpaceOnUse" color-interpolation-filters="sRGB">
<feFlood flood-opacity="0" result="BackgroundImageFix"/>
<feColorMatrix in="SourceAlpha" type="matrix" values="0 0 0 0 0 0 0 0 0 0 0 0 0 0 0 0 0 0 127 0" result="hardAlpha"/>
<feOffset/>
<feGaussianBlur stdDeviation="7.03868"/>
<feComposite in2="hardAlpha" operator="out"/>
<feColorMatrix type="matrix" values="0 0 0 0 0 0 0 0 0 0 0 0 0 0 0 0 0 0 0.1 0"/>
<feBlend mode="normal" in2="BackgroundImageFix" result="effect1_dropShadow_267_310"/>
<feBlend mode="normal" in="SourceGraphic" in2="effect1_dropShadow_267_310" result="shape"/>
</filter>
<filter id="filter1_f_267_310" x="67.9189" y="-5.03709" width="352.447" height="352.448" filterUnits="userSpaceOnUse" color-interpolation-filters="sRGB">
<feFlood flood-opacity="0" result="BackgroundImageFix"/>
<feBlend mode="normal" in="SourceGraphic" in2="BackgroundImageFix" result="shape"/>
<feGaussianBlur stdDeviation="55.2305" result="effect1_foregroundBlur_267_310"/>
</filter>
<clipPath id="clip0_267_310">
<rect x="15" y="15" width="265.106" height="178" rx="10.6043" fill="white"/>
</clipPath>
</defs>
</svg>
