<svg width="201" height="286" viewBox="0 0 201 286" fill="none" xmlns="http://www.w3.org/2000/svg">
<g filter="url(#filter0_d_267_343)">
<g clip-path="url(#clip0_267_343)">
<rect x="14" y="272" width="258.737" height="173.229" transform="rotate(-90 14 272)" fill="white"/>
<g filter="url(#filter1_f_267_343)">
<rect width="128" height="128" transform="translate(102 113) rotate(-90)" fill="#25283D"/>
</g>
<rect x="136.365" y="255.782" width="67.8171" height="33.9086" rx="3.68571" transform="rotate(-90 136.365 255.782)" fill="#2A2A2A"/>
<path d="M156.211 239.221L148.087 236.419L148.087 234.5L156.211 231.697L156.211 233.311L154.466 233.889L154.466 237.03L156.211 237.618L156.211 239.221ZM153.158 236.604L153.158 234.314L149.112 235.667L149.112 235.252L153.158 236.604ZM158.392 230.913L150.279 230.913L150.279 229.572L151.457 229.572L151.162 229.703C150.842 229.499 150.595 229.223 150.421 228.874C150.239 228.525 150.148 228.122 150.148 227.664C150.148 227.104 150.286 226.599 150.562 226.148C150.839 225.697 151.209 225.341 151.675 225.079C152.14 224.81 152.663 224.676 153.245 224.676C153.819 224.676 154.343 224.807 154.815 225.068C155.288 225.33 155.662 225.686 155.938 226.137C156.207 226.588 156.342 227.1 156.342 227.675C156.342 228.103 156.258 228.5 156.091 228.863C155.917 229.219 155.669 229.503 155.349 229.714L155.066 229.485L158.392 229.485L158.392 230.913ZM155.033 227.838C155.033 227.511 154.957 227.22 154.804 226.966C154.652 226.711 154.441 226.515 154.172 226.377C153.903 226.231 153.594 226.159 153.245 226.159C152.896 226.159 152.591 226.231 152.329 226.377C152.06 226.515 151.849 226.711 151.696 226.966C151.537 227.22 151.457 227.511 151.457 227.838C151.457 228.151 151.533 228.434 151.686 228.689C151.838 228.936 152.053 229.132 152.329 229.277C152.598 229.416 152.903 229.485 153.245 229.485C153.594 229.485 153.903 229.416 154.172 229.277C154.441 229.132 154.652 228.936 154.804 228.689C154.957 228.434 155.033 228.151 155.033 227.838ZM158.392 223.587L150.279 223.587L150.279 222.245L151.457 222.245L151.162 222.376C150.842 222.173 150.595 221.896 150.421 221.548C150.239 221.199 150.148 220.795 150.148 220.337C150.148 219.777 150.286 219.272 150.562 218.821C150.839 218.371 151.209 218.014 151.675 217.753C152.14 217.484 152.663 217.349 153.245 217.349C153.819 217.349 154.343 217.48 154.815 217.742C155.288 218.004 155.662 218.36 155.938 218.811C156.207 219.261 156.342 219.774 156.342 220.348C156.342 220.777 156.258 221.173 156.091 221.537C155.917 221.893 155.669 222.176 155.349 222.387L155.066 222.158L158.392 222.158L158.392 223.587ZM155.033 220.512C155.033 220.184 154.957 219.894 154.804 219.639C154.652 219.385 154.441 219.189 154.172 219.05C153.903 218.905 153.594 218.832 153.245 218.832C152.896 218.832 152.591 218.905 152.329 219.05C152.06 219.189 151.849 219.385 151.696 219.639C151.537 219.894 151.457 220.184 151.457 220.512C151.457 220.824 151.533 221.108 151.686 221.362C151.838 221.609 152.053 221.806 152.329 221.951C152.598 222.089 152.903 222.158 153.245 222.158C153.594 222.158 153.903 222.089 154.172 221.951C154.441 221.806 154.652 221.609 154.804 221.362C154.957 221.108 155.033 220.824 155.033 220.512ZM156.211 216.26L147.956 216.26L147.956 214.832L156.211 214.832L156.211 216.26ZM158.61 212.793C158.61 212.953 158.595 213.109 158.566 213.262C158.544 213.415 158.501 213.553 158.435 213.676L157.247 213.676C157.269 213.582 157.29 213.469 157.312 213.338C157.334 213.2 157.345 213.073 157.345 212.957C157.345 212.63 157.269 212.393 157.116 212.248C156.971 212.095 156.774 211.961 156.527 211.844L155.611 211.452L156.811 211.474L150.279 214.058L150.279 212.52L155.099 210.71L155.099 211.256L150.279 209.456L150.279 207.908L156.811 210.492C157.189 210.645 157.512 210.83 157.781 211.048C158.05 211.266 158.254 211.521 158.392 211.812C158.537 212.095 158.61 212.422 158.61 212.793Z" fill="white"/>
<path d="M98.2721 249.014C98.2721 249.867 98.1174 250.656 97.8081 251.382C97.4987 252.096 97.0667 252.726 96.5121 253.27C95.9574 253.803 95.3067 254.219 94.5601 254.518C93.8134 254.816 92.9974 254.966 92.1121 254.966C91.2267 254.966 90.4107 254.822 89.6641 254.534C88.9067 254.235 88.2561 253.819 87.7121 253.286C87.1574 252.742 86.7307 252.107 86.4321 251.382C86.1227 250.656 85.9681 249.867 85.9681 249.014C85.9681 248.16 86.1121 247.398 86.4001 246.726C86.6881 246.043 87.0721 245.467 87.5521 244.998C88.0214 244.528 88.5387 244.192 89.1041 243.99L90.0161 245.942C89.4187 246.166 88.9281 246.544 88.5441 247.078C88.1494 247.611 87.9521 248.256 87.9521 249.014C87.9521 249.76 88.1281 250.422 88.4801 250.998C88.8321 251.563 89.3174 252.006 89.9361 252.326C90.5547 252.635 91.2801 252.79 92.1121 252.79C92.9441 252.79 93.6747 252.635 94.3041 252.326C94.9227 252.006 95.4081 251.563 95.7601 250.998C96.1121 250.422 96.2881 249.76 96.2881 249.014C96.2881 248.256 96.0961 247.611 95.7121 247.078C95.3174 246.544 94.8214 246.166 94.2241 245.942L95.1361 243.99C95.7014 244.192 96.2241 244.528 96.7041 244.998C97.1734 245.467 97.5521 246.043 97.8401 246.726C98.1281 247.398 98.2721 248.16 98.2721 249.014ZM98.2721 239.295C98.2721 239.967 98.1227 240.554 97.8241 241.055C97.5254 241.546 97.1094 241.924 96.5761 242.191C96.0427 242.447 95.4187 242.575 94.7041 242.575L89.3761 242.575L89.3761 240.479L94.5281 240.479C94.8907 240.479 95.2107 240.41 95.4881 240.271C95.7547 240.122 95.9681 239.914 96.1281 239.647C96.2774 239.37 96.3521 239.06 96.3521 238.719C96.3521 238.378 96.2774 238.074 96.1281 237.807C95.9681 237.54 95.7494 237.332 95.4721 237.183C95.1947 237.034 94.8641 236.959 94.4801 236.959L89.3761 236.959L89.3761 234.863L98.0801 234.863L98.0801 236.847L96.3681 236.847L96.6721 236.671C97.2054 236.874 97.6054 237.21 97.8721 237.679C98.1387 238.138 98.2721 238.676 98.2721 239.295ZM98.0801 232.915L85.9681 232.915L85.9681 230.819L98.0801 230.819L98.0801 232.915ZM98.1761 224.915C98.1761 225.897 97.9094 226.659 97.3761 227.203C96.8321 227.737 96.0694 228.003 95.0881 228.003L91.2481 228.003L91.2481 229.507L89.3761 229.507L89.3761 229.347C89.3761 228.921 89.2641 228.59 89.0401 228.355C88.8161 228.121 88.4907 228.003 88.0641 228.003L87.3921 228.003L87.3921 225.907L89.3761 225.907L89.3761 223.907L91.2481 223.907L91.2481 225.907L94.9761 225.907C95.2641 225.907 95.5094 225.859 95.7121 225.763C95.9147 225.657 96.0694 225.497 96.1761 225.283C96.2827 225.059 96.3361 224.777 96.3361 224.435C96.3361 224.361 96.3307 224.275 96.3201 224.179C96.3094 224.073 96.2987 223.971 96.2881 223.875L98.0801 223.875C98.1014 224.025 98.1227 224.195 98.1441 224.387C98.1654 224.579 98.1761 224.755 98.1761 224.915ZM98.2721 219.17C98.2721 219.842 98.1227 220.429 97.8241 220.93C97.5254 221.421 97.1094 221.799 96.5761 222.066C96.0427 222.322 95.4187 222.45 94.7041 222.45L89.3761 222.45L89.3761 220.354L94.5281 220.354C94.8907 220.354 95.2107 220.285 95.4881 220.146C95.7547 219.997 95.9681 219.789 96.1281 219.522C96.2774 219.245 96.3521 218.935 96.3521 218.594C96.3521 218.253 96.2774 217.949 96.1281 217.682C95.9681 217.415 95.7494 217.207 95.4721 217.058C95.1947 216.909 94.8641 216.834 94.4801 216.834L89.3761 216.834L89.3761 214.738L98.0801 214.738L98.0801 216.722L96.3681 216.722L96.6721 216.546C97.2054 216.749 97.6054 217.085 97.8721 217.554C98.1387 218.013 98.2721 218.551 98.2721 219.17ZM98.0801 212.79L89.3761 212.79L89.3761 210.822L91.3121 210.822L91.0241 210.982C90.3734 210.779 89.9201 210.464 89.6641 210.038C89.4081 209.6 89.2801 209.078 89.2801 208.47L89.2801 207.958L91.1361 207.958L91.1361 208.71C91.1361 209.307 91.3227 209.787 91.6961 210.15C92.0587 210.512 92.5707 210.694 93.2321 210.694L98.0801 210.694L98.0801 212.79ZM98.2721 204.165C98.2721 204.773 98.1707 205.301 97.9681 205.749C97.7654 206.197 97.4774 206.544 97.1041 206.789C96.7201 207.035 96.2774 207.157 95.7761 207.157C95.2961 207.157 94.8694 207.051 94.4961 206.837C94.1121 206.624 93.7921 206.293 93.5361 205.845C93.2801 205.397 93.0987 204.832 92.9921 204.149L92.5281 201.301L94.1281 201.301L94.5441 203.749C94.6187 204.165 94.7521 204.475 94.9441 204.677C95.1361 204.88 95.3867 204.981 95.6961 204.981C95.9947 204.981 96.2347 204.869 96.4161 204.645C96.5867 204.411 96.6721 204.123 96.6721 203.781C96.6721 203.344 96.5814 202.96 96.4001 202.629C96.2081 202.288 95.9467 202.027 95.6161 201.845C95.2854 201.653 94.9227 201.557 94.5281 201.557L92.2881 201.557C91.9147 201.557 91.6054 201.707 91.3601 202.005C91.1041 202.293 90.9761 202.677 90.9761 203.157C90.9761 203.605 91.0987 204.005 91.3441 204.357C91.5787 204.699 91.8934 204.949 92.2881 205.109L91.4561 206.821C90.9974 206.651 90.6027 206.384 90.2721 206.021C89.9307 205.648 89.6641 205.211 89.4721 204.709C89.2801 204.208 89.1841 203.664 89.1841 203.077C89.1841 202.363 89.3174 201.733 89.5841 201.189C89.8401 200.645 90.2027 200.224 90.6721 199.925C91.1307 199.616 91.6694 199.461 92.2881 199.461L98.0801 199.461L98.0801 201.445L96.5921 201.445L96.5601 200.997C96.9334 201.221 97.2481 201.488 97.5041 201.797C97.7494 202.107 97.9414 202.459 98.0801 202.853C98.2081 203.248 98.2721 203.685 98.2721 204.165ZM98.0801 197.524L85.9681 197.524L85.9681 195.428L98.0801 195.428L98.0801 197.524ZM98.0801 187.629L86.1601 187.629L86.1601 185.549L92.2241 181.085L92.2241 182.077L86.1601 177.709L86.1601 175.629L98.0801 175.629L98.0801 177.821L88.6401 177.821L88.8481 176.973L94.8801 181.501L94.8801 181.757L88.8481 186.173L88.6401 185.453L98.0801 185.453L98.0801 187.629ZM98.2721 170.884C98.2721 171.492 98.1707 172.02 97.9681 172.468C97.7654 172.916 97.4774 173.263 97.1041 173.508C96.7201 173.753 96.2774 173.876 95.7761 173.876C95.2961 173.876 94.8694 173.769 94.4961 173.556C94.1121 173.343 93.7921 173.012 93.5361 172.564C93.2801 172.116 93.0987 171.551 92.9921 170.868L92.5281 168.02L94.1281 168.02L94.5441 170.468C94.6187 170.884 94.7521 171.193 94.9441 171.396C95.1361 171.599 95.3867 171.7 95.6961 171.7C95.9947 171.7 96.2347 171.588 96.4161 171.364C96.5867 171.129 96.6721 170.841 96.6721 170.5C96.6721 170.063 96.5814 169.679 96.4001 169.348C96.2081 169.007 95.9467 168.745 95.6161 168.564C95.2854 168.372 94.9227 168.276 94.5281 168.276L92.2881 168.276C91.9147 168.276 91.6054 168.425 91.3601 168.724C91.1041 169.012 90.9761 169.396 90.9761 169.876C90.9761 170.324 91.0987 170.724 91.3441 171.076C91.5787 171.417 91.8934 171.668 92.2881 171.828L91.4561 173.54C90.9974 173.369 90.6027 173.103 90.2721 172.74C89.9307 172.367 89.6641 171.929 89.4721 171.428C89.2801 170.927 89.1841 170.383 89.1841 169.796C89.1841 169.081 89.3174 168.452 89.5841 167.908C89.8401 167.364 90.2027 166.943 90.6721 166.644C91.1307 166.335 91.6694 166.18 92.2881 166.18L98.0801 166.18L98.0801 168.164L96.5921 168.164L96.5601 167.716C96.9334 167.94 97.2481 168.207 97.5041 168.516C97.7494 168.825 97.9414 169.177 98.0801 169.572C98.2081 169.967 98.2721 170.404 98.2721 170.884ZM98.0801 164.243L89.3761 164.243L89.3761 162.275L91.0881 162.275L90.7841 162.435C90.2614 162.232 89.8667 161.901 89.6001 161.443C89.3227 160.973 89.1841 160.429 89.1841 159.811C89.1841 159.171 89.3227 158.605 89.6001 158.115C89.8774 157.613 90.2667 157.224 90.7681 156.947C91.2587 156.669 91.8294 156.531 92.4801 156.531L98.0801 156.531L98.0801 158.627L92.9761 158.627C92.5921 158.627 92.2614 158.701 91.9841 158.851C91.7067 159 91.4934 159.208 91.3441 159.475C91.1841 159.731 91.1041 160.035 91.1041 160.387C91.1041 160.728 91.1841 161.032 91.3441 161.299C91.4934 161.565 91.7067 161.773 91.9841 161.923C92.2614 162.072 92.5921 162.147 92.9761 162.147L98.0801 162.147L98.0801 164.243ZM98.2721 152.118C98.2721 152.726 98.1707 153.254 97.9681 153.702C97.7654 154.15 97.4774 154.497 97.1041 154.742C96.7201 154.988 96.2774 155.11 95.7761 155.11C95.2961 155.11 94.8694 155.004 94.4961 154.79C94.1121 154.577 93.7921 154.246 93.5361 153.798C93.2801 153.35 93.0987 152.785 92.9921 152.102L92.5281 149.254L94.1281 149.254L94.5441 151.702C94.6187 152.118 94.7521 152.428 94.9441 152.63C95.1361 152.833 95.3867 152.934 95.6961 152.934C95.9947 152.934 96.2347 152.822 96.4161 152.598C96.5867 152.364 96.6721 152.076 96.6721 151.734C96.6721 151.297 96.5814 150.913 96.4001 150.582C96.2081 150.241 95.9467 149.98 95.6161 149.798C95.2854 149.606 94.9227 149.51 94.5281 149.51L92.2881 149.51C91.9147 149.51 91.6054 149.66 91.3601 149.958C91.1041 150.246 90.9761 150.63 90.9761 151.11C90.9761 151.558 91.0987 151.958 91.3441 152.31C91.5787 152.652 91.8934 152.902 92.2881 153.062L91.4561 154.774C90.9974 154.604 90.6027 154.337 90.2721 153.974C89.9307 153.601 89.6641 153.164 89.4721 152.662C89.2801 152.161 89.1841 151.617 89.1841 151.03C89.1841 150.316 89.3174 149.686 89.5841 149.142C89.8401 148.598 90.2027 148.177 90.6721 147.878C91.1307 147.569 91.6694 147.414 92.2881 147.414L98.0801 147.414L98.0801 149.398L96.5921 149.398L96.5601 148.95C96.9334 149.174 97.2481 149.441 97.5041 149.75C97.7494 150.06 97.9414 150.412 98.0801 150.806C98.2081 151.201 98.2721 151.638 98.2721 152.118ZM101.6 141.253C101.6 141.904 101.493 142.506 101.28 143.061C101.067 143.616 100.768 144.096 100.384 144.501C100.011 144.896 99.5681 145.184 99.0561 145.365L98.3201 143.413C98.7254 143.285 99.0507 143.034 99.2961 142.661C99.5521 142.277 99.6801 141.808 99.6801 141.253C99.6801 140.826 99.6001 140.453 99.4401 140.133C99.2801 139.802 99.0454 139.546 98.7361 139.365C98.4374 139.184 98.0747 139.093 97.6481 139.093L95.6641 139.093L96.1441 138.693C96.6667 138.992 97.0614 139.392 97.3281 139.893C97.5947 140.394 97.7281 140.965 97.7281 141.605C97.7281 142.416 97.5414 143.141 97.1681 143.781C96.7947 144.421 96.2827 144.922 95.6321 145.285C94.9814 145.648 94.2507 145.829 93.4401 145.829C92.6187 145.829 91.8881 145.648 91.2481 145.285C90.6081 144.922 90.1067 144.426 89.7441 143.797C89.3707 143.168 89.1841 142.453 89.1841 141.653C89.1841 141.002 89.3227 140.432 89.6001 139.941C89.8667 139.44 90.2561 139.024 90.7681 138.693L91.2961 138.981L89.3761 138.981L89.3761 136.997L97.6481 136.997C98.4054 136.997 99.0827 137.184 99.6801 137.557C100.277 137.92 100.747 138.421 101.088 139.061C101.429 139.69 101.6 140.421 101.6 141.253ZM95.7921 141.349C95.7921 140.901 95.6961 140.512 95.5041 140.181C95.3014 139.84 95.0241 139.573 94.6721 139.381C94.3201 139.189 93.9147 139.093 93.4561 139.093C93.0081 139.093 92.6081 139.194 92.2561 139.397C91.8934 139.589 91.6107 139.856 91.4081 140.197C91.2054 140.528 91.1041 140.912 91.1041 141.349C91.1041 141.786 91.2054 142.181 91.4081 142.533C91.6107 142.885 91.8934 143.162 92.2561 143.365C92.6081 143.557 93.0081 143.653 93.4561 143.653C93.9041 143.653 94.3041 143.557 94.6561 143.365C95.0081 143.162 95.2854 142.89 95.4881 142.549C95.6907 142.197 95.7921 141.797 95.7921 141.349ZM98.2721 130.912C98.2721 131.808 98.0694 132.592 97.6641 133.264C97.2587 133.936 96.7094 134.458 96.0161 134.832C95.3227 135.205 94.5547 135.392 93.7121 135.392C92.8374 135.392 92.0641 135.205 91.3921 134.832C90.7094 134.448 90.1707 133.93 89.7761 133.28C89.3814 132.618 89.1841 131.882 89.1841 131.072C89.1841 130.389 89.2961 129.792 89.5201 129.28C89.7441 128.757 90.0534 128.314 90.4481 127.952C90.8427 127.589 91.2961 127.312 91.8081 127.12C92.3094 126.928 92.8534 126.832 93.4401 126.832C93.5894 126.832 93.7441 126.842 93.9041 126.864C94.0641 126.874 94.2027 126.901 94.3201 126.944L94.3201 133.664L92.7201 133.664L92.7201 128.128L93.4721 129.12C92.9814 129.024 92.5441 129.05 92.1601 129.2C91.7761 129.338 91.4721 129.573 91.2481 129.904C91.0241 130.224 90.9121 130.613 90.9121 131.072C90.9121 131.509 91.0241 131.898 91.2481 132.24C91.4614 132.581 91.7814 132.842 92.2081 133.024C92.6241 133.194 93.1307 133.258 93.7281 133.216C94.2614 133.258 94.7361 133.189 95.1521 133.008C95.5574 132.816 95.8721 132.538 96.0961 132.176C96.3201 131.802 96.4321 131.376 96.4321 130.896C96.4321 130.416 96.3307 130.01 96.1281 129.68C95.9254 129.338 95.6534 129.072 95.3121 128.88L96.1441 127.184C96.5601 127.354 96.9281 127.621 97.2481 127.984C97.5681 128.346 97.8187 128.778 98.0001 129.28C98.1814 129.77 98.2721 130.314 98.2721 130.912ZM98.0801 125.243L89.3761 125.243L89.3761 123.275L91.3121 123.275L91.0241 123.435C90.3734 123.232 89.9201 122.917 89.6641 122.491C89.4081 122.053 89.2801 121.531 89.2801 120.923L89.2801 120.411L91.1361 120.411L91.1361 121.163C91.1361 121.76 91.3227 122.24 91.6961 122.603C92.0587 122.965 92.5707 123.147 93.2321 123.147L98.0801 123.147L98.0801 125.243Z" fill="#2A2A2A"/>
<path d="M116.723 250.845C116.723 251.304 116.641 251.735 116.476 252.136C116.305 252.531 116.069 252.879 115.768 253.18C115.461 253.481 115.102 253.716 114.689 253.887C114.27 254.058 113.813 254.144 113.318 254.144C112.822 254.144 112.368 254.058 111.955 253.887C111.537 253.716 111.177 253.481 110.876 253.18C110.57 252.879 110.334 252.531 110.169 252.136C110.004 251.735 109.921 251.304 109.921 250.845C109.921 250.385 110.006 249.957 110.178 249.562C110.343 249.161 110.579 248.81 110.885 248.509C111.186 248.208 111.543 247.973 111.955 247.802C112.368 247.631 112.822 247.545 113.318 247.545C113.813 247.545 114.27 247.631 114.689 247.802C115.102 247.973 115.461 248.208 115.768 248.509C116.069 248.81 116.305 249.161 116.476 249.562C116.641 249.957 116.723 250.385 116.723 250.845ZM116.06 250.845C116.06 250.461 115.989 250.113 115.848 249.801C115.706 249.482 115.509 249.208 115.255 248.978C115.001 248.748 114.709 248.571 114.379 248.447C114.049 248.318 113.695 248.253 113.318 248.253C112.946 248.253 112.595 248.318 112.265 248.447C111.935 248.571 111.643 248.748 111.389 248.978C111.136 249.208 110.938 249.482 110.797 249.801C110.655 250.113 110.584 250.461 110.584 250.845C110.584 251.228 110.655 251.579 110.797 251.897C110.938 252.21 111.136 252.481 111.389 252.711C111.643 252.941 111.935 253.121 112.265 253.251C112.595 253.374 112.946 253.436 113.318 253.436C113.695 253.436 114.049 253.374 114.379 253.251C114.709 253.121 115.001 252.941 115.255 252.711C115.509 252.481 115.706 252.207 115.848 251.888C115.989 251.57 116.06 251.222 116.06 250.845ZM118.386 246.281L111.876 246.281L111.876 245.617L112.937 245.617L112.752 245.723C112.451 245.535 112.212 245.284 112.035 244.972C111.858 244.653 111.77 244.29 111.77 243.884C111.77 243.435 111.879 243.037 112.097 242.689C112.309 242.336 112.601 242.058 112.973 241.858C113.344 241.651 113.769 241.548 114.247 241.548C114.718 241.548 115.143 241.651 115.52 241.858C115.892 242.058 116.187 242.336 116.405 242.689C116.617 243.037 116.723 243.435 116.723 243.884C116.723 244.29 116.632 244.659 116.449 244.989C116.26 245.314 115.995 245.558 115.653 245.723L115.556 245.617L118.386 245.617L118.386 246.281ZM116.06 243.919C116.06 243.601 115.98 243.317 115.821 243.07C115.662 242.816 115.447 242.619 115.175 242.477C114.898 242.33 114.589 242.256 114.247 242.256C113.899 242.256 113.589 242.33 113.318 242.477C113.046 242.619 112.831 242.816 112.672 243.07C112.513 243.317 112.433 243.601 112.433 243.919C112.433 244.237 112.513 244.526 112.672 244.786C112.831 245.039 113.049 245.243 113.327 245.396C113.598 245.544 113.905 245.617 114.247 245.617C114.589 245.617 114.898 245.544 115.175 245.396C115.447 245.243 115.662 245.039 115.821 244.786C115.98 244.526 116.06 244.237 116.06 243.919ZM116.723 238.222C116.723 238.665 116.617 239.066 116.405 239.425C116.187 239.779 115.889 240.059 115.511 240.266C115.134 240.472 114.707 240.575 114.229 240.575C113.751 240.575 113.33 240.475 112.964 240.275C112.592 240.074 112.3 239.803 112.088 239.461C111.876 239.113 111.77 238.724 111.77 238.293C111.77 237.951 111.835 237.647 111.964 237.382C112.088 237.111 112.259 236.881 112.477 236.692C112.69 236.503 112.931 236.359 113.203 236.259C113.468 236.158 113.742 236.108 114.025 236.108C114.084 236.108 114.152 236.111 114.229 236.117C114.3 236.123 114.373 236.132 114.45 236.144L114.45 240.151L113.831 240.151L113.831 236.524L114.096 236.842C113.772 236.789 113.483 236.828 113.229 236.957C112.97 237.081 112.766 237.261 112.619 237.497C112.466 237.733 112.389 237.998 112.389 238.293C112.389 238.588 112.466 238.862 112.619 239.116C112.772 239.363 112.987 239.558 113.265 239.7C113.536 239.841 113.86 239.897 114.238 239.868C114.615 239.897 114.945 239.838 115.228 239.691C115.506 239.537 115.721 239.331 115.874 239.072C116.027 238.806 116.104 238.523 116.104 238.222C116.104 237.874 116.022 237.583 115.856 237.347C115.691 237.111 115.485 236.919 115.237 236.772L115.538 236.206C115.75 236.3 115.948 236.444 116.131 236.639C116.308 236.834 116.452 237.067 116.564 237.338C116.67 237.603 116.723 237.898 116.723 238.222ZM116.617 234.939L111.876 234.939L111.876 234.275L112.654 234.275L112.539 234.364C112.315 234.252 112.138 234.083 112.009 233.859C111.879 233.629 111.814 233.352 111.814 233.028L111.814 232.727L112.477 232.727L112.477 233.143C112.477 233.485 112.584 233.759 112.796 233.966C113.008 234.172 113.309 234.275 113.698 234.275L116.617 234.275L116.617 234.939ZM116.723 230.579C116.723 230.879 116.667 231.148 116.555 231.384C116.437 231.619 116.278 231.805 116.078 231.941C115.877 232.076 115.647 232.144 115.388 232.144C115.14 232.144 114.916 232.091 114.715 231.985C114.509 231.879 114.335 231.714 114.193 231.49C114.052 231.266 113.952 230.98 113.893 230.632L113.583 228.774L114.185 228.774L114.468 230.472C114.527 230.814 114.636 231.062 114.795 231.215C114.954 231.363 115.143 231.437 115.361 231.437C115.573 231.437 115.753 231.354 115.901 231.189C116.048 231.018 116.122 230.8 116.122 230.534C116.122 230.21 116.054 229.927 115.918 229.685C115.777 229.443 115.588 229.255 115.352 229.119C115.116 228.983 114.854 228.916 114.565 228.916L113.362 228.916C113.079 228.916 112.849 229.019 112.672 229.225C112.495 229.432 112.407 229.7 112.407 230.03C112.407 230.319 112.48 230.573 112.628 230.791C112.769 231.009 112.955 231.171 113.185 231.277L112.858 231.879C112.657 231.79 112.474 231.652 112.309 231.463C112.144 231.269 112.014 231.047 111.92 230.8C111.82 230.552 111.77 230.296 111.77 230.03C111.77 229.682 111.838 229.376 111.973 229.11C112.109 228.839 112.298 228.63 112.539 228.482C112.775 228.329 113.049 228.252 113.362 228.252L116.617 228.252L116.617 228.916L115.671 228.916L115.768 228.818C115.945 228.901 116.107 229.031 116.255 229.207C116.396 229.379 116.511 229.582 116.599 229.818C116.682 230.048 116.723 230.301 116.723 230.579ZM116.67 225.161C116.67 225.585 116.546 225.912 116.299 226.142C116.051 226.372 115.697 226.487 115.237 226.487L112.539 226.487L112.539 227.363L111.876 227.363L111.876 227.142C111.876 226.942 111.811 226.782 111.681 226.664C111.546 226.546 111.378 226.487 111.177 226.487L110.779 226.487L110.779 225.824L111.876 225.824L111.876 224.78L112.539 224.78L112.539 225.824L115.237 225.824C115.396 225.824 115.538 225.8 115.662 225.753C115.78 225.706 115.874 225.626 115.945 225.514C116.016 225.396 116.051 225.24 116.051 225.046C116.051 224.998 116.048 224.942 116.042 224.878C116.036 224.813 116.03 224.757 116.025 224.709L116.617 224.709C116.635 224.78 116.647 224.86 116.653 224.948C116.664 225.037 116.67 225.108 116.67 225.161ZM116.617 223.545L111.876 223.545L111.876 222.881L116.617 222.881L116.617 223.545ZM111 223.545L110.027 223.545L110.027 222.881L111 222.881L111 223.545ZM116.723 219.303C116.723 219.751 116.617 220.158 116.405 220.524C116.187 220.889 115.892 221.181 115.52 221.399C115.143 221.612 114.715 221.718 114.238 221.718C113.766 221.718 113.344 221.612 112.973 221.399C112.601 221.187 112.309 220.901 112.097 220.541C111.879 220.176 111.77 219.763 111.77 219.303C111.77 218.843 111.876 218.433 112.088 218.073C112.3 217.708 112.592 217.422 112.964 217.215C113.335 217.003 113.76 216.897 114.238 216.897C114.721 216.897 115.152 217.006 115.529 217.224C115.901 217.442 116.193 217.734 116.405 218.1C116.617 218.46 116.723 218.861 116.723 219.303ZM116.06 219.303C116.06 218.984 115.98 218.698 115.821 218.445C115.662 218.185 115.444 217.982 115.166 217.834C114.889 217.681 114.58 217.604 114.238 217.604C113.896 217.604 113.589 217.681 113.318 217.834C113.046 217.982 112.831 218.185 112.672 218.445C112.513 218.698 112.433 218.984 112.433 219.303C112.433 219.621 112.513 219.91 112.672 220.17C112.831 220.423 113.046 220.627 113.318 220.78C113.589 220.933 113.896 221.01 114.238 221.01C114.58 221.01 114.889 220.933 115.166 220.78C115.444 220.627 115.662 220.423 115.821 220.17C115.98 219.91 116.06 219.621 116.06 219.303ZM116.617 215.727L111.876 215.727L111.876 215.063L112.796 215.063L112.76 215.214C112.454 215.096 112.212 214.904 112.035 214.639C111.858 214.367 111.77 214.055 111.77 213.701C111.77 213.365 111.846 213.064 112 212.799C112.153 212.528 112.365 212.315 112.637 212.162C112.902 212.003 113.203 211.923 113.539 211.923L116.617 211.923L116.617 212.587L113.795 212.587C113.506 212.587 113.262 212.64 113.061 212.746C112.861 212.846 112.707 212.99 112.601 213.179C112.489 213.362 112.433 213.574 112.433 213.816C112.433 214.058 112.489 214.273 112.601 214.462C112.707 214.651 112.864 214.798 113.07 214.904C113.271 215.01 113.512 215.063 113.795 215.063L116.617 215.063L116.617 215.727ZM116.723 209.011C116.723 209.465 116.608 209.863 116.378 210.205C116.148 210.547 115.836 210.795 115.441 210.948L115.175 210.391C115.464 210.255 115.694 210.066 115.865 209.825C116.036 209.577 116.122 209.306 116.122 209.011C116.122 208.728 116.054 208.489 115.918 208.294C115.777 208.1 115.594 208.002 115.37 208.002C115.205 208.002 115.075 208.049 114.981 208.144C114.88 208.238 114.804 208.347 114.751 208.471C114.698 208.595 114.659 208.704 114.636 208.798L114.441 209.48C114.317 209.916 114.143 210.231 113.919 210.426C113.695 210.621 113.436 210.718 113.141 210.718C112.864 210.718 112.622 210.647 112.415 210.506C112.209 210.364 112.05 210.172 111.938 209.931C111.826 209.689 111.77 209.421 111.77 209.126C111.77 208.725 111.876 208.362 112.088 208.038C112.295 207.707 112.584 207.475 112.955 207.339L113.22 207.905C112.955 208.023 112.749 208.194 112.601 208.418C112.448 208.636 112.371 208.881 112.371 209.152C112.371 209.418 112.439 209.63 112.575 209.789C112.71 209.948 112.881 210.028 113.088 210.028C113.247 210.028 113.374 209.987 113.468 209.904C113.562 209.822 113.633 209.727 113.68 209.621C113.728 209.509 113.763 209.412 113.787 209.329L114.017 208.542C114.129 208.159 114.303 207.861 114.538 207.648C114.774 207.43 115.051 207.321 115.37 207.321C115.629 207.321 115.862 207.395 116.069 207.542C116.275 207.684 116.437 207.881 116.555 208.135C116.667 208.389 116.723 208.68 116.723 209.011Z" fill="#2A2A2A"/>
<rect x="30.2168" y="255.782" width="104.382" height="33.9086" rx="3.68571" transform="rotate(-90 30.2168 255.782)" stroke="#2A2A2A" stroke-width="0.681531"/>
<path d="M50.5371 223.767L47.4184 223.767L47.4184 220.365L46.786 220.365L46.786 223.767L43.8636 223.767L43.8636 219.656L43.2311 219.656L43.2311 224.487L50.5371 224.487L50.5371 223.767ZM50.6462 217.304C50.6462 216.225 49.9156 215.636 49.0432 215.451L50.5371 215.451L50.5371 214.742L45.3029 214.742L45.3029 215.451L48.3235 215.451C49.2395 215.451 50.0355 215.887 50.0355 217.021C50.0355 217.915 49.5121 218.308 48.6724 218.308L45.3029 218.308L45.3029 219.016L48.8251 219.016C50.0355 219.016 50.6462 218.329 50.6462 217.304ZM50.5371 212.492L43.2311 212.492L43.2311 213.212L50.5371 213.212L50.5371 212.492ZM50.5371 210.245L43.2311 210.245L43.2311 210.965L50.5371 210.965L50.5371 210.245ZM50.6571 207.006C50.6571 206.33 50.3408 205.817 49.9592 205.588L49.2613 205.839C49.632 206.014 49.9701 206.395 49.9701 206.864C49.9701 207.322 49.7629 207.715 49.0105 207.715L45.8591 207.715L45.8591 205.959L45.3029 205.959L45.3029 207.715L44.0162 207.715L44.5505 208.424L45.3029 208.424L45.3029 209.274L45.8591 209.274L45.8591 208.424L49.2068 208.424C50.1555 208.424 50.6571 207.802 50.6571 207.006ZM44.3652 203.898L43.2311 203.898L43.2311 204.618L44.3652 204.618L44.3652 203.898ZM50.5371 203.898L45.3029 203.898L45.3029 204.618L50.5371 204.618L50.5371 203.898ZM50.5371 201.652L47.5057 201.652C46.6006 201.652 45.7937 201.204 45.7936 200.278C45.7936 199.46 46.2407 199.056 47.1567 199.056L50.5371 199.056L50.5371 198.348L47.5057 198.348C46.6006 198.348 45.7936 197.9 45.7936 196.963C45.7936 196.156 46.2407 195.752 47.1567 195.752L50.5371 195.752L50.5371 195.033L46.9931 195.033C45.7936 195.033 45.1939 195.6 45.1939 196.603C45.1939 197.584 45.9245 198.184 46.786 198.358C45.7282 198.413 45.1939 198.969 45.1939 199.918C45.1939 200.888 45.9027 201.466 46.7642 201.652L45.3029 201.652L45.3029 202.371L50.5371 202.371L50.5371 201.652ZM50.6462 191.383C50.6462 190.271 50.1118 189.573 49.4685 189.203L48.956 189.639C49.4685 189.868 50.0464 190.326 50.0464 191.383C50.0464 192.419 49.3921 193.128 48.0836 193.172L48.0836 189.181C47.9964 189.17 47.8655 189.148 47.7347 189.148C46.1535 189.148 45.1939 190.042 45.1939 191.471C45.1939 192.888 46.2189 193.859 47.92 193.859C49.6538 193.859 50.6462 192.845 50.6462 191.383ZM45.7827 191.471C45.7827 190.511 46.3825 189.868 47.5602 189.802L47.5602 193.161C46.3825 193.063 45.7827 192.43 45.7827 191.471Z" fill="#2A2A2A"/>
<rect x="30.2168" y="134.381" width="104.382" height="33.9086" rx="3.68571" transform="rotate(-90 30.2168 134.381)" stroke="#2A2A2A" stroke-width="0.681531"/>
<path d="M50.6462 95.6427C50.6462 93.5709 48.9996 92.1751 46.8732 92.1751C44.7686 92.1751 43.122 93.5709 43.122 95.6427C43.122 97.7146 44.7686 99.1104 46.8732 99.1104C48.9996 99.1104 50.6462 97.7146 50.6462 95.6427ZM49.9701 95.6318C49.9701 97.3656 48.6615 98.358 46.8732 98.358C45.1067 98.358 43.7872 97.3656 43.7872 95.6318C43.7872 93.9089 45.1067 92.9166 46.8732 92.9166C48.6615 92.9166 49.9701 93.9089 49.9701 95.6318ZM50.5371 90.0794L47.5057 90.0794C46.6006 90.0794 45.7937 89.6323 45.7937 88.531C45.7937 87.6259 46.3171 87.2333 47.1676 87.2333L50.5371 87.2333L50.5371 86.5136L47.0041 86.5136C45.8046 86.5136 45.1939 87.2115 45.1939 88.2474C45.1939 89.2943 45.9136 89.894 46.7642 90.0794L45.3029 90.0794L45.3029 90.7991L50.5371 90.7991L50.5371 90.0794ZM50.6462 83.1807C50.6462 82.2102 50.1991 81.3596 49.1959 81.3596C48.4543 81.3596 48.0073 81.7958 47.7347 82.8863L47.5602 83.5841C47.3748 84.3475 47.1785 84.74 46.6333 84.74C46.0881 84.74 45.7937 84.2929 45.7937 83.6605C45.7937 82.8426 46.1862 82.2974 46.895 82.0575L46.4915 81.5123C45.75 81.774 45.1939 82.5046 45.1939 83.6169C45.1939 84.6964 45.7609 85.4161 46.666 85.4161C47.6038 85.4161 47.9527 84.6419 48.1381 83.8895L48.3017 83.1807C48.4653 82.4719 48.6615 82.003 49.2068 82.003C49.752 82.003 50.0355 82.461 50.0355 83.1589C50.0355 84.2166 49.4467 84.8709 48.7379 85.0344L49.1413 85.5688C50.1664 85.2525 50.6462 84.2493 50.6462 83.1807ZM44.3652 79.4305L43.2311 79.4305L43.2311 80.1502L44.3652 80.1502L44.3652 79.4305ZM50.5371 79.4305L45.3029 79.4305L45.3029 80.1502L50.5371 80.1502L50.5371 79.4305ZM50.6571 76.1912C50.6571 75.5152 50.3408 75.0026 49.9592 74.7736L49.2613 75.0244C49.632 75.1989 49.9701 75.5806 49.9701 76.0495C49.9701 76.5075 49.7629 76.9 49.0105 76.9L45.8591 76.9L45.8591 75.1444L45.3029 75.1444L45.3029 76.9L44.0162 76.9L44.5505 77.6088L45.3029 77.6088L45.3029 78.4594L45.8591 78.4594L45.8591 77.6088L49.2068 77.6088C50.1555 77.6088 50.6571 76.9873 50.6571 76.1912ZM50.6462 72.0163C50.6462 70.904 50.1118 70.2061 49.4685 69.8354L48.956 70.2715C49.4685 70.5005 50.0464 70.9585 50.0464 72.0163C50.0464 73.0522 49.3921 73.761 48.0836 73.8046L48.0836 69.8135C47.9964 69.8026 47.8655 69.7808 47.7347 69.7808C46.1535 69.7808 45.1939 70.675 45.1939 72.1035C45.1939 73.5211 46.2189 74.4916 47.92 74.4916C49.6538 74.4916 50.6462 73.4775 50.6462 72.0163ZM45.7827 72.1035C45.7827 71.1439 46.3825 70.5005 47.5602 70.4351L47.5602 73.7937C46.3825 73.6955 45.7827 73.0631 45.7827 72.1035Z" fill="#2A2A2A"/>
<path d="M156.686 75.4204L155.595 75.4204L155.595 78.2228L155.704 79.3133L155.072 78.4627L154.178 77.4486C153.534 76.6744 152.52 75.6276 151.342 75.6276C150.143 75.6276 149.27 76.3473 149.27 77.8194C149.27 79.4987 150.339 80.6873 151.8 80.6545L152.542 79.6186C151.135 79.684 150.448 79.008 150.448 77.9284C150.448 77.2196 150.895 76.9143 151.419 76.9143C152.106 76.9143 152.662 77.4159 153.349 78.1247L155.748 80.6436L156.686 80.6436L156.686 75.4204ZM156.686 69.9107L155.039 69.9107L155.039 68.6785L153.97 68.6785L153.97 69.9107L149.38 69.9107L149.38 71.2083L154.09 74.785L155.039 74.785L155.039 71.132L156.686 71.132L156.686 69.9107ZM153.97 73.4329L150.972 71.132L153.97 71.132L153.97 73.4329ZM156.686 64.7962L154.843 64.0983L154.843 61.0123L156.686 60.3144L156.686 58.9623L149.38 61.8192L149.38 63.2368L156.686 66.0938L156.686 64.7962ZM151.8 62.9424L150.481 62.5498L151.8 62.1573L153.774 61.4158L153.774 63.6948L151.8 62.9424ZM158.714 57.0424L155.268 57.0424C156.086 56.8679 156.795 56.4208 156.795 55.3631C156.795 54.0545 155.737 53.2258 154.025 53.2258C152.313 53.2258 151.255 54.0545 151.255 55.3413C151.255 56.399 151.964 56.8679 152.793 57.0424L151.375 57.0424L151.375 58.2637L158.714 58.2637L158.714 57.0424ZM154.352 57.0424L153.698 57.0424C152.825 57.0424 152.247 56.6825 152.247 55.8211C152.247 55.0578 152.825 54.4798 154.025 54.4798C155.224 54.4798 155.802 55.0578 155.802 55.8211C155.802 56.6825 155.224 57.0424 154.352 57.0424ZM158.714 50.9938L155.268 50.9938C156.086 50.8193 156.795 50.3722 156.795 49.3145C156.795 48.006 155.737 47.1772 154.025 47.1772C152.313 47.1772 151.255 48.006 151.255 49.2927C151.255 50.3504 151.964 50.8193 152.793 50.9938L151.375 50.9938L151.375 52.2151L158.714 52.2151L158.714 50.9938ZM154.352 50.9938L153.698 50.9938C152.825 50.9938 152.247 50.6339 152.247 49.7725C152.247 49.0092 152.825 48.4312 154.025 48.4312C155.224 48.4312 155.802 49.0092 155.802 49.7725C155.802 50.6339 155.224 50.9938 154.352 50.9938ZM156.686 44.9452L149.38 44.9452L149.38 46.1665L156.686 46.1665L156.686 44.9452ZM150.623 42.432L149.38 42.432L149.38 43.6534L150.623 43.6534L150.623 42.432ZM156.686 42.432L151.375 42.432L151.375 43.6534L156.686 43.6534L156.686 42.432ZM156.795 38.7848C156.795 37.6071 156.26 36.8875 155.65 36.484L154.864 37.2364C155.312 37.4327 155.791 37.847 155.791 38.7739C155.791 39.6136 155.279 40.1697 154.33 40.2351L154.33 36.4404C154.221 36.4186 153.992 36.3967 153.796 36.3967C152.324 36.3967 151.266 37.28 151.266 38.8721C151.266 40.366 152.367 41.4019 154.036 41.4019C155.693 41.4019 156.795 40.366 156.795 38.7848ZM152.247 38.8721C152.247 38.0651 152.705 37.5853 153.545 37.4981L153.545 40.2242C152.684 40.1261 152.247 39.6245 152.247 38.8721ZM156.805 33.3765C156.805 32.3188 156.097 31.8717 155.279 31.6973L156.686 31.6973L156.686 30.4759L149.38 30.4759L149.38 31.6973L152.804 31.6973C151.975 31.8717 151.266 32.3406 151.266 33.3984C151.266 34.6851 152.324 35.5138 154.036 35.5138C155.748 35.5138 156.805 34.6851 156.805 33.3765ZM154.036 34.2598C152.847 34.2598 152.258 33.6819 152.258 32.9186C152.258 32.0571 152.836 31.6973 153.709 31.6973L154.374 31.6973C155.246 31.6973 155.813 32.0571 155.813 32.9076C155.813 33.6819 155.235 34.2598 154.036 34.2598Z" fill="white"/>
<path d="M150.049 89.5577C150.042 89.5982 150.042 89.6455 150.049 89.686C150.015 90.6185 149.252 91.3618 148.306 91.3618C147.34 91.3618 146.562 90.5847 146.562 89.6185C146.562 88.6522 147.346 87.8751 148.306 87.8751C149.252 87.8819 150.015 88.6252 150.049 89.5577Z" stroke="white" stroke-width="1.0223" stroke-linecap="round" stroke-linejoin="round"/>
<path d="M154.968 90.2536C155.123 89.3279 154.961 88.3076 154.482 87.5913C153.846 86.6385 152.806 86.6385 152.171 87.5913C151.691 88.3143 151.529 89.3482 151.691 90.2739" stroke="white" stroke-width="1.0223" stroke-linecap="round" stroke-linejoin="round"/>
<path d="M150.049 97.6868C150.042 97.6463 150.042 97.599 150.049 97.5584C150.015 96.626 149.252 95.8827 148.306 95.8827C147.34 95.8827 146.562 96.6597 146.562 97.626C146.562 98.5923 147.346 99.3694 148.306 99.3694C149.252 99.3626 150.015 98.6193 150.049 97.6868Z" stroke="white" stroke-width="1.0223" stroke-linecap="round" stroke-linejoin="round"/>
<path d="M154.968 96.9909C155.123 97.9166 154.961 98.937 154.482 99.6532C153.846 100.606 152.806 100.606 152.171 99.6532C151.691 98.9302 151.529 97.8964 151.691 96.9706" stroke="white" stroke-width="1.0223" stroke-linecap="round" stroke-linejoin="round"/>
<path d="M155.097 93.6122C155.09 93.6527 155.09 93.7 155.097 93.7405C155.063 94.673 154.3 95.4163 153.354 95.4163C152.387 95.4163 151.61 94.6393 151.61 93.673C151.61 92.7067 152.394 91.9296 153.354 91.9296C154.3 91.9364 155.07 92.6797 155.097 93.6122Z" stroke="white" stroke-width="1.0223" stroke-linecap="round" stroke-linejoin="round"/>
<path d="M157.226 95.5786C157.861 96.5313 158.901 96.5313 159.537 95.5786C160.26 94.4974 160.26 92.727 159.537 91.6459C158.901 90.6931 157.861 90.6931 157.226 91.6459C156.509 92.7203 156.509 94.4974 157.226 95.5786Z" stroke="white" stroke-width="1.0223" stroke-linecap="round" stroke-linejoin="round"/>
</g>
</g>
<defs>
<filter id="filter0_d_267_343" x="0.3" y="0.3" width="200.629" height="285.4" filterUnits="userSpaceOnUse" color-interpolation-filters="sRGB">
<feFlood flood-opacity="0" result="BackgroundImageFix"/>
<feColorMatrix in="SourceAlpha" type="matrix" values="0 0 0 0 0 0 0 0 0 0 0 0 0 0 0 0 0 0 127 0" result="hardAlpha"/>
<feOffset/>
<feGaussianBlur stdDeviation="6.85"/>
<feComposite in2="hardAlpha" operator="out"/>
<feColorMatrix type="matrix" values="0 0 0 0 0 0 0 0 0 0 0 0 0 0 0 0 0 0 0.1 0"/>
<feBlend mode="normal" in2="BackgroundImageFix" result="effect1_dropShadow_267_343"/>
<feBlend mode="normal" in="SourceGraphic" in2="effect1_dropShadow_267_343" result="shape"/>
</filter>
<filter id="filter1_f_267_343" x="-5.5" y="-122.5" width="343" height="343" filterUnits="userSpaceOnUse" color-interpolation-filters="sRGB">
<feFlood flood-opacity="0" result="BackgroundImageFix"/>
<feBlend mode="normal" in="SourceGraphic" in2="BackgroundImageFix" result="shape"/>
<feGaussianBlur stdDeviation="53.75" result="effect1_foregroundBlur_267_343"/>
</filter>
<clipPath id="clip0_267_343">
<rect x="14" y="272" width="258" height="173.229" rx="10.32" transform="rotate(-90 14 272)" fill="white"/>
</clipPath>
</defs>
</svg>
