<svg width="201" height="286" viewBox="0 0 201 286" fill="none" xmlns="http://www.w3.org/2000/svg">
<g filter="url(#filter0_d_267_277)">
<g clip-path="url(#clip0_267_277)">
<rect x="187.229" y="14" width="258.737" height="173.229" transform="rotate(90 187.229 14)" fill="white"/>
<g filter="url(#filter1_f_267_277)">
<rect width="100" height="100" transform="translate(72.2285 184) rotate(90)" fill="#0A369D"/>
</g>
<rect x="64.8633" y="30.2178" width="67.8171" height="33.9086" rx="3.68571" transform="rotate(90 64.8633 30.2178)" fill="#2A2A2A"/>
<path d="M45.0176 46.7785L53.1414 49.581L53.1414 51.5002L45.0176 54.3026L45.0176 52.6888L46.7623 52.1108L46.7623 48.9703L45.0176 48.3815L45.0176 46.7785ZM48.0708 49.3956L48.0708 51.6856L52.1164 50.3334L52.1164 50.7478L48.0708 49.3956ZM42.8367 55.0868L50.9496 55.0868L50.9496 56.4281L49.7719 56.4281L50.0664 56.2972C50.3862 56.5008 50.6334 56.777 50.8079 57.126C50.9896 57.4749 51.0805 57.8784 51.0805 58.3364C51.0805 58.8961 50.9424 59.4014 50.6661 59.8521C50.3899 60.3028 50.0191 60.659 49.5538 60.9207C49.0886 61.1897 48.5652 61.3242 47.9836 61.3242C47.4093 61.3242 46.8859 61.1933 46.4134 60.9316C45.9408 60.6699 45.5664 60.3137 45.2902 59.863C45.0212 59.4123 44.8867 58.8998 44.8867 58.3255C44.8867 57.8966 44.9703 57.5004 45.1375 57.1369C45.312 56.7807 45.5592 56.4971 45.879 56.2863L46.1626 56.5153L42.8367 56.5153L42.8367 55.0868ZM46.1953 58.1619C46.1953 58.489 46.2716 58.7798 46.4243 59.0343C46.5769 59.2887 46.7877 59.485 47.0567 59.6231C47.3257 59.7685 47.6347 59.8412 47.9836 59.8412C48.3325 59.8412 48.6379 59.7685 48.8996 59.6231C49.1686 59.485 49.3794 59.2887 49.532 59.0343C49.692 58.7798 49.7719 58.489 49.7719 58.1619C49.7719 57.8493 49.6956 57.5658 49.5429 57.3113C49.3903 57.0642 49.1758 56.8679 48.8996 56.7225C48.6306 56.5844 48.3253 56.5153 47.9836 56.5153C47.6347 56.5153 47.3257 56.5844 47.0567 56.7225C46.7877 56.8679 46.5769 57.0642 46.4243 57.3113C46.2716 57.5658 46.1953 57.8493 46.1953 58.1619ZM42.8367 62.4133L50.9496 62.4133L50.9496 63.7545L49.7719 63.7545L50.0664 63.6237C50.3862 63.8272 50.6334 64.1035 50.8079 64.4524C50.9896 64.8014 51.0805 65.2048 51.0805 65.6628C51.0805 66.2226 50.9424 66.7278 50.6661 67.1786C50.3899 67.6293 50.0191 67.9855 49.5538 68.2472C49.0886 68.5162 48.5652 68.6507 47.9836 68.6507C47.4093 68.6507 46.8859 68.5198 46.4134 68.2581C45.9408 67.9964 45.5664 67.6402 45.2902 67.1895C45.0212 66.7387 44.8867 66.2262 44.8867 65.6519C44.8867 65.223 44.9703 64.8268 45.1375 64.4633C45.312 64.1071 45.5592 63.8236 45.879 63.6128L46.1625 63.8418L42.8367 63.8418L42.8367 62.4133ZM46.1953 65.4884C46.1953 65.8155 46.2716 66.1063 46.4243 66.3607C46.5769 66.6152 46.7877 66.8114 47.0567 66.9496C47.3257 67.095 47.6347 67.1676 47.9836 67.1676C48.3325 67.1676 48.6379 67.095 48.8996 66.9496C49.1686 66.8114 49.3794 66.6152 49.532 66.3607C49.692 66.1063 49.7719 65.8155 49.7719 65.4884C49.7719 65.1758 49.6956 64.8922 49.5429 64.6378C49.3903 64.3906 49.1758 64.1944 48.8996 64.049C48.6306 63.9108 48.3253 63.8418 47.9836 63.8418C47.6347 63.8418 47.3257 63.9108 47.0567 64.049C46.7877 64.1944 46.5769 64.3906 46.4243 64.6378C46.2716 64.8922 46.1953 65.1758 46.1953 65.4884ZM45.0176 69.7397L53.2723 69.7397L53.2723 71.1682L45.0176 71.1682L45.0176 69.7397ZM42.6186 73.2069C42.6186 73.0469 42.6331 72.8906 42.6622 72.738C42.684 72.5853 42.7276 72.4472 42.7931 72.3236L43.9816 72.3236C43.9598 72.4181 43.938 72.5308 43.9162 72.6616C43.8944 72.7998 43.8835 72.927 43.8835 73.0433C43.8835 73.3704 43.9598 73.6067 44.1125 73.7521C44.2579 73.9048 44.4542 74.0392 44.7013 74.1556L45.6173 74.5481L44.4178 74.5263L50.9496 71.9419L50.9496 73.4795L46.1298 75.2896L46.1298 74.7444L50.9496 76.5436L50.9496 78.0921L44.4178 75.5077C44.0398 75.3551 43.7163 75.1697 43.4473 74.9516C43.1784 74.7335 42.9748 74.4791 42.8367 74.1883C42.6913 73.9048 42.6186 73.5776 42.6186 73.2069Z" fill="white"/>
<path d="M102.952 35.4949C102.952 34.5571 103.148 33.7229 103.541 32.9923C103.934 32.2726 104.473 31.7055 105.16 31.2912C105.847 30.8768 106.627 30.6696 107.499 30.6696L115.334 30.6696L115.334 32.8941L107.614 32.8941C107.112 32.8941 106.66 33.0032 106.256 33.2213C105.853 33.4503 105.537 33.761 105.308 34.1536C105.089 34.5462 104.98 34.9932 104.98 35.4949C104.98 36.0074 105.089 36.4545 105.308 36.8361C105.537 37.2287 105.853 37.534 106.256 37.7521C106.66 37.9811 107.112 38.0956 107.614 38.0956L115.334 38.0956L115.334 40.3201L107.499 40.3201C106.627 40.3201 105.847 40.1129 105.16 39.6985C104.473 39.2842 103.934 38.7117 103.541 37.9811C103.148 37.2614 102.952 36.4326 102.952 35.4949ZM103.148 42.5409L115.334 42.5409L115.334 44.7654L103.148 44.7654L103.148 42.5409ZM101.186 46.1933L114.68 51.6238L114.68 53.9628L101.186 48.5323L101.186 46.1933ZM102.952 60.0779C102.952 59.1401 103.148 58.3059 103.541 57.5753C103.934 56.8556 104.473 56.2886 105.16 55.8742C105.847 55.4598 106.627 55.2527 107.499 55.2527L115.334 55.2527L115.334 57.4772L107.614 57.4772C107.112 57.4772 106.66 57.5862 106.256 57.8043C105.853 58.0333 105.537 58.3441 105.308 58.7366C105.089 59.1292 104.98 59.5763 104.98 60.0779C104.98 60.5904 105.089 61.0375 105.308 61.4192C105.537 61.8117 105.853 62.117 106.256 62.3351C106.66 62.5641 107.112 62.6786 107.614 62.6786L115.334 62.6786L115.334 64.9031L107.499 64.9031C106.627 64.9031 105.847 64.696 105.16 64.2816C104.473 63.8672 103.934 63.2947 103.541 62.5641C103.148 61.8444 102.952 61.0157 102.952 60.0779ZM103.148 66.1262L109.282 70.1172L115.334 66.1589L115.334 68.7106L110.378 71.9492L110.378 70.7715L115.334 73.9938L115.334 76.5454L109.282 72.6035L103.148 76.5782L103.148 74.0265L108.17 70.7715L108.17 71.9492L103.148 68.6778L103.148 66.1262ZM103.148 80.8451L115.334 80.8451L115.334 84.8198C115.334 86.1065 115.073 87.2242 114.549 88.1729C114.037 89.1325 113.322 89.874 112.406 90.3974C111.501 90.9209 110.449 91.1826 109.25 91.1826C108.061 91.1826 107.003 90.9209 106.076 90.3974C105.16 89.874 104.441 89.1325 103.917 88.1729C103.405 87.2242 103.148 86.1065 103.148 84.8198L103.148 80.8451ZM105.111 83.0696L105.111 84.8689C105.111 85.6976 105.28 86.4118 105.618 87.0116C105.967 87.6222 106.447 88.0966 107.058 88.4346C107.679 88.7727 108.41 88.9417 109.25 88.9417C110.1 88.9417 110.831 88.7727 111.441 88.4346C112.052 88.0966 112.526 87.6222 112.864 87.0116C113.202 86.4118 113.371 85.6976 113.371 84.8689L113.371 83.0696L105.111 83.0696ZM102.952 96.993C102.952 96.0771 103.159 95.2756 103.574 94.5886C103.988 93.9016 104.55 93.3673 105.258 92.9856C105.967 92.604 106.752 92.4132 107.614 92.4132C108.508 92.4132 109.299 92.604 109.986 92.9856C110.683 93.3782 111.234 93.9071 111.638 94.5722C112.041 95.2483 112.243 96.0007 112.243 96.8295C112.243 97.5274 112.128 98.138 111.899 98.6614C111.67 99.1958 111.354 99.6483 110.951 100.019C110.547 100.39 110.084 100.673 109.56 100.87C109.048 101.066 108.492 101.164 107.892 101.164C107.739 101.164 107.581 101.153 107.418 101.131C107.254 101.12 107.112 101.093 106.992 101.05L106.992 94.1797L108.628 94.1797L108.628 99.8391L107.859 98.825C108.361 98.9231 108.808 98.8959 109.2 98.7432C109.593 98.6015 109.904 98.3616 110.133 98.0235C110.362 97.6964 110.476 97.2984 110.476 96.8295C110.476 96.3824 110.362 95.9844 110.133 95.6354C109.915 95.2865 109.588 95.0193 109.151 94.834C108.726 94.6595 108.208 94.5941 107.597 94.6377C107.052 94.5941 106.567 94.6649 106.142 94.8503C105.727 95.0466 105.406 95.3301 105.177 95.7009C104.948 96.0825 104.833 96.5187 104.833 97.0094C104.833 97.5001 104.937 97.9145 105.144 98.2525C105.351 98.6015 105.629 98.8741 105.978 99.0704L105.128 100.804C104.702 100.63 104.326 100.357 103.999 99.9863C103.672 99.6156 103.416 99.1739 103.23 98.6614C103.045 98.1598 102.952 97.6037 102.952 96.993ZM102.952 106.174C102.952 105.225 103.176 104.397 103.623 103.688C104.081 102.99 104.697 102.51 105.471 102.249L106.24 103.852C105.738 104.081 105.346 104.397 105.062 104.8C104.779 105.215 104.637 105.673 104.637 106.174C104.637 106.567 104.724 106.878 104.899 107.107C105.073 107.335 105.302 107.45 105.586 107.45C105.76 107.45 105.902 107.401 106.011 107.303C106.131 107.216 106.229 107.09 106.305 106.927C106.393 106.774 106.463 106.605 106.518 106.42L106.927 104.964C107.145 104.211 107.478 103.639 107.925 103.246C108.372 102.865 108.901 102.674 109.511 102.674C110.056 102.674 110.531 102.81 110.934 103.083C111.349 103.366 111.67 103.753 111.899 104.244C112.128 104.746 112.243 105.318 112.243 105.962C112.243 106.801 112.041 107.543 111.638 108.186C111.234 108.829 110.667 109.287 109.936 109.56L109.168 107.924C109.571 107.772 109.893 107.515 110.133 107.156C110.373 106.796 110.493 106.392 110.493 105.945C110.493 105.585 110.411 105.302 110.247 105.095C110.084 104.887 109.871 104.784 109.609 104.784C109.446 104.784 109.304 104.827 109.184 104.915C109.064 105.002 108.966 105.122 108.89 105.275C108.813 105.438 108.742 105.623 108.677 105.831L108.252 107.254C108.034 107.984 107.707 108.546 107.27 108.938C106.834 109.342 106.3 109.544 105.667 109.544C105.133 109.544 104.659 109.402 104.244 109.118C103.841 108.835 103.525 108.442 103.296 107.941C103.067 107.439 102.952 106.85 102.952 106.174ZM103.148 111.19L112.047 111.19L112.047 113.333L103.148 113.333L103.148 111.19ZM113.044 111.19L115.334 111.19L115.334 113.333L113.044 113.333L113.044 111.19ZM99.5499 119.63C99.5499 118.964 99.659 118.348 99.8771 117.781C100.095 117.214 100.4 116.724 100.793 116.309C101.175 115.906 101.627 115.611 102.151 115.426L102.903 117.421C102.489 117.552 102.156 117.809 101.905 118.19C101.644 118.583 101.513 119.063 101.513 119.63C101.513 120.066 101.595 120.447 101.758 120.775C101.922 121.113 102.162 121.374 102.478 121.56C102.783 121.745 103.154 121.838 103.59 121.838L105.618 121.838L105.128 122.247C104.593 121.941 104.19 121.532 103.917 121.02C103.645 120.507 103.508 119.924 103.508 119.27C103.508 118.441 103.699 117.7 104.081 117.045C104.462 116.391 104.986 115.878 105.651 115.508C106.316 115.137 107.063 114.952 107.892 114.952C108.732 114.952 109.478 115.137 110.133 115.508C110.787 115.878 111.3 116.386 111.67 117.029C112.052 117.672 112.243 118.403 112.243 119.221C112.243 119.886 112.101 120.469 111.818 120.971C111.545 121.483 111.147 121.909 110.623 122.247L110.084 121.952L112.047 121.952L112.047 123.981L103.59 123.981C102.816 123.981 102.123 123.79 101.513 123.408C100.902 123.037 100.422 122.525 100.073 121.871C99.7244 121.227 99.5499 120.48 99.5499 119.63ZM105.487 119.531C105.487 119.989 105.586 120.387 105.782 120.726C105.989 121.074 106.273 121.347 106.632 121.543C106.992 121.74 107.407 121.838 107.876 121.838C108.334 121.838 108.742 121.734 109.102 121.527C109.473 121.331 109.762 121.058 109.969 120.709C110.176 120.371 110.28 119.979 110.28 119.531C110.28 119.084 110.176 118.681 109.969 118.321C109.762 117.961 109.473 117.678 109.102 117.471C108.742 117.274 108.334 117.176 107.876 117.176C107.418 117.176 107.009 117.274 106.649 117.471C106.289 117.678 106.005 117.956 105.798 118.305C105.591 118.665 105.487 119.074 105.487 119.531ZM103.148 125.982L112.047 125.982L112.047 127.994L110.296 127.994L110.607 127.83C111.141 128.037 111.545 128.375 111.818 128.844C112.101 129.324 112.243 129.88 112.243 130.512C112.243 131.167 112.101 131.745 111.818 132.246C111.534 132.759 111.136 133.157 110.623 133.44C110.122 133.724 109.538 133.866 108.873 133.866L103.148 133.866L103.148 131.723L108.366 131.723C108.759 131.723 109.097 131.647 109.38 131.494C109.664 131.341 109.882 131.129 110.035 130.856C110.198 130.594 110.28 130.284 110.28 129.924C110.28 129.575 110.198 129.264 110.035 128.991C109.882 128.719 109.664 128.506 109.38 128.353C109.097 128.201 108.759 128.124 108.366 128.124L103.148 128.124L103.148 125.982ZM102.952 139.898C102.952 138.982 103.159 138.18 103.574 137.493C103.988 136.806 104.55 136.272 105.258 135.89C105.967 135.509 106.752 135.318 107.614 135.318C108.508 135.318 109.299 135.509 109.986 135.89C110.683 136.283 111.234 136.812 111.638 137.477C112.041 138.153 112.243 138.905 112.243 139.734C112.243 140.432 112.128 141.043 111.899 141.566C111.67 142.1 111.354 142.553 110.951 142.924C110.547 143.294 110.084 143.578 109.56 143.774C109.048 143.97 108.492 144.069 107.892 144.069C107.739 144.069 107.581 144.058 107.418 144.036C107.254 144.025 107.112 143.998 106.992 143.954L106.992 137.084L108.628 137.084L108.628 142.744L107.859 141.73C108.361 141.828 108.808 141.8 109.2 141.648C109.593 141.506 109.904 141.266 110.133 140.928C110.362 140.601 110.476 140.203 110.476 139.734C110.476 139.287 110.362 138.889 110.133 138.54C109.915 138.191 109.588 137.924 109.151 137.738C108.726 137.564 108.208 137.499 107.597 137.542C107.052 137.499 106.567 137.569 106.142 137.755C105.727 137.951 105.406 138.235 105.177 138.605C104.948 138.987 104.833 139.423 104.833 139.914C104.833 140.405 104.937 140.819 105.144 141.157C105.351 141.506 105.629 141.779 105.978 141.975L105.128 143.709C104.702 143.534 104.326 143.262 103.999 142.891C103.672 142.52 103.416 142.078 103.23 141.566C103.045 141.064 102.952 140.508 102.952 139.898ZM103.148 145.693L112.047 145.693L112.047 147.705L110.067 147.705L110.362 147.541C111.027 147.748 111.49 148.07 111.752 148.506C112.014 148.953 112.145 149.488 112.145 150.109L112.145 150.633L110.247 150.633L110.247 149.864C110.247 149.253 110.056 148.762 109.675 148.392C109.304 148.021 108.781 147.836 108.105 147.836L103.148 147.836L103.148 145.693Z" fill="#2A2A2A"/>
<path d="M84.6113 31.4095L91.2014 31.4095L91.2014 33.674C91.2014 34.1045 91.1159 34.4819 90.9449 34.8063C90.7797 35.1306 90.5439 35.3812 90.2372 35.5582C89.9364 35.741 89.5856 35.8324 89.1846 35.8324C88.7836 35.8324 88.4327 35.741 88.1319 35.5582C87.8312 35.3812 87.5953 35.1306 87.4243 34.8063C87.2591 34.4878 87.1766 34.1104 87.1766 33.674L87.1766 32.1172L84.6113 32.1172L84.6113 31.4095ZM87.84 32.1172L87.84 33.7094C87.84 33.9925 87.8931 34.2401 87.9992 34.4524C88.1113 34.6647 88.2676 34.8299 88.4681 34.9478C88.6745 35.0657 88.9162 35.1247 89.1934 35.1247C89.4706 35.1247 89.7094 35.0657 89.9099 34.9478C90.1104 34.8299 90.2637 34.6647 90.3699 34.4524C90.4819 34.2401 90.538 33.9925 90.538 33.7094L90.538 32.1172L87.84 32.1172ZM84.6113 36.9963L89.3526 36.9963L89.3526 37.6597L88.5742 37.6597L88.6892 37.5712C88.9133 37.6833 89.0902 37.8514 89.2199 38.0755C89.3497 38.3054 89.4146 38.5826 89.4146 38.9069L89.4146 39.2077L88.7511 39.2077L88.7511 38.792C88.7511 38.4499 88.645 38.1757 88.4327 37.9693C88.2204 37.7629 87.9196 37.6597 87.5304 37.6597L84.6113 37.6597L84.6113 36.9963ZM84.5052 42.2054C84.5052 41.7573 84.6113 41.3503 84.8236 40.9847C85.0418 40.6191 85.3367 40.3272 85.7082 40.109C86.0856 39.8967 86.5132 39.7906 86.9908 39.7906C87.4626 39.7906 87.8842 39.8967 88.2558 40.109C88.6273 40.3213 88.9192 40.6073 89.1315 40.967C89.3497 41.3327 89.4588 41.7455 89.4588 42.2054C89.4588 42.6654 89.3526 43.0753 89.1403 43.435C88.928 43.8006 88.6361 44.0866 88.2646 44.293C87.8931 44.5053 87.4685 44.6115 86.9908 44.6115C86.5073 44.6115 86.0768 44.5024 85.6994 44.2842C85.3278 44.066 85.0359 43.7741 84.8236 43.4085C84.6113 43.0487 84.5052 42.6477 84.5052 42.2054ZM85.1686 42.2054C85.1686 42.5239 85.2482 42.8099 85.4074 43.0635C85.5667 43.3229 85.7849 43.5264 86.062 43.6738C86.3392 43.8271 86.6488 43.9038 86.9908 43.9038C87.3329 43.9038 87.6395 43.8271 87.9108 43.6738C88.182 43.5264 88.3973 43.3229 88.5565 43.0635C88.7157 42.8099 88.7954 42.5239 88.7954 42.2054C88.7954 41.887 88.7157 41.598 88.5565 41.3386C88.3973 41.085 88.182 40.8815 87.9108 40.7282C87.6395 40.5749 87.3329 40.4982 86.9908 40.4982C86.6488 40.4982 86.3392 40.5749 86.062 40.7282C85.7849 40.8815 85.5667 41.085 85.4074 41.3386C85.2482 41.598 85.1686 41.887 85.1686 42.2054ZM84.5052 47.9222C84.5052 47.4799 84.6113 47.0818 84.8236 46.728C85.0418 46.3742 85.3367 46.0941 85.7082 45.8877C86.0856 45.6872 86.5102 45.5869 86.982 45.5869C87.4596 45.5869 87.8842 45.6872 88.2558 45.8877C88.6273 46.0941 88.9192 46.3712 89.1315 46.7192C89.3497 47.073 89.4588 47.474 89.4588 47.9222C89.4588 48.3291 89.3703 48.6918 89.1934 49.0102C89.0165 49.3287 88.7777 49.5793 88.4769 49.7621L88.2911 49.6559L91.3075 49.6559L91.3075 50.3194L84.6113 50.3194L84.6113 49.6559L85.6728 49.6559L85.5755 49.7621C85.2335 49.597 84.9681 49.3493 84.7794 49.0191C84.5966 48.6947 84.5052 48.3291 84.5052 47.9222ZM85.1686 47.9576C85.1686 48.276 85.2482 48.562 85.4074 48.8156C85.5667 49.0751 85.7819 49.2785 86.0532 49.426C86.3303 49.5793 86.6399 49.6559 86.982 49.6559C87.324 49.6559 87.6307 49.5793 87.9019 49.426C88.1791 49.2785 88.3973 49.0751 88.5565 48.8156C88.7157 48.562 88.7954 48.276 88.7954 47.9576C88.7954 47.645 88.7157 47.362 88.5565 47.1084C88.3973 46.8548 88.182 46.6543 87.9108 46.5069C87.6395 46.3653 87.3299 46.2946 86.982 46.2946C86.6399 46.2946 86.3303 46.3653 86.0532 46.5069C85.7819 46.6543 85.5667 46.8519 85.4074 47.0995C85.2482 47.3531 85.1686 47.6391 85.1686 47.9576ZM84.5052 53.3622C84.5052 53.032 84.5818 52.7312 84.7352 52.46C84.8944 52.1887 85.1126 51.9735 85.3898 51.8142C85.6728 51.6609 85.9972 51.5842 86.3628 51.5842L89.3526 51.5842L89.3526 52.2477L86.4424 52.2477C86.1888 52.2477 85.9647 52.2978 85.7701 52.398C85.5814 52.5042 85.434 52.6487 85.3278 52.8315C85.2217 53.0202 85.1686 53.2354 85.1686 53.4772C85.1686 53.719 85.2217 53.9343 85.3278 54.123C85.4399 54.3117 85.5961 54.4591 85.7967 54.5652C86.0031 54.6714 86.2478 54.7245 86.5308 54.7245L89.3526 54.7245L89.3526 55.3879L84.6113 55.3879L84.6113 54.7245L85.5313 54.7245L85.4959 54.8748C85.1892 54.7628 84.9475 54.5711 84.7705 54.2999C84.5936 54.0286 84.5052 53.7161 84.5052 53.3622ZM84.5052 58.9195C84.5052 58.4536 84.6143 58.0438 84.8325 57.6899C85.0507 57.3361 85.3455 57.0589 85.717 56.8584C86.0945 56.6579 86.5191 56.5577 86.9908 56.5577C87.4626 56.5577 87.8842 56.6579 88.2558 56.8584C88.6273 57.0589 88.9192 57.3361 89.1315 57.6899C89.3497 58.0438 89.4588 58.4536 89.4588 58.9195C89.4588 59.2143 89.4057 59.4915 89.2996 59.751C89.1934 60.0105 89.0489 60.2404 88.8661 60.4409C88.6892 60.6414 88.4828 60.7918 88.2469 60.8921L87.9373 60.2906C88.1909 60.1726 88.3973 59.9928 88.5565 59.751C88.7157 59.5092 88.7954 59.232 88.7954 58.9195C88.7954 58.6069 88.7157 58.3239 88.5565 58.0703C88.4032 57.8226 88.1879 57.6251 87.9108 57.4776C87.6395 57.3361 87.3299 57.2653 86.982 57.2653C86.6399 57.2653 86.3303 57.3361 86.0532 57.4776C85.7819 57.6251 85.5667 57.8226 85.4074 58.0703C85.2482 58.3239 85.1686 58.6069 85.1686 58.9195C85.1686 59.232 85.2482 59.5062 85.4074 59.7421C85.5667 59.9839 85.779 60.1667 86.0443 60.2906L85.717 60.8921C85.4871 60.7918 85.2807 60.6414 85.0978 60.4409C84.915 60.2404 84.7705 60.0105 84.6644 59.751C84.5583 59.4915 84.5052 59.2143 84.5052 58.9195ZM84.5583 63.8696C84.5583 63.445 84.6821 63.1177 84.9298 62.8878C85.1775 62.6578 85.5313 62.5428 85.9913 62.5428L88.6892 62.5428L88.6892 61.667L89.3526 61.667L89.3526 61.8882C89.3526 62.0887 89.4175 62.2479 89.5472 62.3659C89.6829 62.4838 89.8509 62.5428 90.0514 62.5428L90.4495 62.5428L90.4495 63.2062L89.3526 63.2062L89.3526 64.25L88.6892 64.25L88.6892 63.2062L85.9913 63.2062C85.832 63.2062 85.6905 63.2298 85.5667 63.277C85.4487 63.3241 85.3544 63.4038 85.2836 63.5158C85.2128 63.6337 85.1775 63.79 85.1775 63.9846C85.1775 64.0318 85.1804 64.0878 85.1863 64.1527C85.1922 64.2176 85.1981 64.2736 85.204 64.3208L84.6113 64.3208C84.5936 64.25 84.5818 64.1704 84.5759 64.0819C84.5641 63.9935 84.5583 63.9227 84.5583 63.8696Z" fill="#2A2A2A"/>
<rect x="171.012" y="30.2178" width="105.307" height="33.9086" rx="3.68571" transform="rotate(90 171.012 30.2178)" stroke="#2A2A2A" stroke-width="0.681531"/>
<path d="M150.691 62.6653L153.81 62.6653L153.81 66.0675L154.443 66.0675L154.443 62.6653L157.365 62.6653L157.365 66.7763L157.997 66.7763L157.997 61.9456L150.691 61.9456L150.691 62.6653ZM150.582 69.1278C150.582 70.2074 151.313 70.7962 152.185 70.9816L150.691 70.9816L150.691 71.6904L155.926 71.6904L155.926 70.9816L152.905 70.9816C151.989 70.9816 151.193 70.5454 151.193 69.4114C151.193 68.5172 151.716 68.1246 152.556 68.1246L155.926 68.1246L155.926 67.4158L152.403 67.4158C151.193 67.4158 150.582 68.1028 150.582 69.1278ZM150.691 73.94L157.997 73.94L157.997 73.2203L150.691 73.2203L150.691 73.94ZM150.691 76.1869L157.997 76.1869L157.997 75.4672L150.691 75.4672L150.691 76.1869ZM150.571 79.4261C150.571 80.1022 150.888 80.6147 151.269 80.8437L151.967 80.5929C151.596 80.4184 151.258 80.0368 151.258 79.5679C151.258 79.1099 151.466 78.7173 152.218 78.7173L155.369 78.7173L155.369 80.4729L155.926 80.4729L155.926 78.7173L157.212 78.7173L156.678 78.0085L155.926 78.0085L155.926 77.158L155.369 77.158L155.369 78.0085L152.022 78.0085C151.073 78.0085 150.571 78.6301 150.571 79.4261ZM156.863 82.5336L157.997 82.5336L157.997 81.8139L156.863 81.8139L156.863 82.5336ZM150.691 82.5336L155.926 82.5336L155.926 81.8139L150.691 81.8139L150.691 82.5336ZM150.691 84.7806L153.723 84.7806C154.628 84.7806 155.435 85.2277 155.435 86.1545C155.435 86.9724 154.988 87.3758 154.072 87.3758L150.691 87.3758L150.691 88.0846L153.723 88.0846C154.628 88.0846 155.435 88.5317 155.435 89.4695C155.435 90.2764 154.988 90.6799 154.072 90.6799L150.691 90.6799L150.691 91.3996L154.235 91.3996C155.435 91.3996 156.035 90.8326 156.035 89.8293C156.035 88.8479 155.304 88.2482 154.443 88.0737C155.5 88.0192 156.035 87.4631 156.035 86.5144C156.035 85.5439 155.326 84.9659 154.464 84.7806L155.926 84.7806L155.926 84.0609L150.691 84.0609L150.691 84.7806ZM150.582 95.0487C150.582 96.1609 151.117 96.8588 151.76 97.2296L152.273 96.7934C151.76 96.5644 151.182 96.1064 151.182 95.0487C151.182 94.0128 151.836 93.304 153.145 93.2603L153.145 97.2514C153.232 97.2623 153.363 97.2841 153.494 97.2841C155.075 97.2841 156.035 96.3899 156.035 94.9614C156.035 93.5439 155.01 92.5734 153.308 92.5734C151.575 92.5734 150.582 93.5875 150.582 95.0487ZM155.446 94.9614C155.446 95.921 154.846 96.5644 153.668 96.6298L153.668 93.2712C154.846 93.3694 155.446 94.0018 155.446 94.9614Z" fill="#2A2A2A"/>
<rect x="171.012" y="152.694" width="105.307" height="33.9086" rx="3.68571" transform="rotate(90 171.012 152.694)" stroke="#2A2A2A" stroke-width="0.681531"/>
<path d="M150.582 191.875C150.582 193.947 152.229 195.343 154.355 195.343C156.46 195.343 158.106 193.947 158.106 191.875C158.106 189.803 156.46 188.407 154.355 188.407C152.229 188.407 150.582 189.803 150.582 191.875ZM151.258 191.886C151.258 190.152 152.567 189.16 154.355 189.16C156.122 189.16 157.441 190.152 157.441 191.886C157.441 193.609 156.122 194.601 154.355 194.601C152.567 194.601 151.258 193.609 151.258 191.886ZM150.691 197.438L153.723 197.438C154.628 197.438 155.435 197.885 155.435 198.987C155.435 199.892 154.911 200.284 154.061 200.284L150.691 200.284L150.691 201.004L154.224 201.004C155.424 201.004 156.035 200.306 156.035 199.27C156.035 198.224 155.315 197.624 154.464 197.438L155.926 197.438L155.926 196.719L150.691 196.719L150.691 197.438ZM150.582 204.337C150.582 205.308 151.029 206.158 152.033 206.158C152.774 206.158 153.221 205.722 153.494 204.632L153.668 203.934C153.854 203.17 154.05 202.778 154.595 202.778C155.14 202.778 155.435 203.225 155.435 203.857C155.435 204.675 155.042 205.22 154.334 205.46L154.737 206.005C155.478 205.744 156.035 205.013 156.035 203.901C156.035 202.821 155.468 202.102 154.563 202.102C153.625 202.102 153.276 202.876 153.09 203.628L152.927 204.337C152.763 205.046 152.567 205.515 152.022 205.515C151.477 205.515 151.193 205.057 151.193 204.359C151.193 203.301 151.782 202.647 152.491 202.483L152.087 201.949C151.062 202.265 150.582 203.268 150.582 204.337ZM156.863 208.087L157.997 208.087L157.997 207.368L156.863 207.368L156.863 208.087ZM150.691 208.087L155.926 208.087L155.926 207.368L150.691 207.368L150.691 208.087ZM150.571 211.327C150.571 212.003 150.888 212.515 151.269 212.744L151.967 212.493C151.596 212.319 151.258 211.937 151.258 211.468C151.258 211.01 151.466 210.618 152.218 210.618L155.369 210.618L155.369 212.373L155.926 212.373L155.926 210.618L157.212 210.618L156.678 209.909L155.926 209.909L155.926 209.058L155.369 209.058L155.369 209.909L152.022 209.909C151.073 209.909 150.571 210.531 150.571 211.327ZM150.582 215.502C150.582 216.614 151.117 217.312 151.76 217.682L152.273 217.246C151.76 217.017 151.182 216.559 151.182 215.502C151.182 214.466 151.836 213.757 153.145 213.713L153.145 217.704C153.232 217.715 153.363 217.737 153.494 217.737C155.075 217.737 156.035 216.843 156.035 215.414C156.035 213.997 155.01 213.026 153.308 213.026C151.575 213.026 150.582 214.04 150.582 215.502ZM155.446 215.414C155.446 216.374 154.846 217.017 153.668 217.083L153.668 213.724C154.846 213.822 155.446 214.455 155.446 215.414Z" fill="#2A2A2A"/>
<path d="M44.543 210.58L45.6334 210.58L45.6334 207.777L45.5244 206.687L46.1568 207.537L47.051 208.551C47.6944 209.326 48.7085 210.372 49.8862 210.372C51.0857 210.372 51.958 209.653 51.958 208.181C51.958 206.501 50.8894 205.313 49.4282 205.345L48.6867 206.381C50.0934 206.316 50.7803 206.992 50.7803 208.072C50.7803 208.78 50.3333 209.086 49.8098 209.086C49.1229 209.086 48.5667 208.584 47.8797 207.875L45.4808 205.356L44.543 205.356L44.543 210.58ZM44.543 216.089L46.1895 216.089L46.1895 217.321L47.2582 217.321L47.2582 216.089L51.849 216.089L51.849 214.792L47.1382 211.215L46.1895 211.215L46.1895 214.868L44.543 214.868L44.543 216.089ZM47.2582 212.567L50.2569 214.868L47.2582 214.868L47.2582 212.567ZM44.543 221.204L46.3858 221.902L46.3858 224.988L44.543 225.686L44.543 227.038L51.849 224.181L51.849 222.763L44.543 219.906L44.543 221.204ZM49.4282 223.058L50.7476 223.45L49.4282 223.843L47.4545 224.584L47.4545 222.305L49.4282 223.058ZM42.5147 228.958L45.9606 228.958C45.1427 229.132 44.4339 229.579 44.4339 230.637C44.4339 231.945 45.4917 232.774 47.2037 232.774C48.9157 232.774 49.9734 231.945 49.9734 230.659C49.9734 229.601 49.2646 229.132 48.4359 228.958L49.8535 228.958L49.8535 227.736L42.5147 227.736L42.5147 228.958ZM46.8765 228.958L47.5308 228.958C48.4032 228.958 48.9811 229.317 48.9811 230.179C48.9811 230.942 48.4032 231.52 47.2037 231.52C46.0042 231.52 45.4262 230.942 45.4262 230.179C45.4262 229.317 46.0042 228.958 46.8765 228.958ZM42.5147 235.006L45.9606 235.006C45.1427 235.181 44.4339 235.628 44.4339 236.685C44.4339 237.994 45.4917 238.823 47.2037 238.823C48.9157 238.823 49.9734 237.994 49.9734 236.707C49.9734 235.65 49.2646 235.181 48.4359 235.006L49.8535 235.006L49.8535 233.785L42.5147 233.785L42.5147 235.006ZM46.8765 235.006L47.5308 235.006C48.4032 235.006 48.9811 235.366 48.9811 236.227C48.9811 236.991 48.4032 237.569 47.2037 237.569C46.0042 237.569 45.4262 236.991 45.4262 236.227C45.4262 235.366 46.0042 235.006 46.8765 235.006ZM44.543 241.055L51.849 241.055L51.849 239.833L44.543 239.833L44.543 241.055ZM50.6059 243.568L51.849 243.568L51.849 242.347L50.6059 242.347L50.6059 243.568ZM44.543 243.568L49.8535 243.568L49.8535 242.347L44.543 242.347L44.543 243.568ZM44.4339 247.215C44.4339 248.393 44.9682 249.113 45.5789 249.516L46.364 248.764C45.9169 248.567 45.4371 248.153 45.4371 247.226C45.4371 246.386 45.9496 245.83 46.8983 245.765L46.8983 249.56C47.0074 249.581 47.2364 249.603 47.4327 249.603C48.9048 249.603 49.9625 248.72 49.9625 247.128C49.9625 245.634 48.8611 244.598 47.1928 244.598C45.5353 244.598 44.4339 245.634 44.4339 247.215ZM48.9811 247.128C48.9811 247.935 48.5231 248.415 47.6835 248.502L47.6835 245.776C48.5449 245.874 48.9811 246.375 48.9811 247.128ZM44.423 252.623C44.423 253.681 45.1318 254.128 45.9496 254.303L44.543 254.303L44.543 255.524L51.849 255.524L51.849 254.303L48.425 254.303C49.2537 254.128 49.9625 253.659 49.9625 252.602C49.9625 251.315 48.9048 250.486 47.1928 250.486C45.4808 250.486 44.423 251.315 44.423 252.623ZM47.1928 251.74C48.3814 251.74 48.9702 252.318 48.9702 253.081C48.9702 253.943 48.3923 254.303 47.5199 254.303L46.8547 254.303C45.9824 254.303 45.4153 253.943 45.4153 253.092C45.4153 252.318 45.9933 251.74 47.1928 251.74Z" fill="white"/>
<path d="M51.1793 196.442C51.1861 196.402 51.1861 196.354 51.1793 196.314C51.2131 195.381 51.9767 194.638 52.9227 194.638C53.8889 194.638 54.666 195.415 54.666 196.381C54.666 197.348 53.8822 198.125 52.9227 198.125C51.9767 198.118 51.2131 197.375 51.1793 196.442Z" stroke="white" stroke-width="1.0223" stroke-linecap="round" stroke-linejoin="round"/>
<path d="M46.2605 195.746C46.1051 196.672 46.2673 197.692 46.747 198.409C47.3822 199.361 48.4228 199.361 49.058 198.409C49.5377 197.686 49.6999 196.652 49.5377 195.726" stroke="white" stroke-width="1.0223" stroke-linecap="round" stroke-linejoin="round"/>
<path d="M51.1793 188.313C51.1861 188.354 51.1861 188.401 51.1793 188.441C51.2131 189.374 51.9767 190.117 52.9227 190.117C53.8889 190.117 54.666 189.34 54.666 188.374C54.666 187.408 53.8822 186.631 52.9227 186.631C51.9767 186.637 51.2131 187.381 51.1793 188.313Z" stroke="white" stroke-width="1.0223" stroke-linecap="round" stroke-linejoin="round"/>
<path d="M46.2605 189.009C46.1051 188.083 46.2673 187.063 46.747 186.347C47.3822 185.394 48.4228 185.394 49.058 186.347C49.5377 187.07 49.6999 188.104 49.5377 189.029" stroke="white" stroke-width="1.0223" stroke-linecap="round" stroke-linejoin="round"/>
<path d="M46.1315 192.388C46.1382 192.347 46.1382 192.3 46.1315 192.259C46.1653 191.327 46.9288 190.584 47.8748 190.584C48.8411 190.584 49.6182 191.361 49.6182 192.327C49.6182 193.293 48.8343 194.07 47.8748 194.07C46.9288 194.064 46.1585 193.32 46.1315 192.388Z" stroke="white" stroke-width="1.0223" stroke-linecap="round" stroke-linejoin="round"/>
<path d="M44.0028 190.421C43.3677 189.469 42.3271 189.469 41.6919 190.421C40.9689 191.503 40.9689 193.273 41.6919 194.354C42.3271 195.307 43.3677 195.307 44.0028 194.354C44.7191 193.28 44.7191 191.503 44.0028 190.421Z" stroke="white" stroke-width="1.0223" stroke-linecap="round" stroke-linejoin="round"/>
</g>
</g>
<defs>
<filter id="filter0_d_267_277" x="0.3" y="0.3" width="200.629" height="285.4" filterUnits="userSpaceOnUse" color-interpolation-filters="sRGB">
<feFlood flood-opacity="0" result="BackgroundImageFix"/>
<feColorMatrix in="SourceAlpha" type="matrix" values="0 0 0 0 0 0 0 0 0 0 0 0 0 0 0 0 0 0 127 0" result="hardAlpha"/>
<feOffset/>
<feGaussianBlur stdDeviation="6.85"/>
<feComposite in2="hardAlpha" operator="out"/>
<feColorMatrix type="matrix" values="0 0 0 0 0 0 0 0 0 0 0 0 0 0 0 0 0 0 0.1 0"/>
<feBlend mode="normal" in2="BackgroundImageFix" result="effect1_dropShadow_267_277"/>
<feBlend mode="normal" in="SourceGraphic" in2="effect1_dropShadow_267_277" result="shape"/>
</filter>
<filter id="filter1_f_267_277" x="-135.271" y="76.5" width="315" height="315" filterUnits="userSpaceOnUse" color-interpolation-filters="sRGB">
<feFlood flood-opacity="0" result="BackgroundImageFix"/>
<feBlend mode="normal" in="SourceGraphic" in2="BackgroundImageFix" result="shape"/>
<feGaussianBlur stdDeviation="53.75" result="effect1_foregroundBlur_267_277"/>
</filter>
<clipPath id="clip0_267_277">
<rect x="187.229" y="14" width="258" height="173.229" rx="10.32" transform="rotate(90 187.229 14)" fill="white"/>
</clipPath>
</defs>
</svg>
