<svg width="32" height="32" viewBox="0 0 32 32" fill="none" xmlns="http://www.w3.org/2000/svg">
<circle cx="16" cy="16" r="16" fill="#231F20"/>
<path d="M11.5815 24H8.26429V13.3176H11.5815V24ZM9.92109 11.8604C8.86036 11.8604 8 10.9819 8 9.92111C8 8.86011 8.8601 8 9.92109 8C10.9821 8 11.8422 8.86011 11.8422 9.92111C11.8422 10.9819 10.9815 11.8604 9.92109 11.8604ZM23.9965 24H20.6865V18.7999C20.6865 17.5606 20.6615 15.9712 18.9619 15.9712C17.2372 15.9712 16.9729 17.3177 16.9729 18.7106V24H13.6593V13.3176H16.8408V14.7748H16.8872C17.3301 13.9355 18.4119 13.0498 20.0258 13.0498C23.383 13.0498 24.0001 15.2605 24.0001 18.132V24H23.9965Z" fill="white"/>
</svg>
