<svg width="93" height="96" viewBox="0 0 93 96" fill="none" xmlns="http://www.w3.org/2000/svg">
<g clip-path="url(#clip0_274_386)">
<path d="M19.1686 63.8149L33.5224 70.9537L23.9045 76.3381L9.55078 69.1993L19.1686 63.8149Z" fill="#7533F6"/>
<path d="M54.1645 25.5978L68.5095 32.7317C63.5531 30.2631 57.25 30.5133 50.9147 34.0619C47.1231 36.241 43.807 39.1583 41.1625 42.6413L26.8174 35.5074C29.462 32.0245 32.7781 29.1072 36.5697 26.9281C42.9049 23.3795 49.2081 23.1292 54.1645 25.5978Z" fill="#9866F8"/>
<path d="M26.8182 35.5074L41.1632 42.6412C40.3844 43.6404 39.6579 44.6793 38.9866 45.7537L24.6416 38.6198C25.3128 37.5454 26.0393 36.5066 26.8182 35.5074Z" fill="#9866F8"/>
<path d="M24.6409 38.6199L38.9859 45.7538C38.4953 46.6252 37.9084 47.5456 37.4456 48.4901L23.1006 41.3561C23.5911 40.4847 24.1307 39.5261 24.6409 38.6199Z" fill="#9866F8"/>
<path d="M23.0747 41.3414L37.4197 48.4753C36.9586 49.2945 36.5722 50.1441 36.1982 51.0123L21.8531 43.8785C22.2271 43.0103 22.631 42.1704 23.0747 41.3414Z" fill="#9866F8"/>
<path d="M21.8536 43.8784L36.1986 51.0123C35.8454 51.8233 35.5096 52.6441 35.2136 53.4758L20.8685 46.342C21.1646 45.5103 21.5003 44.6894 21.8536 43.8784Z" fill="#9866F8"/>
<path d="M20.8679 46.342L35.213 53.4758C34.9181 54.2852 34.6492 55.1093 34.4163 55.9307L20.0713 48.7968C20.3042 47.9754 20.573 47.1514 20.8679 46.342Z" fill="#9866F8"/>
<path d="M20.072 48.7968L34.417 55.9307C34.1793 56.7608 33.9639 57.592 33.7932 58.4254L19.4481 51.2916C19.6188 50.4582 19.8343 49.6269 20.072 48.7968Z" fill="#9866F8"/>
<path d="M19.448 51.2916L33.7931 58.4254C33.5978 59.3024 33.4433 60.1679 33.3237 61.0531L18.9787 53.9191C19.0983 53.034 19.2527 52.1685 19.448 51.2916Z" fill="#9866F8"/>
<path d="M18.9786 53.9191L33.3236 61.053C33.192 62.0003 33.1003 62.9585 33.0493 63.9052L18.7042 56.7714C18.7552 55.8246 18.847 54.8663 18.9786 53.9191Z" fill="#9866F8"/>
<path d="M18.7038 56.7714L33.0489 63.9052C32.9899 65.0224 32.9918 66.1421 33.0544 67.2592L18.7094 60.1252C18.6468 59.0082 18.6449 57.8886 18.7038 56.7714Z" fill="#9866F8"/>
<path d="M18.7001 60.1427L33.0451 67.2766C33.1198 68.5176 33.2714 69.7528 33.4993 70.9749L19.1543 63.841C18.9264 62.6188 18.7747 61.3837 18.7001 60.1427Z" fill="#9866F8"/>
<path d="M34.5194 16.2604C52.0422 6.45512 69.3607 14.2186 73.1162 33.5801L63.4984 38.9645C60.8698 25.4701 48.8045 20.0556 36.59 26.8932C24.3755 33.7308 16.5474 50.2671 19.1885 63.7801L9.57071 69.1645C5.80815 49.8563 16.9808 26.1142 34.5194 16.2604Z" fill="#BA99FB"/>
<path d="M59.7475 14.3959L74.0925 21.5299C80.679 24.8128 85.6226 31.4628 87.4365 40.7576L73.0915 33.6237C71.2776 24.3289 66.3738 17.6898 59.7475 14.3959Z" fill="#9866F8"/>
<mask id="mask0_274_386" style="mask-type:luminance" maskUnits="userSpaceOnUse" x="59" y="14" width="29" height="27">
<path d="M59.7475 14.3959L74.0925 21.5299C80.679 24.8128 85.6226 31.4628 87.4365 40.7576L73.0915 33.6237C71.2776 24.3289 66.3738 17.6898 59.7475 14.3959Z" fill="white"/>
</mask>
<g mask="url(#mask0_274_386)">
<path d="M59.7471 14.3959L74.0921 21.5299C74.2141 21.5985 74.3361 21.6672 74.4668 21.7408L60.1218 14.6069C59.9911 14.5333 59.8691 14.4646 59.7471 14.3959Z" fill="#9866F8"/>
<path d="M60.0872 14.5873L74.4322 21.7212C75.3724 22.2087 76.2745 22.7663 77.1309 23.3895L62.7858 16.2555C61.9295 15.6324 61.0274 15.0747 60.0872 14.5873Z" fill="#9866F8"/>
<path d="M80.1478 25.9598C79.2395 25.0174 78.2475 24.1595 77.1841 23.3965L62.8391 16.2626C63.9025 17.0256 64.8945 17.8836 65.8027 18.826C67.3447 20.4221 68.6703 22.2138 69.7455 24.1552C70.9892 26.4201 71.9448 28.8315 72.5901 31.3335C72.7909 32.0776 72.9596 32.8381 73.1135 33.6248L87.4585 40.7587C87.3046 39.9721 87.1708 39.2312 86.9351 38.4674C86.2898 35.9654 85.3342 33.554 84.0905 31.2891C83.0153 29.3477 81.6898 27.5559 80.1478 25.9598Z" fill="#9866F8"/>
</g>
<path d="M73.1013 33.6063L87.455 40.745L77.8323 46.1382L63.4785 38.9995L73.1013 33.6063Z" fill="#7533F6"/>
</g>
<defs>
<clipPath id="clip0_274_386">
<rect width="73.24" height="64.89" fill="white" transform="translate(0 63.8232) rotate(-60.6247)"/>
</clipPath>
</defs>
</svg>
