<svg width="135" height="135" viewBox="0 0 135 135" fill="none" xmlns="http://www.w3.org/2000/svg">
<g id="united_1070919 1" clip-path="url(#clip0_72_40)">
<path id="Vector" d="M28.3095 6.01208L22.3739 0.0012207L0 22.3741L5.9367 28.3849L28.3095 6.01208Z" fill="white"/>
<path id="Vector_2" d="M11.6016 45.165L28.3096 61.9441L36.6997 53.554L31.107 47.9614L36.6997 42.3687L56.2762 61.9441L75.8526 42.3687L45.0897 11.6047H33.9033L11.6016 33.9786V45.165Z" fill="white"/>
<path id="Vector_3" d="M5.93865 106.69L28.3115 129.064L22.3748 134.999L0.00195312 112.626L5.93865 106.69Z" fill="white"/>
<path id="Vector_4" d="M11.6016 89.9109V101.098L33.9033 123.926H45.0897L61.8688 106.691L53.4798 98.3009L47.8861 103.895L42.2934 98.3009L61.8688 78.7244L42.2934 59.1479L11.6016 89.9109Z" fill="white"/>
<path id="Vector_5" d="M128.989 106.691L106.616 129.065L112.627 135L135 112.626L128.989 106.691Z" fill="white"/>
<path id="Vector_6" d="M78.6487 73.1313L59.0723 92.7078L89.8362 123.399H101.022L123.395 101.098V89.9105L106.615 73.1313L98.2252 81.5204L103.819 87.1141L98.2252 92.7078L78.6487 73.1313Z" fill="white"/>
<path id="Vector_7" d="M112.626 0L135 22.3728L129.067 28.3044L106.694 5.93155L112.626 0Z" fill="white"/>
<path id="Vector_8" d="M87.0394 31.1808L92.6331 36.7746L73.0566 56.351L92.6331 75.9275L123.398 45.0853V33.8989L101.102 11.6023H89.9151L73.0566 28.3845L81.4467 36.7746L87.0394 31.1808Z" fill="white"/>
</g>
<defs>
<clipPath id="clip0_72_40">
<rect width="134.999" height="135" fill="white"/>
</clipPath>
</defs>
</svg>
