<svg width="32" height="32" viewBox="0 0 32 32" fill="none" xmlns="http://www.w3.org/2000/svg">
<circle cx="16" cy="16" r="16" fill="#231F20"/>
<path d="M22.3554 12.7415C22.3655 12.8836 22.3655 13.0258 22.3655 13.1679C22.3655 17.5029 19.066 22.4979 13.0356 22.4979C11.1777 22.4979 9.45179 21.9598 8 21.0258C8.26397 21.0563 8.51775 21.0664 8.79188 21.0664C10.3249 21.0664 11.736 20.5487 12.863 19.6654C11.4213 19.6349 10.2132 18.6908 9.79694 17.3913C10 17.4217 10.203 17.442 10.4163 17.442C10.7107 17.442 11.0051 17.4014 11.2792 17.3304C9.77666 17.0258 8.64972 15.706 8.64972 14.1121V14.0715C9.08625 14.3151 9.59391 14.4674 10.1319 14.4877C9.24869 13.8989 8.67003 12.8938 8.67003 11.7567C8.67003 11.1476 8.83244 10.5892 9.11672 10.1019C10.7309 12.0918 13.1574 13.3912 15.8782 13.5334C15.8274 13.2897 15.7969 13.0359 15.7969 12.7821C15.7969 10.975 17.2589 9.50293 19.0761 9.50293C20.0203 9.50293 20.8731 9.89887 21.4721 10.5385C22.2132 10.3963 22.9238 10.1222 23.5533 9.74659C23.3096 10.508 22.7919 11.1476 22.1117 11.5537C22.7716 11.4827 23.4112 11.2999 24 11.0461C23.5534 11.6958 22.995 12.2745 22.3554 12.7415Z" fill="white"/>
</svg>
